<svg width="615" height="153" viewBox="0 0 615 153" fill="none" xmlns="http://www.w3.org/2000/svg">
<path d="M16.6144 98.3668C19.6703 98.3668 23.2762 97.3889 27.4322 95.4331C31.5883 93.4774 35.8665 90.8493 40.267 87.549C44.6674 84.1264 48.7623 80.276 52.5516 75.9977L54.2018 74.1642H55.6686L54.3852 75.631C50.4736 80.0315 46.1954 84.0653 41.5504 87.7323C36.9055 91.2771 32.3828 94.0886 27.9823 96.1666C23.5818 98.2446 19.7925 99.2836 16.6144 99.2836C14.1697 99.2836 12.2139 98.4279 10.7471 96.7166C9.28029 95.0053 8.54688 92.6217 8.54688 89.5658C8.54688 86.51 9.46364 83.3318 11.2972 80.0315C13.0085 76.7311 15.3309 73.553 18.2646 70.4971C21.3205 67.319 24.682 64.5076 28.349 62.0629C32.0161 59.4959 35.8054 57.479 39.7169 56.0122C43.6284 54.4232 47.3566 53.6286 50.9015 53.6286C52.4905 53.6286 53.774 53.9953 54.7519 54.7287C55.7297 55.3399 56.2187 56.1345 56.2187 57.1123C56.2187 59.0681 55.1186 61.1461 52.9183 63.3463C50.7181 65.4244 47.8456 67.4412 44.3007 69.397C40.8781 71.2305 37.15 72.7585 33.1162 73.9808C29.2047 75.2032 25.4765 75.8144 21.9317 75.8144L23.2151 74.5309C26.5155 74.4087 29.9992 73.7975 33.6663 72.6974C37.3333 71.475 40.6948 70.0082 43.7507 68.2969C46.9288 66.4634 49.4957 64.5687 51.4515 62.6129C53.4073 60.6572 54.3852 58.8236 54.3852 57.1123C54.3852 55.6455 53.4073 54.9121 51.4515 54.9121C49.129 54.9121 46.3176 55.89 43.0173 57.8458C39.7169 59.8015 36.2332 62.3685 32.5661 65.5466C29.0213 68.6025 25.721 71.9639 22.6651 75.631C19.6092 79.1758 17.1034 82.6595 15.1476 86.0821C13.1918 89.3825 12.2139 92.1939 12.2139 94.5164C12.2139 97.0833 13.6808 98.3668 16.6144 98.3668Z" fill="#A5B82E"/>
<path d="M55.6486 74.1642H54.1818L55.8319 72.3307C61.2103 66.4633 66.2831 61.8184 71.0502 58.3958C75.8174 54.851 79.6067 53.0786 82.4181 53.0786C83.5183 53.0786 84.435 53.4453 85.1684 54.1787C85.9018 54.9121 86.2686 55.89 86.2686 57.1123C86.2686 59.8015 85.1684 62.7963 82.9682 66.0966C80.768 69.397 76.9787 73.7975 71.6003 79.2981H73.4338L69.7668 84.2486L57.4821 98.0001H45.3808C49.7813 94.822 54.304 91.1549 58.9489 86.9989C63.5939 82.8429 67.8721 78.6869 71.7837 74.5309C75.6952 70.3749 78.8122 66.7078 81.1347 63.5297C83.5794 60.2293 84.8017 57.8458 84.8017 56.3789C84.8017 54.7899 83.9461 53.9953 82.2348 53.9953C80.768 53.9953 78.6288 54.851 75.8174 56.5623C73.006 58.1513 69.9501 60.3516 66.6498 63.163C63.4716 65.8522 60.3546 68.9081 57.2988 72.3307L55.6486 74.1642ZM109.554 99.2836C108.21 99.2836 106.987 98.6724 105.887 97.45C104.909 96.2277 104.421 94.822 104.421 93.2329C104.421 90.666 105.398 87.9768 107.354 85.1654C109.31 82.354 111.694 79.6037 114.505 76.9145C117.439 74.1031 120.311 71.475 123.123 69.0303C126.056 66.4634 128.501 64.1409 130.457 62.0629C132.412 59.9849 133.39 58.2125 133.39 56.7456C133.39 55.2788 132.535 54.5454 130.823 54.5454C129.112 54.5454 126.79 55.4622 123.856 57.2957C120.922 59.007 117.683 61.3295 114.138 64.2631C110.593 67.1968 106.987 70.436 103.32 73.9808C99.7756 77.4034 96.4752 80.826 93.4193 84.2486H91.9525C95.1306 80.7038 98.5532 77.159 102.22 73.6141C105.887 70.0693 109.554 66.7689 113.221 63.7131C116.889 60.6572 120.25 58.2125 123.306 56.3789C126.484 54.5454 129.051 53.6286 131.007 53.6286C132.351 53.6286 133.574 54.1176 134.674 55.0955C135.896 55.9511 136.507 57.3568 136.507 59.3126C136.507 61.8795 135.468 64.5076 133.39 67.1968C131.435 69.8859 128.99 72.5751 126.056 75.2643C123.123 77.9535 120.189 80.5204 117.255 82.9651C114.322 85.4098 111.816 87.7323 109.738 89.9326C107.782 92.1328 106.804 94.0886 106.804 95.7999C106.804 97.5111 107.782 98.3668 109.738 98.3668C111.571 98.3668 114.199 97.3278 117.622 95.2498C121.045 93.1718 124.773 90.4215 128.806 86.9989C132.84 83.5763 136.63 79.9092 140.174 75.9977L141.825 74.1642H143.291L142.008 75.631C138.219 80.0315 134.185 84.0041 129.907 87.549C125.751 91.0938 121.839 93.9663 118.172 96.1666C114.627 98.2446 111.755 99.2836 109.554 99.2836ZM69.7668 84.2486H68.2999L79.4845 72.3307C84.7406 66.5856 89.5689 62.0629 93.9694 58.7625C98.3699 55.4622 101.976 53.812 104.787 53.812C105.887 53.812 106.804 54.1787 107.538 54.9121C108.271 55.6455 108.638 56.6234 108.638 57.8458C108.638 60.4127 107.66 63.2852 105.704 66.4634C103.748 69.6415 100.265 73.9197 95.2529 79.2981H97.0864L93.4193 84.2486L81.1347 98.0001H70.3168C74.4728 94.822 78.69 91.216 82.9682 87.1823C87.3687 83.0263 91.3413 78.9314 94.8862 74.8976C98.5532 70.8638 101.487 67.2579 103.687 64.0798C106.01 60.9016 107.171 58.5792 107.171 57.1123C107.171 55.5233 106.315 54.7287 104.604 54.7287C103.137 54.7287 101.12 55.5233 98.5532 57.1123C95.9863 58.7014 93.1749 60.8405 90.119 63.5297C87.0631 66.0966 84.0072 69.0303 80.9513 72.3307L69.7668 84.2486Z" fill="#A5B82E"/>
<path d="M138.44 99.2836C136.973 99.2836 135.873 98.6113 135.139 97.2667C134.284 95.9221 133.856 94.0886 133.856 91.7661C133.856 88.588 134.834 85.2265 136.79 81.6817C138.623 78.1368 141.129 74.7142 144.307 71.4139C147.485 67.9913 151.03 64.9354 154.941 62.2462C158.853 59.4348 162.887 57.2346 167.043 55.6455C171.321 54.0565 175.355 53.2619 179.144 53.2619C182.322 53.2619 183.911 54.4843 183.911 56.929C183.911 59.2515 182.444 62.1851 179.511 65.7299C176.577 69.1525 172.91 73.1863 168.51 77.8312C164.965 81.4983 161.237 84.982 157.325 88.2824C153.536 91.4605 149.991 94.0886 146.691 96.1666C143.39 98.2446 140.64 99.2836 138.44 99.2836ZM138.623 98.3668C140.457 98.3668 142.84 97.45 145.774 95.6165C148.83 93.783 152.252 91.2771 156.042 88.099C159.831 84.9209 163.742 81.2538 167.776 77.0978C172.177 72.4529 175.721 68.4802 178.411 65.1799C181.222 61.8795 182.628 59.1903 182.628 57.1123C182.628 55.5233 181.589 54.7287 179.511 54.7287C177.677 54.7287 175.294 55.4622 172.36 56.929C169.549 58.3958 166.493 60.4127 163.192 62.9796C159.892 65.4244 156.653 68.1746 153.475 71.2305C150.297 74.2864 147.363 77.3423 144.674 80.3982C142.107 83.4541 140.029 86.3266 138.44 89.0158C136.851 91.705 136.056 93.9663 136.056 95.7999C136.056 97.5111 136.912 98.3668 138.623 98.3668ZM184.461 75.631C181.405 79.0536 178.472 81.7428 175.66 83.6985C172.849 85.6543 170.404 86.6322 168.326 86.6322C165.026 86.6322 163.376 84.9209 163.376 81.4983C163.376 79.5425 163.865 77.6479 164.843 75.8144C165.82 73.8586 167.532 71.475 169.976 68.6636H176.76L168.143 78.198C166.676 79.6648 165.943 81.315 165.943 83.1485C165.943 84.8598 166.798 85.7154 168.51 85.7154C170.221 85.7154 172.299 84.8598 174.744 83.1485C177.311 81.4372 179.939 79.0536 182.628 75.9977L184.278 74.1642H185.745L184.461 75.631Z" fill="#A5B82E"/>
<path d="M186.005 99.2836C183.683 99.2836 181.788 98.3668 180.322 96.5333C178.855 94.5775 178.121 92.1328 178.121 89.1991C178.121 86.1433 179.038 83.0263 180.872 79.8481C182.583 76.5478 184.905 73.3697 187.839 70.3138C190.773 67.1356 194.073 64.3242 197.74 61.8795C201.407 59.3126 205.196 57.2957 209.108 55.8289C213.02 54.362 216.748 53.6286 220.293 53.6286C224.937 53.6286 227.26 55.0343 227.26 57.8458C227.26 59.4348 226.404 61.3906 224.693 63.7131C223.104 66.0355 221.209 67.9913 219.009 69.5804H212.592C214.425 68.7247 216.32 67.5024 218.276 65.9133C220.231 64.3242 221.882 62.7352 223.226 61.1461C224.571 59.4348 225.243 58.0902 225.243 57.1123C225.243 55.5233 223.96 54.7287 221.393 54.7287C218.948 54.7287 216.014 55.7066 212.592 57.6624C209.169 59.6182 205.624 62.1851 201.957 65.3632C198.412 68.4191 195.051 71.7806 191.873 75.4477C188.817 78.9925 186.311 82.4762 184.355 85.8988C182.4 89.1991 181.422 92.0717 181.422 94.5164C181.422 97.0833 183.072 98.3668 186.372 98.3668C189.795 98.3668 193.706 97.3889 198.107 95.4331C202.63 93.4774 207.152 90.7882 211.675 87.3656C216.198 83.943 220.354 80.1537 224.143 75.9977L225.793 74.1642H227.26L225.976 75.631C221.943 80.276 217.542 84.3708 212.775 87.9157C208.008 91.4605 203.302 94.2719 198.657 96.3499C194.134 98.3057 189.917 99.2836 186.005 99.2836Z" fill="#A5B82E"/>
<path d="M218.2 99.2836C217.1 99.2836 216.183 98.8557 215.449 98.0001C214.594 97.2667 214.166 96.2888 214.166 95.0664C214.166 91.5216 216.427 86.6322 220.95 80.3982C225.35 74.0419 232.562 65.6688 242.586 55.2788H253.587C252.365 55.89 250.898 56.8679 249.186 58.2125C247.475 59.557 245.519 61.2683 243.319 63.3463C236.596 69.8248 231.218 75.2032 227.184 79.4814C223.272 83.6374 220.461 86.9989 218.75 89.5658C217.038 92.0106 216.183 94.0274 216.183 95.6165C216.183 97.45 216.916 98.3668 218.383 98.3668C220.094 98.3668 222.539 97.3889 225.717 95.4331C228.773 93.3551 232.196 90.6049 235.985 87.1823C239.896 83.7597 243.625 80.0315 247.17 75.9977L248.82 74.1642H250.287L249.003 75.631C244.969 80.1537 240.936 84.2486 236.902 87.9157C232.868 91.4605 229.201 94.2719 225.901 96.3499C222.722 98.3057 220.155 99.2836 218.2 99.2836ZM279.806 17.3247C280.906 17.3247 281.457 17.7525 281.457 18.6082C281.457 19.8305 280.601 21.3585 278.89 23.192C277.301 25.0255 275.406 26.6757 273.206 28.1425C271.005 29.4871 269.111 30.1594 267.522 30.1594C266.544 30.1594 266.055 29.7316 266.055 28.876C266.055 27.6536 266.849 26.1257 268.438 24.2921C270.15 22.4586 272.106 20.8695 274.306 19.5249C276.506 18.0581 278.34 17.3247 279.806 17.3247Z" fill="#A5B82E"/>
<path d="M245.515 99.2836C244.048 99.2836 242.948 98.6113 242.215 97.2667C241.359 95.9221 240.931 94.0886 240.931 91.7661C240.931 88.588 241.909 85.2265 243.865 81.6817C245.698 78.1368 248.204 74.7142 251.382 71.4139C254.56 67.9913 258.105 64.9354 262.017 62.2462C265.928 59.4348 269.962 57.2346 274.118 55.6455C278.396 54.0565 282.43 53.2619 286.219 53.2619C289.398 53.2619 290.987 54.4843 290.987 56.929C290.987 59.2515 289.52 62.1851 286.586 65.7299C283.652 69.1525 279.985 73.1863 275.585 77.8312C272.04 81.4983 268.312 84.982 264.4 88.2824C260.611 91.4605 257.066 94.0886 253.766 96.1666C250.466 98.2446 247.715 99.2836 245.515 99.2836ZM245.698 98.3668C247.532 98.3668 249.916 97.45 252.849 95.6165C255.905 93.783 259.328 91.2771 263.117 88.099C266.906 84.9209 270.818 81.2538 274.852 77.0978C279.252 72.4529 282.797 68.4802 285.486 65.1799C288.297 61.8795 289.703 59.1903 289.703 57.1123C289.703 55.5233 288.664 54.7287 286.586 54.7287C284.753 54.7287 282.369 55.4622 279.435 56.929C276.624 58.3958 273.568 60.4127 270.268 62.9796C266.967 65.4244 263.728 68.1746 260.55 71.2305C257.372 74.2864 254.438 77.3423 251.749 80.3982C249.182 83.4541 247.104 86.3266 245.515 89.0158C243.926 91.705 243.131 93.9663 243.131 95.7999C243.131 97.5111 243.987 98.3668 245.698 98.3668ZM291.537 75.631C288.481 79.0536 285.547 81.7428 282.736 83.6985C279.924 85.6543 277.48 86.6322 275.402 86.6322C272.101 86.6322 270.451 84.9209 270.451 81.4983C270.451 79.5425 270.94 77.6479 271.918 75.8144C272.896 73.8586 274.607 71.475 277.052 68.6636H283.836L275.218 78.198C273.751 79.6648 273.018 81.315 273.018 83.1485C273.018 84.8598 273.874 85.7154 275.585 85.7154C277.296 85.7154 279.374 84.8598 281.819 83.1485C284.386 81.4372 287.014 79.0536 289.703 75.9977L291.353 74.1642H292.82L291.537 75.631Z" fill="#A5B82E"/>
<path d="M292.897 74.1642H291.431L293.081 72.3307C298.459 66.4633 303.532 61.8184 308.299 58.3958C313.066 54.851 316.856 53.0786 319.667 53.0786C320.767 53.0786 321.684 53.4453 322.417 54.1787C323.151 54.9121 323.517 55.89 323.517 57.1123C323.517 59.8015 322.417 62.7963 320.217 66.0966C318.017 69.397 314.228 73.7975 308.849 79.2981H310.683L307.016 84.2486L294.731 98.0001H282.63C287.03 94.822 291.553 91.1549 296.198 86.9989C300.843 82.8429 305.121 78.6869 309.033 74.5309C312.944 70.3749 316.061 66.7078 318.384 63.5297C320.828 60.2293 322.051 57.8458 322.051 56.3789C322.051 54.7899 321.195 53.9953 319.484 53.9953C318.017 53.9953 315.878 54.851 313.066 56.5623C310.255 58.1513 307.199 60.3516 303.899 63.163C300.721 65.8522 297.604 68.9081 294.548 72.3307L292.897 74.1642ZM323.151 99.2836C321.806 99.2836 320.584 98.6724 319.484 97.45C318.506 96.2277 318.017 94.822 318.017 93.2329C318.017 90.666 318.995 87.9768 320.951 85.1654C322.906 82.354 325.29 79.6037 328.101 76.9145C331.035 74.1031 333.908 71.475 336.719 69.0303C339.653 66.4634 342.097 64.1409 344.053 62.0629C346.009 59.9849 346.987 58.2125 346.987 56.7456C346.987 55.2788 346.131 54.5454 344.42 54.5454C342.708 54.5454 340.386 55.4622 337.452 57.2957C334.519 59.007 331.279 61.3295 327.735 64.2631C324.19 67.1968 320.584 70.436 316.917 73.9808C313.372 77.4034 310.072 80.826 307.016 84.2486H305.549C308.727 80.7038 312.15 77.159 315.817 73.6141C319.484 70.0693 323.151 66.7689 326.818 63.7131C330.485 60.6572 333.846 58.2125 336.902 56.3789C340.08 54.5454 342.647 53.6286 344.603 53.6286C345.948 53.6286 347.17 54.1176 348.27 55.0955C349.492 55.9511 350.104 57.3568 350.104 59.3126C350.104 61.8795 349.065 64.5076 346.987 67.1968C345.031 69.8859 342.586 72.5751 339.653 75.2643C336.719 77.9535 333.785 80.5204 330.852 82.9651C327.918 85.4098 325.412 87.7323 323.334 89.9326C321.378 92.1328 320.4 94.0886 320.4 95.7999C320.4 96.5333 320.645 97.1444 321.134 97.6334C321.745 98.1223 322.478 98.3668 323.334 98.3668C325.168 98.3668 327.796 97.3278 331.218 95.2498C334.641 93.1718 338.369 90.4215 342.403 86.9989C346.437 83.5763 350.226 79.9092 353.771 75.9977L355.421 74.1642H356.888L355.604 75.631C351.693 80.0315 347.598 84.0041 343.32 87.549C339.164 91.0938 335.313 93.9663 331.768 96.1666C328.224 98.2446 325.351 99.2836 323.151 99.2836Z" fill="#A5B82E"/>
<path d="M356.82 98.3668C359.876 98.3668 363.482 97.3889 367.638 95.4331C371.794 93.4774 376.073 90.8493 380.473 87.549C384.873 84.1264 388.968 80.276 392.758 75.9977L394.408 74.1642H395.875L394.591 75.631C390.68 80.0315 386.401 84.0653 381.756 87.7323C377.112 91.2771 372.589 94.0886 368.188 96.1666C363.788 98.2446 359.999 99.2836 356.82 99.2836C354.376 99.2836 352.42 98.4279 350.953 96.7166C349.486 95.0053 348.753 92.6217 348.753 89.5658C348.753 86.51 349.67 83.3318 351.503 80.0315C353.215 76.7311 355.537 73.553 358.471 70.4971C361.526 67.319 364.888 64.5076 368.555 62.0629C372.222 59.4959 376.011 57.479 379.923 56.0122C383.834 54.4232 387.563 53.6286 391.107 53.6286C392.697 53.6286 393.98 53.9953 394.958 54.7287C395.936 55.3399 396.425 56.1345 396.425 57.1123C396.425 59.0681 395.325 61.1461 393.124 63.3463C390.924 65.4244 388.052 67.4412 384.507 69.397C381.084 71.2305 377.356 72.7585 373.322 73.9808C369.411 75.2032 365.682 75.8144 362.138 75.8144L363.421 74.5309C366.721 74.4087 370.205 73.7975 373.872 72.6974C377.539 71.475 380.901 70.0082 383.957 68.2969C387.135 66.4634 389.702 64.5687 391.658 62.6129C393.613 60.6572 394.591 58.8236 394.591 57.1123C394.591 55.6455 393.613 54.9121 391.658 54.9121C389.335 54.9121 386.524 55.89 383.223 57.8458C379.923 59.8015 376.439 62.3685 372.772 65.5466C369.227 68.6025 365.927 71.9639 362.871 75.631C359.815 79.1758 357.309 82.6595 355.354 86.0821C353.398 89.3825 352.42 92.1939 352.42 94.5164C352.42 97.0833 353.887 98.3668 356.82 98.3668Z" fill="#A5B82E"/>
<path d="M395.855 74.1642H394.388L396.038 72.3307C404.717 62.7963 411.684 54.9732 416.94 48.8615C422.319 42.7497 425.863 38.4714 427.575 36.0267H433.625C429.836 38.8381 425.13 43.0553 419.507 48.6781C414.007 54.3009 406.734 62.124 397.688 72.1473L395.855 74.1642ZM430.692 75.631C425.558 81.4983 420.179 85.9599 414.557 89.0158C409.056 92.0717 403.617 93.5996 398.238 93.5996C394.204 93.5996 390.843 93.9663 388.154 94.6997C385.342 95.4332 383.937 96.3499 383.937 97.45C383.937 98.0612 384.487 98.3668 385.587 98.3668C389.376 98.3668 393.043 97.3278 396.588 95.2498C400.255 93.1718 403.555 90.4215 406.489 86.9989C409.423 83.5763 411.745 79.7259 413.456 75.4477C415.168 71.0472 416.023 66.5856 416.023 62.0629C416.023 59.3737 416.207 56.9901 416.573 54.9121C417.062 52.8341 417.979 50.695 419.324 48.4947C420.668 46.1723 422.807 43.4831 425.741 40.4272L433.442 36.0267C430.142 38.5937 427.514 40.7328 425.558 42.4441C423.724 44.0331 422.441 45.5 421.707 46.8446C420.974 48.0669 420.607 49.4115 420.607 50.8783C420.607 52.4674 420.852 54.6676 421.341 57.479C421.952 60.1682 422.257 62.9185 422.257 65.7299C422.257 69.8859 421.218 73.9808 419.14 78.0146C417.062 81.9261 414.251 85.5321 410.706 88.8324C407.161 92.0106 403.25 94.5775 398.972 96.5333C394.693 98.3668 390.354 99.2836 385.954 99.2836C383.998 99.2836 383.02 98.6724 383.02 97.45C383.02 96.1054 384.487 95.0053 387.42 94.1497C390.354 93.1718 393.899 92.6829 398.055 92.6829C408.445 92.6829 418.713 87.1211 428.858 75.9977L430.508 74.1642H431.975L430.692 75.631Z" fill="#A5B82E"/>
<path d="M464.612 74.1642H463.145L464.795 72.3307C473.474 62.7963 480.441 54.9732 485.698 48.8615C491.076 42.7497 494.621 38.4714 496.332 36.0267H502.383C498.593 38.8381 493.887 43.0553 488.265 48.6781C482.764 54.3009 475.491 62.124 466.446 72.1473L464.612 74.1642ZM499.449 75.631C494.315 81.4983 488.937 85.9599 483.314 89.0158C477.813 92.0717 472.374 93.5996 466.996 93.5996C462.962 93.5996 459.6 93.9663 456.911 94.6997C454.1 95.4332 452.694 96.3499 452.694 97.45C452.694 98.0612 453.244 98.3668 454.344 98.3668C458.134 98.3668 461.801 97.3278 465.345 95.2498C469.012 93.1718 472.313 90.4215 475.246 86.9989C478.18 83.5763 480.503 79.7259 482.214 75.4477C483.925 71.0472 484.781 66.5856 484.781 62.0629C484.781 59.3737 484.964 56.9901 485.331 54.9121C485.82 52.8341 486.737 50.695 488.081 48.4947C489.426 46.1723 491.565 43.4831 494.499 40.4272L502.199 36.0267C498.899 38.5937 496.271 40.7328 494.315 42.4441C492.482 44.0331 491.198 45.5 490.465 46.8446C489.731 48.0669 489.365 49.4115 489.365 50.8783C489.365 52.4674 489.609 54.6676 490.098 57.479C490.709 60.1682 491.015 62.9185 491.015 65.7299C491.015 69.8859 489.976 73.9808 487.898 78.0146C485.82 81.9261 483.008 85.5321 479.464 88.8324C475.919 92.0106 472.007 94.5775 467.729 96.5333C463.451 98.3668 459.111 99.2836 454.711 99.2836C452.755 99.2836 451.777 98.6724 451.777 97.45C451.777 96.1054 453.244 95.0053 456.178 94.1497C459.111 93.1718 462.656 92.6829 466.812 92.6829C477.202 92.6829 487.47 87.1211 497.616 75.9977L499.266 74.1642H500.733L499.449 75.631Z" fill="#A5B82E"/>
<path d="M496.014 99.2836C494.547 99.2836 493.447 98.6113 492.714 97.2667C491.858 95.9221 491.43 94.0886 491.43 91.7661C491.43 88.588 492.408 85.2265 494.364 81.6817C496.197 78.1368 498.703 74.7142 501.881 71.4139C505.06 67.9913 508.604 64.9354 512.516 62.2462C516.427 59.4348 520.461 57.2346 524.617 55.6455C528.895 54.0565 532.929 53.2619 536.719 53.2619C539.897 53.2619 541.486 54.4843 541.486 56.929C541.486 59.2515 540.019 62.1851 537.085 65.7299C534.152 69.1525 530.484 73.1863 526.084 77.8312C522.539 81.4983 518.811 84.982 514.899 88.2824C511.11 91.4605 507.565 94.0886 504.265 96.1666C500.965 98.2446 498.214 99.2836 496.014 99.2836ZM496.197 98.3668C498.031 98.3668 500.415 97.45 503.348 95.6165C506.404 93.783 509.827 91.2771 513.616 88.099C517.405 84.9209 521.317 81.2538 525.351 77.0978C529.751 72.4529 533.296 68.4802 535.985 65.1799C538.797 61.8795 540.202 59.1903 540.202 57.1123C540.202 55.5233 539.163 54.7287 537.085 54.7287C535.252 54.7287 532.868 55.4622 529.934 56.929C527.123 58.3958 524.067 60.4127 520.767 62.9796C517.466 65.4244 514.227 68.1746 511.049 71.2305C507.871 74.2864 504.937 77.3423 502.248 80.3982C499.681 83.4541 497.603 86.3266 496.014 89.0158C494.425 91.705 493.631 93.9663 493.631 95.7999C493.631 97.5111 494.486 98.3668 496.197 98.3668ZM542.036 75.631C538.98 79.0536 536.046 81.7428 533.235 83.6985C530.423 85.6543 527.979 86.6322 525.901 86.6322C522.6 86.6322 520.95 84.9209 520.95 81.4983C520.95 79.5425 521.439 77.6479 522.417 75.8144C523.395 73.8586 525.106 71.475 527.551 68.6636H534.335L525.717 78.198C524.25 79.6648 523.517 81.315 523.517 83.1485C523.517 84.8598 524.373 85.7154 526.084 85.7154C527.795 85.7154 529.873 84.8598 532.318 83.1485C534.885 81.4372 537.513 79.0536 540.202 75.9977L541.852 74.1642H543.319L542.036 75.631Z" fill="#A5B82E"/>
<path d="M543.397 74.1642H541.93L543.58 72.3307C548.958 66.4633 554.031 61.8184 558.798 58.3958C563.565 54.851 567.355 53.0786 570.166 53.0786C571.266 53.0786 572.183 53.4453 572.916 54.1787C573.65 54.9121 574.017 55.89 574.017 57.1123C574.017 59.8015 572.916 62.7963 570.716 66.0966C568.516 69.397 564.727 73.7975 559.348 79.2981H561.182L557.515 84.2486L545.23 98.0001H533.129C537.529 94.822 542.052 91.1549 546.697 86.9989C551.342 82.8429 555.62 78.6869 559.532 74.5309C563.443 70.3749 566.56 66.7078 568.883 63.5297C571.327 60.2293 572.55 57.8458 572.55 56.3789C572.55 54.7899 571.694 53.9953 569.983 53.9953C568.516 53.9953 566.377 54.851 563.565 56.5623C560.754 58.1513 557.698 60.3516 554.398 63.163C551.22 65.8522 548.103 68.9081 545.047 72.3307L543.397 74.1642ZM573.65 99.2836C572.305 99.2836 571.083 98.6724 569.983 97.45C569.005 96.2277 568.516 94.822 568.516 93.2329C568.516 90.666 569.494 87.9768 571.45 85.1654C573.405 82.354 575.789 79.6037 578.6 76.9145C581.534 74.1031 584.407 71.475 587.218 69.0303C590.152 66.4634 592.596 64.1409 594.552 62.0629C596.508 59.9849 597.486 58.2125 597.486 56.7456C597.486 55.2788 596.63 54.5454 594.919 54.5454C593.208 54.5454 590.885 55.4622 587.951 57.2957C585.018 59.007 581.779 61.3295 578.234 64.2631C574.689 67.1968 571.083 70.436 567.416 73.9808C563.871 77.4034 560.571 80.826 557.515 84.2486H556.048C559.226 80.7038 562.649 77.159 566.316 73.6141C569.983 70.0693 573.65 66.7689 577.317 63.7131C580.984 60.6572 584.345 58.2125 587.401 56.3789C590.579 54.5454 593.146 53.6286 595.102 53.6286C596.447 53.6286 597.669 54.1176 598.769 55.0955C599.992 55.9511 600.603 57.3568 600.603 59.3126C600.603 61.8795 599.564 64.5076 597.486 67.1968C595.53 69.8859 593.085 72.5751 590.152 75.2643C587.218 77.9535 584.284 80.5204 581.351 82.9651C578.417 85.4098 575.911 87.7323 573.833 89.9326C571.877 92.1328 570.9 94.0886 570.9 95.7999C570.9 96.5333 571.144 97.1444 571.633 97.6334C572.244 98.1223 572.978 98.3668 573.833 98.3668C575.667 98.3668 578.295 97.3278 581.717 95.2498C585.14 93.1718 588.868 90.4215 592.902 86.9989C596.936 83.5763 600.725 79.9092 604.27 75.9977L605.92 74.1642H607.387L606.103 75.631C602.192 80.0315 598.097 84.0041 593.819 87.549C589.663 91.0938 585.812 93.9663 582.267 96.1666C578.723 98.2446 575.85 99.2836 573.65 99.2836Z" fill="#A5B82E"/>
<path d="M30.123 33L39.0352 7.26562H41.3379L50.2676 33H48.0879L40.8984 11.8359C40.7461 11.3789 40.6172 10.9805 40.5117 10.6406C40.4062 10.3008 40.3008 9.92578 40.1953 9.51562H40.0723C39.9668 9.92578 39.8555 10.3066 39.7383 10.6582C39.6328 11.0098 39.5039 11.4023 39.3516 11.8359L32.1973 33H30.123ZM33.5859 25.793L34.2012 24.0352H46.1191L46.752 25.793H33.5859ZM57.6328 7.40625H59.8477L66.8965 28.5352C67.0137 28.875 67.1309 29.2207 67.248 29.5723C67.3652 29.9238 67.4707 30.2637 67.5645 30.5918H67.6699C67.7637 30.2637 67.8691 29.918 67.9863 29.5547C68.1035 29.1914 68.2207 28.8457 68.3379 28.5176L75.4219 7.40625H77.5488L68.6895 33.1582H66.4746L57.6328 7.40625ZM80.2207 33V7.40625H94.3887V9.2168H82.3125V18.8848H92.6836V20.6953H82.3125V31.1895H94.582V33H80.2207ZM97.2363 20.8184V19.5352C97.2363 15.293 98.1387 12.1406 99.9434 10.0781C101.748 8.00391 104.068 6.9668 106.904 6.9668C109.693 6.9668 111.838 7.72852 113.338 9.25195C114.838 10.7754 115.623 12.7793 115.693 15.2637V15.6504H113.584L113.566 15.2812C113.52 13.3125 112.951 11.7422 111.861 10.5703C110.771 9.38672 109.119 8.79492 106.904 8.79492C104.596 8.79492 102.756 9.67383 101.385 11.4316C100.025 13.1895 99.3457 15.873 99.3457 19.4824V20.8711C99.3457 24.457 100.037 27.1465 101.42 28.9395C102.803 30.7207 104.637 31.6113 106.922 31.6113C109.102 31.6113 110.73 31.0195 111.809 29.8359C112.898 28.6523 113.484 27.082 113.566 25.125L113.584 24.7559H115.693L115.676 25.1953C115.559 27.6211 114.768 29.6016 113.303 31.1367C111.85 32.6719 109.711 33.4395 106.887 33.4395C103.98 33.4395 101.643 32.4023 99.873 30.3281C98.1152 28.2539 97.2363 25.084 97.2363 20.8184ZM119.877 33V7.40625H134.045V9.2168H121.969V18.8848H132.34V20.6953H121.969V31.1895H134.238V33H119.877ZM136.734 26.2324V25.4941H138.826V26.1973C138.826 27.9785 139.371 29.3262 140.461 30.2402C141.562 31.1543 143.086 31.6113 145.031 31.6113C146.977 31.6113 148.477 31.1484 149.531 30.2227C150.586 29.2969 151.113 28.0957 151.113 26.6191C151.113 25.2246 150.662 24.1172 149.76 23.2969C148.857 22.4766 147.105 21.6445 144.504 20.8008C141.902 19.9453 140.033 19.0078 138.896 17.9883C137.771 16.957 137.209 15.457 137.209 13.4883C137.209 11.5781 137.883 10.0137 139.23 8.79492C140.578 7.57617 142.471 6.9668 144.908 6.9668C147.346 6.9668 149.25 7.62305 150.621 8.93555C152.004 10.248 152.695 11.9238 152.695 13.9629V14.5605H150.604V13.9629C150.604 12.4512 150.129 11.2148 149.18 10.2539C148.242 9.28125 146.818 8.79492 144.908 8.79492C142.975 8.79492 141.551 9.21094 140.637 10.043C139.734 10.875 139.283 12.0117 139.283 13.4531C139.283 14.7656 139.729 15.8145 140.619 16.5996C141.521 17.373 143.273 18.1758 145.875 19.0078C148.477 19.8516 150.346 20.8359 151.482 21.9609C152.619 23.0859 153.188 24.627 153.188 26.584C153.188 28.6113 152.455 30.2637 150.99 31.541C149.525 32.8066 147.539 33.4395 145.031 33.4395C142.523 33.4395 140.514 32.8066 139.002 31.541C137.49 30.2754 136.734 28.5059 136.734 26.2324ZM156.861 36.0234C157.307 35.4141 157.646 34.7871 157.881 34.1426C158.127 33.5098 158.244 32.7422 158.232 31.8398L158.215 29.9062H160.271V31.8398C160.283 32.918 160.096 33.8555 159.709 34.6523C159.334 35.4609 158.818 36.1875 158.162 36.832L156.861 36.0234ZM173.842 33V7.40625H175.934V31.1895H187.518V33H173.842ZM188.467 33L197.379 7.26562H199.682L208.611 33H206.432L199.242 11.8359C199.09 11.3789 198.961 10.9805 198.855 10.6406C198.75 10.3008 198.645 9.92578 198.539 9.51562H198.416C198.311 9.92578 198.199 10.3066 198.082 10.6582C197.977 11.0098 197.848 11.4023 197.695 11.8359L190.541 33H188.467ZM191.93 25.793L192.545 24.0352H204.463L205.096 25.793H191.93ZM210.141 26.2324V25.4941H212.232V26.1973C212.232 27.9785 212.777 29.3262 213.867 30.2402C214.969 31.1543 216.492 31.6113 218.438 31.6113C220.383 31.6113 221.883 31.1484 222.938 30.2227C223.992 29.2969 224.52 28.0957 224.52 26.6191C224.52 25.2246 224.068 24.1172 223.166 23.2969C222.264 22.4766 220.512 21.6445 217.91 20.8008C215.309 19.9453 213.439 19.0078 212.303 17.9883C211.178 16.957 210.615 15.457 210.615 13.4883C210.615 11.5781 211.289 10.0137 212.637 8.79492C213.984 7.57617 215.877 6.9668 218.314 6.9668C220.752 6.9668 222.656 7.62305 224.027 8.93555C225.41 10.248 226.102 11.9238 226.102 13.9629V14.5605H224.01V13.9629C224.01 12.4512 223.535 11.2148 222.586 10.2539C221.648 9.28125 220.225 8.79492 218.314 8.79492C216.381 8.79492 214.957 9.21094 214.043 10.043C213.141 10.875 212.689 12.0117 212.689 13.4531C212.689 14.7656 213.135 15.8145 214.025 16.5996C214.928 17.373 216.68 18.1758 219.281 19.0078C221.883 19.8516 223.752 20.8359 224.889 21.9609C226.025 23.0859 226.594 24.627 226.594 26.584C226.594 28.6113 225.861 30.2637 224.396 31.541C222.932 32.8066 220.945 33.4395 218.438 33.4395C215.93 33.4395 213.92 32.8066 212.408 31.541C210.896 30.2754 210.141 28.5059 210.141 26.2324Z" fill="#FDA1B1"/>
<path d="M32.9766 144V118.406H35.6836L43.752 139.5C43.8809 139.828 44.0039 140.168 44.1211 140.52C44.25 140.859 44.3496 141.188 44.4199 141.504H44.5078C44.5898 141.188 44.6895 140.859 44.8066 140.52C44.9238 140.168 45.0469 139.828 45.1758 139.5L53.1914 118.406H55.9512V144H53.8945V123.434C53.8945 123.117 53.9004 122.766 53.9121 122.379C53.9238 121.98 53.9473 121.617 53.9824 121.289H53.8594C53.8008 121.617 53.707 121.975 53.5781 122.361C53.4492 122.748 53.3262 123.105 53.209 123.434L45.3691 144H43.4707L35.6133 123.451C35.4844 123.135 35.3496 122.76 35.209 122.326C35.0801 121.893 34.998 121.553 34.9629 121.307H34.8574C34.8691 121.541 34.8867 121.881 34.9102 122.326C34.9336 122.76 34.9453 123.135 34.9453 123.451V144H32.9766ZM58.7461 144L67.6582 118.266H69.9609L78.8906 144H76.7109L69.5215 122.836C69.3691 122.379 69.2402 121.98 69.1348 121.641C69.0293 121.301 68.9238 120.926 68.8184 120.516H68.6953C68.5898 120.926 68.4785 121.307 68.3613 121.658C68.2559 122.01 68.127 122.402 67.9746 122.836L60.8203 144H58.7461ZM62.209 136.793L62.8242 135.035H74.7422L75.375 136.793H62.209ZM66.7617 115.102L71.1738 109.318L73.0371 110.531L68.1152 115.875L66.7617 115.102ZM80.4199 137.232V136.494H82.5117V137.197C82.5117 138.979 83.0566 140.326 84.1465 141.24C85.248 142.154 86.7715 142.611 88.7168 142.611C90.6621 142.611 92.1621 142.148 93.2168 141.223C94.2715 140.297 94.7988 139.096 94.7988 137.619C94.7988 136.225 94.3477 135.117 93.4453 134.297C92.543 133.477 90.791 132.645 88.1895 131.801C85.5879 130.945 83.7188 130.008 82.582 128.988C81.457 127.957 80.8945 126.457 80.8945 124.488C80.8945 122.578 81.5684 121.014 82.916 119.795C84.2637 118.576 86.1562 117.967 88.5938 117.967C91.0312 117.967 92.9355 118.623 94.3066 119.936C95.6895 121.248 96.3809 122.924 96.3809 124.963V125.561H94.2891V124.963C94.2891 123.451 93.8145 122.215 92.8652 121.254C91.9277 120.281 90.5039 119.795 88.5938 119.795C86.6602 119.795 85.2363 120.211 84.3223 121.043C83.4199 121.875 82.9688 123.012 82.9688 124.453C82.9688 125.766 83.4141 126.814 84.3047 127.6C85.207 128.373 86.959 129.176 89.5605 130.008C92.1621 130.852 94.0312 131.836 95.168 132.961C96.3047 134.086 96.873 135.627 96.873 137.584C96.873 139.611 96.1406 141.264 94.6758 142.541C93.2109 143.807 91.2246 144.439 88.7168 144.439C86.209 144.439 84.1992 143.807 82.6875 142.541C81.1758 141.275 80.4199 139.506 80.4199 137.232ZM108.281 144V118.406H121.676V120.217H110.373V130.201H120.217V132.012H110.373V144H108.281ZM124.787 135.58V118.406H126.879V135.598C126.879 138.023 127.436 139.799 128.549 140.924C129.662 142.037 131.168 142.594 133.066 142.594C134.953 142.594 136.447 142.037 137.549 140.924C138.662 139.799 139.219 138.023 139.219 135.598V118.406H141.328V135.58C141.328 138.58 140.566 140.807 139.043 142.26C137.52 143.713 135.521 144.439 133.049 144.439C130.6 144.439 128.607 143.713 127.072 142.26C125.549 140.807 124.787 138.58 124.787 135.58ZM146.531 144V118.406H160.699V120.217H148.623V129.885H158.994V131.695H148.623V142.189H160.893V144H146.531ZM164.531 144V118.406H171.756C174.264 118.406 176.168 119.074 177.469 120.41C178.77 121.734 179.42 123.492 179.42 125.684C179.42 127.887 178.77 129.668 177.469 131.027C176.18 132.375 174.275 133.049 171.756 133.049H166.623V144H164.531ZM166.623 131.273H171.756C173.795 131.273 175.23 130.752 176.062 129.709C176.895 128.654 177.311 127.312 177.311 125.684C177.311 124.066 176.889 122.748 176.045 121.729C175.201 120.709 173.771 120.199 171.756 120.199H166.623V131.273ZM178.172 144L171.984 132.152L174.164 131.924L180.562 144H178.172ZM180.703 120.217V118.406H198.773V120.217H190.793V144H188.701V120.217H180.703ZM201.797 144V118.406H215.965V120.217H203.889V129.885H214.26V131.695H203.889V142.189H216.158V144H201.797ZM218.654 137.232V136.494H220.746V137.197C220.746 138.979 221.291 140.326 222.381 141.24C223.482 142.154 225.006 142.611 226.951 142.611C228.896 142.611 230.396 142.148 231.451 141.223C232.506 140.297 233.033 139.096 233.033 137.619C233.033 136.225 232.582 135.117 231.68 134.297C230.777 133.477 229.025 132.645 226.424 131.801C223.822 130.945 221.953 130.008 220.816 128.988C219.691 127.957 219.129 126.457 219.129 124.488C219.129 122.578 219.803 121.014 221.15 119.795C222.498 118.576 224.391 117.967 226.828 117.967C229.266 117.967 231.17 118.623 232.541 119.936C233.924 121.248 234.615 122.924 234.615 124.963V125.561H232.523V124.963C232.523 123.451 232.049 122.215 231.1 121.254C230.162 120.281 228.738 119.795 226.828 119.795C224.895 119.795 223.471 120.211 222.557 121.043C221.654 121.875 221.203 123.012 221.203 124.453C221.203 125.766 221.648 126.814 222.539 127.6C223.441 128.373 225.193 129.176 227.795 130.008C230.396 130.852 232.266 131.836 233.402 132.961C234.539 134.086 235.107 135.627 235.107 137.584C235.107 139.611 234.375 141.264 232.91 142.541C231.445 143.807 229.459 144.439 226.951 144.439C224.443 144.439 222.434 143.807 220.922 142.541C219.41 141.275 218.654 139.506 218.654 137.232ZM245.602 131.818V130.535C245.602 126.34 246.504 123.199 248.309 121.113C250.125 119.016 252.475 117.967 255.357 117.967C258.264 117.967 260.619 119.016 262.424 121.113C264.24 123.199 265.148 126.34 265.148 130.535V131.818C265.148 136.014 264.24 139.166 262.424 141.275C260.619 143.385 258.264 144.439 255.357 144.439C252.475 144.439 250.125 143.385 248.309 141.275C246.504 139.166 245.602 136.014 245.602 131.818ZM247.711 131.871C247.711 135.492 248.408 138.188 249.803 139.957C251.197 141.727 253.049 142.611 255.357 142.611C257.678 142.611 259.535 141.727 260.93 139.957C262.324 138.188 263.021 135.492 263.021 131.871V130.482C263.021 126.861 262.324 124.178 260.93 122.432C259.535 120.686 257.678 119.812 255.357 119.812C253.049 119.812 251.197 120.686 249.803 122.432C248.408 124.178 247.711 126.861 247.711 130.482V131.871ZM263.83 148.131L256.623 141.627L257.959 140.273L265.201 146.707L263.83 148.131ZM269.42 135.58V118.406H271.512V135.598C271.512 138.023 272.068 139.799 273.182 140.924C274.295 142.037 275.801 142.594 277.699 142.594C279.586 142.594 281.08 142.037 282.182 140.924C283.295 139.799 283.852 138.023 283.852 135.598V118.406H285.961V135.58C285.961 138.58 285.199 140.807 283.676 142.26C282.152 143.713 280.154 144.439 277.682 144.439C275.232 144.439 273.24 143.713 271.705 142.26C270.182 140.807 269.42 138.58 269.42 135.58ZM291.164 144V118.406H305.332V120.217H293.256V129.885H303.627V131.695H293.256V142.189H305.525V144H291.164ZM316.336 144V118.406H318.428V142.189H330.012V144H316.336ZM331.945 131.818V130.535C331.945 126.305 332.848 123.152 334.652 121.078C336.469 119.004 338.818 117.967 341.701 117.967C344.607 117.967 346.963 119.004 348.768 121.078C350.584 123.152 351.492 126.305 351.492 130.535V131.818C351.492 136.096 350.584 139.271 348.768 141.346C346.963 143.408 344.607 144.439 341.701 144.439C338.818 144.439 336.469 143.408 334.652 141.346C332.848 139.271 331.945 136.096 331.945 131.818ZM334.055 131.871C334.055 135.527 334.752 138.229 336.146 139.975C337.541 141.721 339.393 142.594 341.701 142.594C344.021 142.594 345.879 141.721 347.273 139.975C348.668 138.229 349.365 135.527 349.365 131.871V130.482C349.365 126.861 348.668 124.178 347.273 122.432C345.879 120.686 344.021 119.812 341.701 119.812C339.393 119.812 337.541 120.686 336.146 122.432C334.752 124.178 334.055 126.861 334.055 130.482V131.871ZM354.709 137.232V136.494H356.801V137.197C356.801 138.979 357.346 140.326 358.436 141.24C359.537 142.154 361.061 142.611 363.006 142.611C364.951 142.611 366.451 142.148 367.506 141.223C368.561 140.297 369.088 139.096 369.088 137.619C369.088 136.225 368.637 135.117 367.734 134.297C366.832 133.477 365.08 132.645 362.479 131.801C359.877 130.945 358.008 130.008 356.871 128.988C355.746 127.957 355.184 126.457 355.184 124.488C355.184 122.578 355.857 121.014 357.205 119.795C358.553 118.576 360.445 117.967 362.883 117.967C365.32 117.967 367.225 118.623 368.596 119.936C369.979 121.248 370.67 122.924 370.67 124.963V125.561H368.578V124.963C368.578 123.451 368.104 122.215 367.154 121.254C366.217 120.281 364.793 119.795 362.883 119.795C360.949 119.795 359.525 120.211 358.611 121.043C357.709 121.875 357.258 123.012 357.258 124.453C357.258 125.766 357.703 126.814 358.594 127.6C359.496 128.373 361.248 129.176 363.85 130.008C366.451 130.852 368.32 131.836 369.457 132.961C370.594 134.086 371.162 135.627 371.162 137.584C371.162 139.611 370.43 141.264 368.965 142.541C367.5 143.807 365.514 144.439 363.006 144.439C360.498 144.439 358.488 143.807 356.977 142.541C355.465 141.275 354.709 139.506 354.709 137.232ZM382.57 144V118.406H389.918C392.508 118.406 394.459 119.098 395.771 120.48C397.084 121.863 397.74 123.674 397.74 125.912C397.74 128.15 397.084 129.973 395.771 131.379C394.459 132.773 392.508 133.471 389.918 133.471H384.662V144H382.57ZM384.662 131.678H389.883C391.992 131.678 393.475 131.127 394.33 130.025C395.197 128.924 395.631 127.559 395.631 125.93C395.631 124.301 395.197 122.941 394.33 121.852C393.475 120.762 391.992 120.217 389.883 120.217H384.662V131.678ZM401.309 144V118.406H408.533C411.041 118.406 412.945 119.074 414.246 120.41C415.547 121.734 416.197 123.492 416.197 125.684C416.197 127.887 415.547 129.668 414.246 131.027C412.957 132.375 411.053 133.049 408.533 133.049H403.4V144H401.309ZM403.4 131.273H408.533C410.572 131.273 412.008 130.752 412.84 129.709C413.672 128.654 414.088 127.312 414.088 125.684C414.088 124.066 413.666 122.748 412.822 121.729C411.979 120.709 410.549 120.199 408.533 120.199H403.4V131.273ZM414.949 144L408.762 132.152L410.941 131.924L417.34 144H414.949ZM419.871 131.818V130.535C419.871 126.305 420.773 123.152 422.578 121.078C424.395 119.004 426.744 117.967 429.627 117.967C432.533 117.967 434.889 119.004 436.693 121.078C438.51 123.152 439.418 126.305 439.418 130.535V131.818C439.418 136.096 438.51 139.271 436.693 141.346C434.889 143.408 432.533 144.439 429.627 144.439C426.744 144.439 424.395 143.408 422.578 141.346C420.773 139.271 419.871 136.096 419.871 131.818ZM421.98 131.871C421.98 135.527 422.678 138.229 424.072 139.975C425.467 141.721 427.318 142.594 429.627 142.594C431.947 142.594 433.805 141.721 435.199 139.975C436.594 138.229 437.291 135.527 437.291 131.871V130.482C437.291 126.861 436.594 124.178 435.199 122.432C433.805 120.686 431.947 119.812 429.627 119.812C427.318 119.812 425.467 120.686 424.072 122.432C422.678 124.178 421.98 126.861 421.98 130.482V131.871ZM443.918 144V118.406H451.283C453.604 118.406 455.42 118.922 456.732 119.953C458.045 120.984 458.701 122.637 458.701 124.91C458.701 126.434 458.35 127.676 457.646 128.637C456.943 129.598 456.041 130.225 454.939 130.518V130.588C456.252 130.881 457.324 131.566 458.156 132.645C458.988 133.723 459.404 135.146 459.404 136.916C459.404 139.166 458.73 140.912 457.383 142.154C456.035 143.385 454.189 144 451.846 144H443.918ZM445.975 142.207H451.863C453.727 142.207 455.098 141.738 455.977 140.801C456.867 139.852 457.312 138.551 457.312 136.898C457.312 135.258 456.873 133.957 455.994 132.996C455.115 132.035 453.738 131.555 451.863 131.555H445.975V142.207ZM445.975 129.779H451.371C453.234 129.779 454.576 129.352 455.396 128.496C456.217 127.629 456.627 126.439 456.627 124.928C456.627 123.334 456.193 122.15 455.326 121.377C454.471 120.604 453.123 120.211 451.283 120.199H445.975V129.779ZM463.605 144V118.406H465.697V142.189H477.281V144H463.605ZM480.551 144V118.406H494.719V120.217H482.643V129.885H493.014V131.695H482.643V142.189H494.912V144H480.551ZM498.551 144V118.406H501.258L509.326 139.5C509.455 139.828 509.578 140.168 509.695 140.52C509.824 140.859 509.924 141.188 509.994 141.504H510.082C510.164 141.188 510.264 140.859 510.381 140.52C510.498 140.168 510.621 139.828 510.75 139.5L518.766 118.406H521.525V144H519.469V123.434C519.469 123.117 519.475 122.766 519.486 122.379C519.498 121.98 519.521 121.617 519.557 121.289H519.434C519.375 121.617 519.281 121.975 519.152 122.361C519.023 122.748 518.9 123.105 518.783 123.434L510.943 144H509.045L501.188 123.451C501.059 123.135 500.924 122.76 500.783 122.326C500.654 121.893 500.572 121.553 500.537 121.307H500.432C500.443 121.541 500.461 121.881 500.484 122.326C500.508 122.76 500.52 123.135 500.52 123.451V144H498.551ZM524.32 144L533.232 118.266H535.535L544.465 144H542.285L535.096 122.836C534.943 122.379 534.814 121.98 534.709 121.641C534.604 121.301 534.498 120.926 534.393 120.516H534.27C534.164 120.926 534.053 121.307 533.936 121.658C533.83 122.01 533.701 122.402 533.549 122.836L526.395 144H524.32ZM527.783 136.793L528.398 135.035H540.316L540.949 136.793H527.783ZM545.994 137.232V136.494H548.086V137.197C548.086 138.979 548.631 140.326 549.721 141.24C550.822 142.154 552.346 142.611 554.291 142.611C556.236 142.611 557.736 142.148 558.791 141.223C559.846 140.297 560.373 139.096 560.373 137.619C560.373 136.225 559.922 135.117 559.02 134.297C558.117 133.477 556.365 132.645 553.764 131.801C551.162 130.945 549.293 130.008 548.156 128.988C547.031 127.957 546.469 126.457 546.469 124.488C546.469 122.578 547.143 121.014 548.49 119.795C549.838 118.576 551.73 117.967 554.168 117.967C556.605 117.967 558.51 118.623 559.881 119.936C561.264 121.248 561.955 122.924 561.955 124.963V125.561H559.863V124.963C559.863 123.451 559.389 122.215 558.439 121.254C557.502 120.281 556.078 119.795 554.168 119.795C552.234 119.795 550.811 120.211 549.896 121.043C548.994 121.875 548.543 123.012 548.543 124.453C548.543 125.766 548.988 126.814 549.879 127.6C550.781 128.373 552.533 129.176 555.135 130.008C557.736 130.852 559.605 131.836 560.742 132.961C561.879 134.086 562.447 135.627 562.447 137.584C562.447 139.611 561.715 141.264 560.25 142.541C558.785 143.807 556.799 144.439 554.291 144.439C551.783 144.439 549.773 143.807 548.262 142.541C546.75 141.275 545.994 139.506 545.994 137.232ZM566.631 142.734C566.631 142.301 566.766 141.932 567.035 141.627C567.305 141.311 567.697 141.152 568.213 141.152C568.729 141.152 569.121 141.311 569.391 141.627C569.672 141.932 569.812 142.301 569.812 142.734C569.812 143.191 569.672 143.572 569.391 143.877C569.121 144.182 568.729 144.334 568.213 144.334C567.697 144.334 567.305 144.182 567.035 143.877C566.766 143.561 566.631 143.18 566.631 142.734ZM575.631 142.734C575.631 142.301 575.766 141.932 576.035 141.627C576.305 141.311 576.697 141.152 577.213 141.152C577.729 141.152 578.121 141.311 578.391 141.627C578.672 141.932 578.812 142.301 578.812 142.734C578.812 143.191 578.672 143.572 578.391 143.877C578.121 144.182 577.729 144.334 577.213 144.334C576.697 144.334 576.305 144.182 576.035 143.877C575.766 143.561 575.631 143.18 575.631 142.734ZM584.631 142.734C584.631 142.301 584.766 141.932 585.035 141.627C585.305 141.311 585.697 141.152 586.213 141.152C586.729 141.152 587.121 141.311 587.391 141.627C587.672 141.932 587.812 142.301 587.812 142.734C587.812 143.191 587.672 143.572 587.391 143.877C587.121 144.182 586.729 144.334 586.213 144.334C585.697 144.334 585.305 144.182 585.035 143.877C584.766 143.561 584.631 143.18 584.631 142.734Z" fill="#FDA1B1"/>
</svg>
