<svg width="615" height="220" viewBox="0 0 615 220" fill="none" xmlns="http://www.w3.org/2000/svg">
<path d="M180.998 165.284C178.676 165.284 176.781 164.367 175.314 162.533C173.848 160.578 173.114 158.133 173.114 155.199C173.114 152.143 174.031 149.026 175.865 145.848C177.576 142.548 179.898 139.37 182.832 136.314C185.766 133.136 189.066 130.324 192.733 127.88C196.4 125.313 200.189 123.296 204.101 121.829C208.012 120.362 211.741 119.629 215.285 119.629C219.93 119.629 222.253 121.034 222.253 123.846C222.253 125.435 221.397 127.391 219.686 129.713C218.097 132.036 216.202 133.991 214.002 135.58H207.585C209.418 134.725 211.313 133.502 213.269 131.913C215.224 130.324 216.875 128.735 218.219 127.146C219.564 125.435 220.236 124.09 220.236 123.112C220.236 121.523 218.953 120.729 216.386 120.729C213.941 120.729 211.007 121.707 207.585 123.662C204.162 125.618 200.617 128.185 196.95 131.363C193.405 134.419 190.044 137.781 186.866 141.448C183.81 144.993 181.304 148.476 179.348 151.899C177.392 155.199 176.415 158.072 176.415 160.516C176.415 163.083 178.065 164.367 181.365 164.367C184.788 164.367 188.699 163.389 193.1 161.433C197.622 159.477 202.145 156.788 206.668 153.366C211.191 149.943 215.347 146.154 219.136 141.998L220.786 140.164H222.253L220.969 141.631C216.936 146.276 212.535 150.371 207.768 153.916C203.001 157.461 198.295 160.272 193.65 162.35C189.127 164.306 184.91 165.284 180.998 165.284Z" fill="#A5B82E"/>
<path d="M217.41 164.917C214.354 164.917 212.826 162.533 212.826 157.766C212.826 154.588 213.804 151.227 215.76 147.682C217.593 144.137 220.099 140.714 223.277 137.414C226.455 133.991 230 130.935 233.912 128.246C237.823 125.435 241.857 123.235 246.013 121.646C250.291 120.057 254.325 119.262 258.114 119.262C261.292 119.262 262.881 120.484 262.881 122.929C262.881 125.252 261.415 128.185 258.481 131.73C255.547 135.153 251.88 139.186 247.48 143.831C244.057 147.376 240.39 150.799 236.479 154.099C232.689 157.277 229.083 159.905 225.661 161.983C222.36 163.939 219.61 164.917 217.41 164.917ZM217.593 164C219.427 164 221.871 163.145 224.927 161.433C227.983 159.6 231.406 157.094 235.195 153.916C238.984 150.738 242.835 147.132 246.746 143.098C251.147 138.453 254.692 134.48 257.381 131.18C260.192 127.88 261.598 125.19 261.598 123.112C261.598 121.523 260.559 120.729 258.481 120.729C256.647 120.729 254.264 121.462 251.33 122.929C248.519 124.396 245.463 126.413 242.162 128.98C238.862 131.424 235.623 134.175 232.445 137.231C229.267 140.286 226.333 143.342 223.644 146.398C221.077 149.454 218.999 152.327 217.41 155.016C215.821 157.705 215.026 159.966 215.026 161.8C215.026 163.267 215.882 164 217.593 164ZM274.983 140.164L273.699 141.631C269.788 146.032 265.815 150.065 261.781 153.732C257.87 157.277 254.203 160.089 250.78 162.167C247.48 164.245 244.852 165.284 242.896 165.284C241.796 165.284 240.818 164.856 239.962 164C239.229 163.267 238.862 162.289 238.862 161.066C238.862 157.888 240.573 153.61 243.996 148.232C247.541 142.853 252.43 136.986 258.664 130.63H259.398L267.832 121.279H278.65C277.061 122.257 275.349 123.479 273.516 124.946C271.682 126.291 269.971 127.757 268.382 129.346C261.415 136.314 255.914 141.876 251.88 146.032C247.846 150.188 244.974 153.427 243.263 155.749C241.674 158.072 240.879 160.027 240.879 161.617C240.879 163.45 241.612 164.367 243.079 164.367C244.791 164.367 247.113 163.45 250.047 161.617C253.103 159.661 256.525 156.972 260.314 153.549C264.104 150.126 267.954 146.276 271.866 141.998L273.516 140.164H274.983Z" fill="#A5B82E"/>
<path d="M274.998 140.164H273.532L275.182 138.331C283.861 128.796 290.828 120.973 296.084 114.862C301.462 108.75 305.007 104.471 306.719 102.027H312.769C308.98 104.838 304.274 109.055 298.651 114.678C293.15 120.301 285.877 128.124 276.832 138.147L274.998 140.164ZM309.836 141.631C304.702 147.498 299.323 151.96 293.7 155.016C288.2 158.072 282.76 159.6 277.382 159.6C273.348 159.6 269.987 159.966 267.298 160.7C264.486 161.433 263.08 162.35 263.08 163.45C263.08 164.061 263.631 164.367 264.731 164.367C268.52 164.367 272.187 163.328 275.732 161.25C279.399 159.172 282.699 156.422 285.633 152.999C288.567 149.576 290.889 145.726 292.6 141.448C294.312 137.047 295.167 132.586 295.167 128.063C295.167 125.374 295.351 122.99 295.717 120.912C296.206 118.834 297.123 116.695 298.468 114.495C299.812 112.172 301.951 109.483 304.885 106.427L312.586 102.027C309.285 104.594 306.657 106.733 304.702 108.444C302.868 110.033 301.585 111.5 300.851 112.845C300.118 114.067 299.751 115.412 299.751 116.878C299.751 118.467 299.996 120.668 300.485 123.479C301.096 126.168 301.401 128.919 301.401 131.73C301.401 135.886 300.362 139.981 298.284 144.015C296.206 147.926 293.395 151.532 289.85 154.832C286.305 158.011 282.394 160.578 278.115 162.533C273.837 164.367 269.498 165.284 265.097 165.284C263.142 165.284 262.164 164.672 262.164 163.45C262.164 162.105 263.631 161.005 266.564 160.15C269.498 159.172 273.043 158.683 277.199 158.683C287.589 158.683 297.856 153.121 308.002 141.998L309.652 140.164H311.119L309.836 141.631Z" fill="#A5B82E"/>
<path d="M326.569 121.279H337.571C335.493 122.379 332.864 124.274 329.686 126.963C326.508 129.652 323.147 132.708 319.602 136.13C316.179 139.553 312.94 143.037 309.884 146.582C306.828 150.004 304.384 153.121 302.55 155.933C300.594 158.622 299.616 160.578 299.616 161.8C299.616 163.511 300.35 164.367 301.817 164.367C303.528 164.367 306.156 163.206 309.701 160.883C313.246 158.561 317.218 155.444 321.619 151.532C326.019 147.498 330.42 142.976 334.82 137.964H336.287C328.097 146.52 320.947 153.243 314.835 158.133C308.845 162.9 304.445 165.284 301.633 165.284C300.533 165.284 299.678 164.917 299.066 164.184C298.455 163.45 298.15 162.472 298.15 161.25C298.15 158.805 299.005 155.994 300.717 152.816C302.428 149.515 305.362 145.359 309.518 140.348C313.674 135.336 319.357 128.98 326.569 121.279ZM325.469 165.284C322.78 165.284 321.435 163.878 321.435 161.066C321.435 157.522 323.636 152.632 328.036 146.398C332.559 140.042 339.832 131.669 349.855 121.279H360.856C359.634 121.89 358.106 122.868 356.273 124.213C354.561 125.557 352.667 127.268 350.589 129.346C343.988 135.947 338.671 141.387 334.637 145.665C330.725 149.821 327.853 153.121 326.019 155.566C324.308 158.011 323.452 160.027 323.452 161.617C323.452 163.45 324.186 164.367 325.653 164.367C327.364 164.367 329.747 163.328 332.803 161.25C335.981 159.172 339.465 156.483 343.255 153.182C347.044 149.76 350.772 146.032 354.439 141.998L356.089 140.164H357.556L356.273 141.631C352.239 146.154 348.205 150.249 344.171 153.916C340.137 157.461 336.47 160.272 333.17 162.35C329.992 164.306 327.425 165.284 325.469 165.284Z" fill="#A5B82E"/>
<path d="M352.776 164.917C349.72 164.917 348.192 162.533 348.192 157.766C348.192 154.588 349.17 151.227 351.126 147.682C352.959 144.137 355.465 140.714 358.643 137.414C361.821 133.991 365.366 130.935 369.278 128.246C373.189 125.435 377.223 123.235 381.379 121.646C385.657 120.057 389.691 119.262 393.48 119.262C396.658 119.262 398.248 120.484 398.248 122.929C398.248 125.252 396.781 128.185 393.847 131.73C390.913 135.153 387.246 139.186 382.846 143.831C379.423 147.376 375.756 150.799 371.845 154.099C368.055 157.277 364.449 159.905 361.027 161.983C357.727 163.939 354.976 164.917 352.776 164.917ZM352.959 164C354.793 164 357.238 163.145 360.293 161.433C363.349 159.6 366.772 157.094 370.561 153.916C374.351 150.738 378.201 147.132 382.112 143.098C386.513 138.453 390.058 134.48 392.747 131.18C395.558 127.88 396.964 125.19 396.964 123.112C396.964 121.523 395.925 120.729 393.847 120.729C392.014 120.729 389.63 121.462 386.696 122.929C383.885 124.396 380.829 126.413 377.529 128.98C374.228 131.424 370.989 134.175 367.811 137.231C364.633 140.286 361.699 143.342 359.01 146.398C356.443 149.454 354.365 152.327 352.776 155.016C351.187 157.705 350.392 159.966 350.392 161.8C350.392 163.267 351.248 164 352.959 164ZM410.349 140.164L409.065 141.631C405.154 146.032 401.181 150.065 397.147 153.732C393.236 157.277 389.569 160.089 386.146 162.167C382.846 164.245 380.218 165.284 378.262 165.284C377.162 165.284 376.184 164.856 375.328 164C374.595 163.267 374.228 162.289 374.228 161.066C374.228 157.888 375.94 153.61 379.362 148.232C382.907 142.853 387.796 136.986 394.03 130.63H394.764L403.198 121.279H414.016C412.427 122.257 410.716 123.479 408.882 124.946C407.049 126.291 405.337 127.757 403.748 129.346C396.781 136.314 391.28 141.876 387.246 146.032C383.213 150.188 380.34 153.427 378.629 155.749C377.04 158.072 376.245 160.027 376.245 161.617C376.245 163.45 376.979 164.367 378.445 164.367C380.157 164.367 382.479 163.45 385.413 161.617C388.469 159.661 391.891 156.972 395.681 153.549C399.47 150.126 403.32 146.276 407.232 141.998L408.882 140.164H410.349Z" fill="#A5B82E"/>
<path d="M404.131 165.284C400.83 165.284 399.18 163.45 399.18 159.783C399.18 154.038 402.419 147.498 408.898 140.164L529.361 3.74951H540.912C538.956 4.72739 535.962 7.04986 531.928 10.7169C528.016 14.2618 523.432 18.7233 518.176 24.1017C513.042 29.3578 507.664 35.164 502.041 41.5203L416.965 137.964C411.342 144.198 407.431 149.026 405.231 152.449C403.03 155.871 401.93 158.805 401.93 161.25C401.93 163.328 402.786 164.367 404.497 164.367C407.675 164.367 412.015 162.411 417.515 158.5C423.016 154.466 428.822 148.965 434.934 141.998L436.584 140.164H438.051L436.767 141.631C430.045 149.21 423.872 155.077 418.249 159.233C412.748 163.267 408.042 165.284 404.131 165.284Z" fill="#A5B82E"/>
<path d="M191.58 83.5801V66.4062H193.672V83.5977C193.672 86.0234 194.229 87.7988 195.342 88.9238C196.455 90.0371 197.961 90.5938 199.859 90.5938C201.746 90.5938 203.24 90.0371 204.342 88.9238C205.455 87.7988 206.012 86.0234 206.012 83.5977V66.4062H208.121V83.5801C208.121 86.5801 207.359 88.8066 205.836 90.2598C204.312 91.7129 202.314 92.4395 199.842 92.4395C197.393 92.4395 195.4 91.7129 193.865 90.2598C192.342 88.8066 191.58 86.5801 191.58 83.5801ZM213.324 92V66.4062H215.592L227.721 86.9727C227.908 87.2773 228.078 87.582 228.23 87.8867C228.395 88.1914 228.529 88.4844 228.635 88.7656H228.74C228.729 88.4492 228.717 88.1152 228.705 87.7637C228.705 87.4121 228.705 87.0781 228.705 86.7617V66.4062H230.709V92H228.459L216.312 71.3984C216.125 71.0938 215.949 70.7832 215.785 70.4668C215.621 70.1387 215.48 69.8398 215.363 69.5703H215.275C215.287 69.8984 215.299 70.2559 215.311 70.6426C215.322 71.0176 215.328 71.3691 215.328 71.6973V92H213.324ZM243.559 92V66.4062H257.727V68.2168H245.65V77.8848H256.021V79.6953H245.65V90.1895H257.92V92H243.559ZM261.559 92V66.4062H263.826L275.955 86.9727C276.143 87.2773 276.312 87.582 276.465 87.8867C276.629 88.1914 276.764 88.4844 276.869 88.7656H276.975C276.963 88.4492 276.951 88.1152 276.939 87.7637C276.939 87.4121 276.939 87.0781 276.939 86.7617V66.4062H278.943V92H276.693L264.547 71.3984C264.359 71.0938 264.184 70.7832 264.02 70.4668C263.855 70.1387 263.715 69.8398 263.598 69.5703H263.51C263.521 69.8984 263.533 70.2559 263.545 70.6426C263.557 71.0176 263.562 71.3691 263.562 71.6973V92H261.559ZM283.461 79.8184V78.5352C283.461 74.293 284.363 71.1406 286.168 69.0781C287.973 67.0039 290.293 65.9668 293.129 65.9668C295.918 65.9668 298.062 66.7285 299.562 68.252C301.062 69.7754 301.848 71.7793 301.918 74.2637V74.6504H299.809L299.791 74.2812C299.744 72.3125 299.176 70.7422 298.086 69.5703C296.996 68.3867 295.344 67.7949 293.129 67.7949C290.82 67.7949 288.98 68.6738 287.609 70.4316C286.25 72.1895 285.57 74.873 285.57 78.4824V79.8711C285.57 83.457 286.262 86.1465 287.645 87.9395C289.027 89.7207 290.861 90.6113 293.146 90.6113C295.326 90.6113 296.955 90.0195 298.033 88.8359C299.123 87.6523 299.709 86.082 299.791 84.125L299.809 83.7559H301.918L301.9 84.1953C301.783 86.6211 300.992 88.6016 299.527 90.1367C298.074 91.6719 295.936 92.4395 293.111 92.4395C290.205 92.4395 287.867 91.4023 286.098 89.3281C284.34 87.2539 283.461 84.084 283.461 79.8184ZM305.908 83.5801V66.4062H308V83.5977C308 86.0234 308.557 87.7988 309.67 88.9238C310.783 90.0371 312.289 90.5938 314.188 90.5938C316.074 90.5938 317.568 90.0371 318.67 88.9238C319.783 87.7988 320.34 86.0234 320.34 83.5977V66.4062H322.449V83.5801C322.449 86.5801 321.688 88.8066 320.164 90.2598C318.641 91.7129 316.643 92.4395 314.17 92.4395C311.721 92.4395 309.729 91.7129 308.193 90.2598C306.67 88.8066 305.908 86.5801 305.908 83.5801ZM327.652 92V66.4062H341.82V68.2168H329.744V77.8848H340.115V79.6953H329.744V90.1895H342.014V92H327.652ZM345.652 92V66.4062H347.92L360.049 86.9727C360.236 87.2773 360.406 87.582 360.559 87.8867C360.723 88.1914 360.857 88.4844 360.963 88.7656H361.068C361.057 88.4492 361.045 88.1152 361.033 87.7637C361.033 87.4121 361.033 87.0781 361.033 86.7617V66.4062H363.037V92H360.787L348.641 71.3984C348.453 71.0938 348.277 70.7832 348.113 70.4668C347.949 70.1387 347.809 69.8398 347.691 69.5703H347.604C347.615 69.8984 347.627 70.2559 347.639 70.6426C347.65 71.0176 347.656 71.3691 347.656 71.6973V92H345.652ZM365.902 68.2168V66.4062H383.973V68.2168H375.992V92H373.9V68.2168H365.902ZM386.996 92V66.4062H394.221C396.729 66.4062 398.633 67.0742 399.934 68.4102C401.234 69.7344 401.885 71.4922 401.885 73.6836C401.885 75.8867 401.234 77.668 399.934 79.0273C398.645 80.375 396.74 81.0488 394.221 81.0488H389.088V92H386.996ZM389.088 79.2734H394.221C396.26 79.2734 397.695 78.752 398.527 77.709C399.359 76.6543 399.775 75.3125 399.775 73.6836C399.775 72.0664 399.354 70.748 398.51 69.7285C397.666 68.709 396.236 68.1992 394.221 68.1992H389.088V79.2734ZM400.637 92L394.449 80.1523L396.629 79.9238L403.027 92H400.637ZM405.559 79.8184V78.5352C405.559 74.3047 406.461 71.1523 408.266 69.0781C410.082 67.0039 412.432 65.9668 415.314 65.9668C418.221 65.9668 420.576 67.0039 422.381 69.0781C424.197 71.1523 425.105 74.3047 425.105 78.5352V79.8184C425.105 84.0957 424.197 87.2715 422.381 89.3457C420.576 91.4082 418.221 92.4395 415.314 92.4395C412.432 92.4395 410.082 91.4082 408.266 89.3457C406.461 87.2715 405.559 84.0957 405.559 79.8184ZM407.668 79.8711C407.668 83.5273 408.365 86.2285 409.76 87.9746C411.154 89.7207 413.006 90.5938 415.314 90.5938C417.635 90.5938 419.492 89.7207 420.887 87.9746C422.281 86.2285 422.979 83.5273 422.979 79.8711V78.4824C422.979 74.8613 422.281 72.1777 420.887 70.4316C419.492 68.6855 417.635 67.8125 415.314 67.8125C413.006 67.8125 411.154 68.6855 409.76 70.4316C408.365 72.1777 407.668 74.8613 407.668 78.4824V79.8711Z" fill="#FDA1B1"/>
<path d="M156.188 198.818V197.535C156.188 193.34 157.09 190.199 158.895 188.113C160.711 186.016 163.061 184.967 165.943 184.967C168.85 184.967 171.205 186.016 173.01 188.113C174.826 190.199 175.734 193.34 175.734 197.535V198.818C175.734 203.014 174.826 206.166 173.01 208.275C171.205 210.385 168.85 211.439 165.943 211.439C163.061 211.439 160.711 210.385 158.895 208.275C157.09 206.166 156.188 203.014 156.188 198.818ZM158.297 198.871C158.297 202.492 158.994 205.188 160.389 206.957C161.783 208.727 163.635 209.611 165.943 209.611C168.264 209.611 170.121 208.727 171.516 206.957C172.91 205.188 173.607 202.492 173.607 198.871V197.482C173.607 193.861 172.91 191.178 171.516 189.432C170.121 187.686 168.264 186.812 165.943 186.812C163.635 186.812 161.783 187.686 160.389 189.432C158.994 191.178 158.297 193.861 158.297 197.482V198.871ZM174.416 215.131L167.209 208.627L168.545 207.273L175.787 213.707L174.416 215.131ZM180.006 202.58V185.406H182.098V202.598C182.098 205.023 182.654 206.799 183.768 207.924C184.881 209.037 186.387 209.594 188.285 209.594C190.172 209.594 191.666 209.037 192.768 207.924C193.881 206.799 194.438 205.023 194.438 202.598V185.406H196.547V202.58C196.547 205.58 195.785 207.807 194.262 209.26C192.738 210.713 190.74 211.439 188.268 211.439C185.818 211.439 183.826 210.713 182.291 209.26C180.768 207.807 180.006 205.58 180.006 202.58ZM201.75 211V185.406H215.918V187.217H203.842V196.885H214.213V198.695H203.842V209.189H216.111V211H201.75ZM226.008 198.818V197.535C226.008 193.293 226.91 190.141 228.715 188.078C230.52 186.004 232.84 184.967 235.676 184.967C238.465 184.967 240.609 185.729 242.109 187.252C243.609 188.775 244.395 190.779 244.465 193.264V193.65H242.355L242.338 193.281C242.291 191.312 241.723 189.742 240.633 188.57C239.543 187.387 237.891 186.795 235.676 186.795C233.367 186.795 231.527 187.674 230.156 189.432C228.797 191.189 228.117 193.873 228.117 197.482V198.871C228.117 202.457 228.809 205.146 230.191 206.939C231.574 208.721 233.408 209.611 235.693 209.611C237.873 209.611 239.502 209.02 240.58 207.836C241.67 206.652 242.256 205.082 242.338 203.125L242.355 202.756H244.465L244.447 203.195C244.33 205.621 243.539 207.602 242.074 209.137C240.621 210.672 238.482 211.439 235.658 211.439C232.752 211.439 230.414 210.402 228.645 208.328C226.887 206.254 226.008 203.084 226.008 198.818ZM245.977 211L254.889 185.266H257.191L266.121 211H263.941L256.752 189.836C256.6 189.379 256.471 188.98 256.365 188.641C256.26 188.301 256.154 187.926 256.049 187.516H255.926C255.82 187.926 255.709 188.307 255.592 188.658C255.486 189.01 255.357 189.402 255.205 189.836L248.051 211H245.977ZM249.439 203.793L250.055 202.035H261.973L262.605 203.793H249.439ZM268.828 211V185.406H271.535L279.604 206.5C279.732 206.828 279.855 207.168 279.973 207.52C280.102 207.859 280.201 208.188 280.271 208.504H280.359C280.441 208.188 280.541 207.859 280.658 207.52C280.775 207.168 280.898 206.828 281.027 206.5L289.043 185.406H291.803V211H289.746V190.434C289.746 190.117 289.752 189.766 289.764 189.379C289.775 188.98 289.799 188.617 289.834 188.289H289.711C289.652 188.617 289.559 188.975 289.43 189.361C289.301 189.748 289.178 190.105 289.061 190.434L281.221 211H279.322L271.465 190.451C271.336 190.135 271.201 189.76 271.061 189.326C270.932 188.893 270.85 188.553 270.814 188.307H270.709C270.721 188.541 270.738 188.881 270.762 189.326C270.785 189.76 270.797 190.135 270.797 190.451V211H268.828ZM297.199 211V185.406H304.564C306.885 185.406 308.701 185.922 310.014 186.953C311.326 187.984 311.982 189.637 311.982 191.91C311.982 193.434 311.631 194.676 310.928 195.637C310.225 196.598 309.322 197.225 308.221 197.518V197.588C309.533 197.881 310.605 198.566 311.438 199.645C312.27 200.723 312.686 202.146 312.686 203.916C312.686 206.166 312.012 207.912 310.664 209.154C309.316 210.385 307.471 211 305.127 211H297.199ZM299.256 209.207H305.145C307.008 209.207 308.379 208.738 309.258 207.801C310.148 206.852 310.594 205.551 310.594 203.898C310.594 202.258 310.154 200.957 309.275 199.996C308.396 199.035 307.02 198.555 305.145 198.555H299.256V209.207ZM299.256 196.779H304.652C306.516 196.779 307.857 196.352 308.678 195.496C309.498 194.629 309.908 193.439 309.908 191.928C309.908 190.334 309.475 189.15 308.607 188.377C307.752 187.604 306.404 187.211 304.564 187.199H299.256V196.779ZM316.992 211V185.406H319.084V211H316.992ZM322.02 211L330.932 185.266H333.234L342.164 211H339.984L332.795 189.836C332.643 189.379 332.514 188.98 332.408 188.641C332.303 188.301 332.197 187.926 332.092 187.516H331.969C331.863 187.926 331.752 188.307 331.635 188.658C331.529 189.01 331.4 189.402 331.248 189.836L324.094 211H322.02ZM325.482 203.793L326.098 202.035H338.016L338.648 203.793H325.482ZM349.23 187.217V185.406H367.301V187.217H359.32V211H357.229V187.217H349.23ZM369.094 198.818V197.535C369.094 193.305 369.996 190.152 371.801 188.078C373.617 186.004 375.967 184.967 378.85 184.967C381.756 184.967 384.111 186.004 385.916 188.078C387.732 190.152 388.641 193.305 388.641 197.535V198.818C388.641 203.096 387.732 206.271 385.916 208.346C384.111 210.408 381.756 211.439 378.85 211.439C375.967 211.439 373.617 210.408 371.801 208.346C369.996 206.271 369.094 203.096 369.094 198.818ZM371.203 198.871C371.203 202.527 371.9 205.229 373.295 206.975C374.689 208.721 376.541 209.594 378.85 209.594C381.17 209.594 383.027 208.721 384.422 206.975C385.816 205.229 386.514 202.527 386.514 198.871V197.482C386.514 193.861 385.816 191.178 384.422 189.432C383.027 187.686 381.17 186.812 378.85 186.812C376.541 186.812 374.689 187.686 373.295 189.432C371.9 191.178 371.203 193.861 371.203 197.482V198.871ZM393.141 211V185.406H399.627C402.814 185.406 405.375 186.502 407.309 188.693C409.254 190.873 410.227 193.832 410.227 197.57V198.836C410.227 202.645 409.248 205.627 407.291 207.783C405.334 209.928 402.779 211 399.627 211H393.141ZM395.232 209.189H399.627C402.205 209.189 404.262 208.287 405.797 206.482C407.332 204.678 408.1 202.129 408.1 198.836V197.57C408.1 194.336 407.338 191.805 405.814 189.977C404.291 188.137 402.229 187.217 399.627 187.217H395.232V209.189ZM413.812 198.818V197.535C413.812 193.305 414.715 190.152 416.52 188.078C418.336 186.004 420.686 184.967 423.568 184.967C426.475 184.967 428.83 186.004 430.635 188.078C432.451 190.152 433.359 193.305 433.359 197.535V198.818C433.359 203.096 432.451 206.271 430.635 208.346C428.83 210.408 426.475 211.439 423.568 211.439C420.686 211.439 418.336 210.408 416.52 208.346C414.715 206.271 413.812 203.096 413.812 198.818ZM415.922 198.871C415.922 202.527 416.619 205.229 418.014 206.975C419.408 208.721 421.26 209.594 423.568 209.594C425.889 209.594 427.746 208.721 429.141 206.975C430.535 205.229 431.232 202.527 431.232 198.871V197.482C431.232 193.861 430.535 191.178 429.141 189.432C427.746 187.686 425.889 186.812 423.568 186.812C421.26 186.812 419.408 187.686 418.014 189.432C416.619 191.178 415.922 193.861 415.922 197.482V198.871ZM436.506 209.734C436.506 209.301 436.641 208.932 436.91 208.627C437.18 208.311 437.572 208.152 438.088 208.152C438.604 208.152 438.996 208.311 439.266 208.627C439.547 208.932 439.688 209.301 439.688 209.734C439.688 210.191 439.547 210.572 439.266 210.877C438.996 211.182 438.604 211.334 438.088 211.334C437.572 211.334 437.18 211.182 436.91 210.877C436.641 210.561 436.506 210.18 436.506 209.734ZM445.506 209.734C445.506 209.301 445.641 208.932 445.91 208.627C446.18 208.311 446.572 208.152 447.088 208.152C447.604 208.152 447.996 208.311 448.266 208.627C448.547 208.932 448.688 209.301 448.688 209.734C448.688 210.191 448.547 210.572 448.266 210.877C447.996 211.182 447.604 211.334 447.088 211.334C446.572 211.334 446.18 211.182 445.91 210.877C445.641 210.561 445.506 210.18 445.506 209.734ZM454.506 209.734C454.506 209.301 454.641 208.932 454.91 208.627C455.18 208.311 455.572 208.152 456.088 208.152C456.604 208.152 456.996 208.311 457.266 208.627C457.547 208.932 457.688 209.301 457.688 209.734C457.688 210.191 457.547 210.572 457.266 210.877C456.996 211.182 456.604 211.334 456.088 211.334C455.572 211.334 455.18 211.182 454.91 210.877C454.641 210.561 454.506 210.18 454.506 209.734Z" fill="#FDA1B1"/>
</svg>
