<svg width="615" height="299" viewBox="0 0 615 299" fill="none" xmlns="http://www.w3.org/2000/svg">
<path d="M126.672 109.628V108.344H199.279V109.628H126.672ZM127.405 138.964C121.904 145.076 118.054 149.904 115.854 153.449C113.531 156.871 112.37 159.805 112.37 162.25C112.37 164.328 113.226 165.367 114.937 165.367C116.77 165.367 118.787 164.695 120.988 163.35C123.31 161.883 126.121 159.561 129.422 156.383C132.844 153.082 137.062 148.621 142.073 142.998L143.723 141.164H145.19L143.907 142.631C136.328 151.188 130.277 157.299 125.755 160.966C121.354 164.511 117.626 166.284 114.57 166.284C111.27 166.284 109.62 164.45 109.62 160.783C109.62 155.038 112.859 148.498 119.337 141.164C121.171 138.842 122.943 136.703 124.655 134.747C126.366 132.791 128.261 130.652 130.339 128.33C132.539 125.885 135.228 122.951 138.406 119.529C141.707 115.984 145.801 111.644 150.691 106.511C155.58 101.377 161.57 95.0204 168.659 87.4418C170.248 87.4418 172.082 87.3195 174.16 87.0751C176.36 86.7084 178.438 86.2805 180.394 85.7916C177.338 87.9918 173.06 91.72 167.559 96.9761C162.059 102.232 155.825 108.527 148.857 115.862C141.89 123.073 134.739 130.774 127.405 138.964Z" fill="#A5B82E"/>
<path d="M140.389 165.917C137.333 165.917 135.805 163.533 135.805 158.766C135.805 155.588 136.783 152.227 138.738 148.682C140.572 145.137 143.078 141.714 146.256 138.414C149.434 134.991 152.979 131.935 156.89 129.246C160.802 126.435 164.836 124.235 168.992 122.646C173.27 121.057 177.304 120.262 181.093 120.262C184.271 120.262 185.86 121.484 185.86 123.929C185.86 126.252 184.393 129.185 181.46 132.73C178.526 136.153 174.859 140.186 170.459 144.831C167.036 148.376 163.369 151.799 159.457 155.099C155.668 158.277 152.062 160.905 148.64 162.983C145.339 164.939 142.589 165.917 140.389 165.917ZM140.572 165C142.406 165 144.85 164.145 147.906 162.433C150.962 160.6 154.385 158.094 158.174 154.916C161.963 151.738 165.814 148.132 169.725 144.098C174.126 139.453 177.67 135.48 180.36 132.18C183.171 128.88 184.577 126.19 184.577 124.112C184.577 122.523 183.538 121.729 181.46 121.729C179.626 121.729 177.243 122.462 174.309 123.929C171.498 125.396 168.442 127.413 165.141 129.98C161.841 132.424 158.602 135.175 155.424 138.231C152.245 141.286 149.312 144.342 146.623 147.398C144.056 150.454 141.978 153.327 140.389 156.016C138.8 158.705 138.005 160.966 138.005 162.8C138.005 164.267 138.861 165 140.572 165ZM197.962 141.164L196.678 142.631C192.767 147.032 188.794 151.065 184.76 154.732C180.849 158.277 177.182 161.089 173.759 163.167C170.459 165.245 167.831 166.284 165.875 166.284C164.775 166.284 163.797 165.856 162.941 165C162.208 164.267 161.841 163.289 161.841 162.066C161.841 158.888 163.552 154.61 166.975 149.232C170.52 143.853 175.409 137.986 181.643 131.63H182.377L190.811 122.279H201.629C200.04 123.257 198.328 124.479 196.495 125.946C194.661 127.291 192.95 128.757 191.361 130.346C184.393 137.314 178.893 142.876 174.859 147.032C170.825 151.188 167.953 154.427 166.241 156.749C164.652 159.072 163.858 161.027 163.858 162.617C163.858 164.45 164.591 165.367 166.058 165.367C167.769 165.367 170.092 164.45 173.026 162.617C176.081 160.661 179.504 157.972 183.293 154.549C187.083 151.126 190.933 147.276 194.845 142.998L196.495 141.164H197.962Z" fill="#A5B82E"/>
<path d="M197.977 141.164H196.51L198.161 139.331C203.539 133.463 208.612 128.818 213.379 125.396C218.146 121.851 221.935 120.079 224.747 120.079C225.847 120.079 226.764 120.445 227.497 121.179C228.231 121.912 228.597 122.89 228.597 124.112C228.597 126.802 227.497 129.796 225.297 133.097C223.097 136.397 219.307 140.798 213.929 146.298H215.763L212.095 151.249L199.811 165H187.71C192.11 161.822 196.633 158.155 201.278 153.999C205.923 149.843 210.201 145.687 214.112 141.531C218.024 137.375 221.141 133.708 223.463 130.53C225.908 127.229 227.13 124.846 227.13 123.379C227.13 121.79 226.275 120.995 224.564 120.995C223.097 120.995 220.958 121.851 218.146 123.562C215.335 125.151 212.279 127.352 208.978 130.163C205.8 132.852 202.683 135.908 199.627 139.331L197.977 141.164ZM228.231 166.284C226.886 166.284 225.664 165.672 224.564 164.45C223.586 163.228 223.097 161.822 223.097 160.233C223.097 157.666 224.075 154.977 226.03 152.165C227.986 149.354 230.37 146.604 233.181 143.915C236.115 141.103 238.987 138.475 241.799 136.03C244.732 133.463 247.177 131.141 249.133 129.063C251.089 126.985 252.066 125.213 252.066 123.746C252.066 122.279 251.211 121.545 249.5 121.545C247.788 121.545 245.466 122.462 242.532 124.296C239.598 126.007 236.359 128.33 232.814 131.263C229.27 134.197 225.664 137.436 221.997 140.981C218.452 144.403 215.151 147.826 212.095 151.249H210.629C213.807 147.704 217.229 144.159 220.896 140.614C224.564 137.069 228.231 133.769 231.898 130.713C235.565 127.657 238.926 125.213 241.982 123.379C245.16 121.545 247.727 120.629 249.683 120.629C251.027 120.629 252.25 121.118 253.35 122.096C254.572 122.951 255.183 124.357 255.183 126.313C255.183 128.88 254.144 131.508 252.066 134.197C250.111 136.886 247.666 139.575 244.732 142.264C241.799 144.954 238.865 147.52 235.931 149.965C232.998 152.41 230.492 154.732 228.414 156.933C226.458 159.133 225.48 161.089 225.48 162.8C225.48 163.533 225.725 164.145 226.214 164.633C226.825 165.122 227.558 165.367 228.414 165.367C230.247 165.367 232.876 164.328 236.298 162.25C239.721 160.172 243.449 157.422 247.483 153.999C251.516 150.576 255.306 146.909 258.851 142.998L260.501 141.164H261.968L260.684 142.631C256.773 147.032 252.678 151.004 248.399 154.549C244.243 158.094 240.393 160.966 236.848 163.167C233.303 165.245 230.431 166.284 228.231 166.284Z" fill="#A5B82E"/>
<path d="M109.485 293.714C99.7062 293.714 91.2109 292.308 83.999 289.497C76.7871 286.808 71.2865 282.957 67.4972 277.946C63.5857 273.056 61.6299 267.372 61.6299 260.894C61.6299 254.66 63.5857 249.526 67.4972 245.492C71.4087 241.581 76.4204 239.625 82.5322 239.625L82.7155 240.725C76.8482 240.725 72.081 242.559 68.414 246.226C64.6247 250.015 62.73 254.904 62.73 260.894C62.73 266.883 64.5024 272.201 68.0472 276.846C71.4698 281.491 76.2981 285.096 82.5322 287.663C88.7662 290.23 95.9169 291.514 103.984 291.514C117.675 291.514 131.365 288.702 145.056 283.08C158.624 277.579 172.008 270 185.21 260.344C198.411 250.687 211.246 239.564 223.714 226.974C236.182 214.383 248.1 200.998 259.468 186.819C270.714 172.64 281.287 158.338 291.188 143.915C297.3 134.869 302.984 126.802 308.24 119.712C313.496 112.622 318.569 106.083 323.458 100.093C329.325 92.8812 335.559 85.9138 342.16 79.1909C348.761 72.3457 355.362 66.0506 361.962 60.3055C368.563 54.4382 374.858 49.3043 380.848 44.9038C386.96 40.5034 392.399 37.0808 397.166 34.6361C402.056 32.1914 406.028 30.969 409.084 30.969C412.018 30.969 413.485 32.5581 413.485 35.7362C413.485 38.4254 412.262 41.6035 409.818 45.2705C407.495 48.9376 404.134 52.8491 399.733 57.0051C396.311 60.1833 392.032 63.9115 386.898 68.1897C381.887 72.3457 376.386 76.7462 370.397 81.3911C364.529 85.9138 358.54 90.4365 352.428 94.9593C346.316 99.482 340.449 103.699 334.826 107.611C329.326 111.4 324.436 114.639 320.158 117.328C315.88 120.018 312.64 121.79 310.44 122.646L310.073 121.729C313.985 119.773 318.63 117.023 324.008 113.478C329.509 109.811 335.437 105.655 341.793 101.01C348.15 96.2427 354.567 91.2311 361.046 85.9749C367.524 80.7188 373.697 75.5238 379.564 70.3899C385.554 65.1338 390.932 60.2444 395.699 55.7217C400.466 51.0767 404.256 47.1041 407.067 43.8037C408.045 42.5814 408.962 40.9312 409.818 38.8532C410.795 36.7752 411.284 35.3084 411.284 34.4527C411.284 32.8637 410.368 32.0691 408.534 32.0691C405.723 32.0691 401.811 33.4748 396.799 36.2862C391.91 38.9754 386.409 42.7036 380.298 47.4708C374.186 52.238 367.769 57.7386 361.046 63.9726C354.445 70.2066 347.966 76.8073 341.61 83.7747C335.254 90.7421 329.387 97.7707 324.008 104.86C313.618 118.551 305.734 129.002 300.356 136.214C294.977 143.426 291.432 148.376 289.721 151.065C276.764 170.867 263.441 189.386 249.75 206.621C235.938 223.979 221.697 239.136 207.029 252.093C192.238 265.172 176.776 275.379 160.641 282.713C144.506 290.047 127.454 293.714 109.485 293.714ZM291.921 159.866C288.621 159.866 285.932 158.827 283.854 156.749L284.404 156.016C286.482 157.849 288.927 158.766 291.738 158.766C295.527 158.766 299.561 157.36 303.839 154.549C308.24 151.738 312.701 147.826 317.224 142.814L318.691 141.164H320.158L318.691 142.814C313.435 148.804 308.607 153.143 304.206 155.832C299.928 158.522 295.833 159.866 291.921 159.866Z" fill="#A5B82E"/>
<path d="M315.326 165.917C312.27 165.917 310.742 163.533 310.742 158.766C310.742 155.588 311.72 152.227 313.676 148.682C315.51 145.137 318.015 141.714 321.193 138.414C324.372 134.991 327.916 131.935 331.828 129.246C335.739 126.435 339.773 124.235 343.929 122.646C348.207 121.057 352.241 120.262 356.031 120.262C359.209 120.262 360.798 121.484 360.798 123.929C360.798 126.252 359.331 129.185 356.397 132.73C353.464 136.153 349.797 140.186 345.396 144.831C341.973 148.376 338.306 151.799 334.395 155.099C330.606 158.277 327 160.905 323.577 162.983C320.277 164.939 317.526 165.917 315.326 165.917ZM315.51 165C317.343 165 319.788 164.145 322.844 162.433C325.9 160.6 329.322 158.094 333.111 154.916C336.901 151.738 340.751 148.132 344.663 144.098C349.063 139.453 352.608 135.48 355.297 132.18C358.109 128.88 359.514 126.19 359.514 124.112C359.514 122.523 358.475 121.729 356.397 121.729C354.564 121.729 352.18 122.462 349.246 123.929C346.435 125.396 343.379 127.413 340.079 129.98C336.778 132.424 333.539 135.175 330.361 138.231C327.183 141.286 324.249 144.342 321.56 147.398C318.993 150.454 316.915 153.327 315.326 156.016C313.737 158.705 312.943 160.966 312.943 162.8C312.943 164.267 313.798 165 315.51 165ZM372.899 141.164L371.616 142.631C367.704 147.032 363.731 151.065 359.698 154.732C355.786 158.277 352.119 161.089 348.696 163.167C345.396 165.245 342.768 166.284 340.812 166.284C339.712 166.284 338.734 165.856 337.879 165C337.145 164.267 336.778 163.289 336.778 162.066C336.778 158.888 338.49 154.61 341.912 149.232C345.457 143.853 350.347 137.986 356.581 131.63H357.314L365.748 122.279H376.566C374.977 123.257 373.266 124.479 371.432 125.946C369.599 127.291 367.887 128.757 366.298 130.346C359.331 137.314 353.83 142.876 349.797 147.032C345.763 151.188 342.89 154.427 341.179 156.749C339.59 159.072 338.795 161.027 338.795 162.617C338.795 164.45 339.529 165.367 340.996 165.367C342.707 165.367 345.029 164.45 347.963 162.617C351.019 160.661 354.441 157.972 358.231 154.549C362.02 151.126 365.871 147.276 369.782 142.998L371.432 141.164H372.899ZM354.014 98.6263L353.647 98.0763L374.183 84.3248C375.527 83.4691 376.811 83.0413 378.033 83.0413C379.989 83.0413 380.967 83.8969 380.967 85.6082C380.967 86.9528 380.05 87.9918 378.216 88.7253L354.014 98.6263Z" fill="#A5B82E"/>
<path d="M373.098 166.284C370.776 166.284 368.881 165.367 367.414 163.533C365.947 161.578 365.214 159.133 365.214 156.199C365.214 153.143 366.131 150.026 367.964 146.848C369.676 143.548 371.998 140.37 374.932 137.314C377.865 134.136 381.166 131.324 384.833 128.88C388.5 126.313 392.289 124.296 396.201 122.829C400.112 121.362 403.84 120.629 407.385 120.629C412.03 120.629 414.353 122.034 414.353 124.846C414.353 126.435 413.497 128.391 411.786 130.713C410.197 133.036 408.302 134.991 406.102 136.58H399.684C401.518 135.725 403.413 134.502 405.368 132.913C407.324 131.324 408.974 129.735 410.319 128.146C411.663 126.435 412.336 125.09 412.336 124.112C412.336 122.523 411.052 121.729 408.485 121.729C406.041 121.729 403.107 122.707 399.684 124.662C396.262 126.618 392.717 129.185 389.05 132.363C385.505 135.419 382.144 138.781 378.965 142.448C375.91 145.993 373.404 149.476 371.448 152.899C369.492 156.199 368.514 159.072 368.514 161.516C368.514 164.083 370.165 165.367 373.465 165.367C376.887 165.367 380.799 164.389 385.199 162.433C389.722 160.477 394.245 157.788 398.768 154.366C403.29 150.943 407.446 147.154 411.236 142.998L412.886 141.164H414.353L413.069 142.631C409.035 147.276 404.635 151.371 399.868 154.916C395.101 158.461 390.395 161.272 385.75 163.35C381.227 165.306 377.01 166.284 373.098 166.284Z" fill="#A5B82E"/>
<path d="M405.292 166.284C404.192 166.284 403.276 165.856 402.542 165C401.686 164.267 401.259 163.289 401.259 162.066C401.259 158.522 403.52 153.632 408.043 147.398C412.443 141.042 419.655 132.669 429.678 122.279H440.68C439.457 122.89 437.99 123.868 436.279 125.213C434.568 126.557 432.612 128.268 430.412 130.346C423.689 136.825 418.31 142.203 414.277 146.481C410.365 150.637 407.554 153.999 405.842 156.566C404.131 159.011 403.276 161.027 403.276 162.617C403.276 164.45 404.009 165.367 405.476 165.367C407.187 165.367 409.632 164.389 412.81 162.433C415.866 160.355 419.288 157.605 423.078 154.182C426.989 150.76 430.717 147.032 434.262 142.998L435.912 141.164H437.379L436.096 142.631C432.062 147.154 428.028 151.249 423.994 154.916C419.961 158.461 416.294 161.272 412.993 163.35C409.815 165.306 407.248 166.284 405.292 166.284ZM466.899 84.3248C467.999 84.3248 468.549 84.7526 468.549 85.6082C468.549 86.8306 467.694 88.3585 465.982 90.1921C464.393 92.0256 462.499 93.6758 460.298 95.1426C458.098 96.4872 456.203 97.1595 454.614 97.1595C453.637 97.1595 453.148 96.7317 453.148 95.876C453.148 94.6537 453.942 93.1257 455.531 91.2922C457.242 89.4587 459.198 87.8696 461.398 86.525C463.599 85.0582 465.432 84.3248 466.899 84.3248Z" fill="#A5B82E"/>
<path d="M431.141 166.284C427.841 166.284 426.19 164.45 426.19 160.783C426.19 155.038 429.43 148.498 435.908 141.164L556.371 4.74951H567.922C565.967 5.72739 562.972 8.04986 558.938 11.7169C555.027 15.2618 550.443 19.7233 545.187 25.1017C540.053 30.3578 534.674 36.164 529.051 42.5203L443.976 138.964C438.353 145.198 434.441 150.026 432.241 153.449C430.041 156.871 428.941 159.805 428.941 162.25C428.941 164.328 429.796 165.367 431.508 165.367C434.686 165.367 439.025 163.411 444.526 159.5C450.026 155.466 455.832 149.965 461.944 142.998L463.594 141.164H465.061L463.778 142.631C457.055 150.21 450.882 156.077 445.259 160.233C439.759 164.267 435.052 166.284 431.141 166.284Z" fill="#A5B82E"/>
<path d="M112.742 78V52.4062H120.09C122.68 52.4062 124.631 53.0977 125.943 54.4805C127.256 55.8633 127.912 57.6738 127.912 59.9121C127.912 62.1504 127.256 63.9727 125.943 65.3789C124.631 66.7734 122.68 67.4707 120.09 67.4707H114.834V78H112.742ZM114.834 65.6777H120.055C122.164 65.6777 123.646 65.127 124.502 64.0254C125.369 62.9238 125.803 61.5586 125.803 59.9297C125.803 58.3008 125.369 56.9414 124.502 55.8516C123.646 54.7617 122.164 54.2168 120.055 54.2168H114.834V65.6777ZM131.48 78V52.4062H145.648V54.2168H133.572V63.8848H143.943V65.6953H133.572V76.1895H145.842V78H131.48ZM149.48 78V52.4062H156.705C159.213 52.4062 161.117 53.0742 162.418 54.4102C163.719 55.7344 164.369 57.4922 164.369 59.6836C164.369 61.8867 163.719 63.668 162.418 65.0273C161.129 66.375 159.225 67.0488 156.705 67.0488H151.572V78H149.48ZM151.572 65.2734H156.705C158.744 65.2734 160.18 64.752 161.012 63.709C161.844 62.6543 162.26 61.3125 162.26 59.6836C162.26 58.0664 161.838 56.748 160.994 55.7285C160.15 54.709 158.721 54.1992 156.705 54.1992H151.572V65.2734ZM163.121 78L156.934 66.1523L159.113 65.9238L165.512 78H163.121ZM168.043 65.8184V64.5352C168.043 60.3047 168.945 57.1523 170.75 55.0781C172.566 53.0039 174.916 51.9668 177.799 51.9668C180.705 51.9668 183.061 53.0039 184.865 55.0781C186.682 57.1523 187.59 60.3047 187.59 64.5352V65.8184C187.59 70.0957 186.682 73.2715 184.865 75.3457C183.061 77.4082 180.705 78.4395 177.799 78.4395C174.916 78.4395 172.566 77.4082 170.75 75.3457C168.945 73.2715 168.043 70.0957 168.043 65.8184ZM170.152 65.8711C170.152 69.5273 170.85 72.2285 172.244 73.9746C173.639 75.7207 175.49 76.5938 177.799 76.5938C180.119 76.5938 181.977 75.7207 183.371 73.9746C184.766 72.2285 185.463 69.5273 185.463 65.8711V64.4824C185.463 60.8613 184.766 58.1777 183.371 56.4316C181.977 54.6855 180.119 53.8125 177.799 53.8125C175.49 53.8125 173.639 54.6855 172.244 56.4316C170.85 58.1777 170.152 60.8613 170.152 64.4824V65.8711ZM199.508 78V52.4062H201.775L213.904 72.9727C214.092 73.2773 214.262 73.582 214.414 73.8867C214.578 74.1914 214.713 74.4844 214.818 74.7656H214.924C214.912 74.4492 214.9 74.1152 214.889 73.7637C214.889 73.4121 214.889 73.0781 214.889 72.7617V52.4062H216.893V78H214.643L202.496 57.3984C202.309 57.0938 202.133 56.7832 201.969 56.4668C201.805 56.1387 201.664 55.8398 201.547 55.5703H201.459C201.471 55.8984 201.482 56.2559 201.494 56.6426C201.506 57.0176 201.512 57.3691 201.512 57.6973V78H199.508ZM219.723 78L228.635 52.2656H230.938L239.867 78H237.688L230.498 56.8359C230.346 56.3789 230.217 55.9805 230.111 55.6406C230.006 55.3008 229.9 54.9258 229.795 54.5156H229.672C229.566 54.9258 229.455 55.3066 229.338 55.6582C229.232 56.0098 229.104 56.4023 228.951 56.8359L221.797 78H219.723ZM223.186 70.793L223.801 69.0352H235.719L236.352 70.793H223.186ZM242.574 78V52.4062H249.061C252.248 52.4062 254.809 53.502 256.742 55.6934C258.688 57.873 259.66 60.832 259.66 64.5703V65.8359C259.66 69.6445 258.682 72.627 256.725 74.7832C254.768 76.9277 252.213 78 249.061 78H242.574ZM244.666 76.1895H249.061C251.639 76.1895 253.695 75.2871 255.23 73.4824C256.766 71.6777 257.533 69.1289 257.533 65.8359V64.5703C257.533 61.3359 256.771 58.8047 255.248 56.9766C253.725 55.1367 251.662 54.2168 249.061 54.2168H244.666V76.1895ZM261.102 78L270.014 52.2656H272.316L281.246 78H279.066L271.877 56.8359C271.725 56.3789 271.596 55.9805 271.49 55.6406C271.385 55.3008 271.279 54.9258 271.174 54.5156H271.051C270.945 54.9258 270.834 55.3066 270.717 55.6582C270.611 56.0098 270.482 56.4023 270.33 56.8359L263.176 78H261.102ZM264.564 70.793L265.18 69.0352H277.098L277.73 70.793H264.564ZM291.371 78V52.4062H305.539V54.2168H293.463V63.8848H303.834V65.6953H293.463V76.1895H305.732V78H291.371ZM308.229 71.2324V70.4941H310.32V71.1973C310.32 72.9785 310.865 74.3262 311.955 75.2402C313.057 76.1543 314.58 76.6113 316.525 76.6113C318.471 76.6113 319.971 76.1484 321.025 75.2227C322.08 74.2969 322.607 73.0957 322.607 71.6191C322.607 70.2246 322.156 69.1172 321.254 68.2969C320.352 67.4766 318.6 66.6445 315.998 65.8008C313.396 64.9453 311.527 64.0078 310.391 62.9883C309.266 61.957 308.703 60.457 308.703 58.4883C308.703 56.5781 309.377 55.0137 310.725 53.7949C312.072 52.5762 313.965 51.9668 316.402 51.9668C318.84 51.9668 320.744 52.623 322.115 53.9355C323.498 55.248 324.189 56.9238 324.189 58.9629V59.5605H322.098V58.9629C322.098 57.4512 321.623 56.2148 320.674 55.2539C319.736 54.2812 318.312 53.7949 316.402 53.7949C314.469 53.7949 313.045 54.2109 312.131 55.043C311.229 55.875 310.777 57.0117 310.777 58.4531C310.777 59.7656 311.223 60.8145 312.113 61.5996C313.016 62.373 314.768 63.1758 317.369 64.0078C319.971 64.8516 321.84 65.8359 322.977 66.9609C324.113 68.0859 324.682 69.627 324.682 71.584C324.682 73.6113 323.949 75.2637 322.484 76.541C321.02 77.8066 319.033 78.4395 316.525 78.4395C314.018 78.4395 312.008 77.8066 310.496 76.541C308.984 75.2754 308.229 73.5059 308.229 71.2324Z" fill="#FDA1B1"/>
<path d="M289.186 200.818V199.535C289.186 195.293 290.088 192.141 291.893 190.078C293.697 188.004 296.018 186.967 298.854 186.967C301.643 186.967 303.787 187.729 305.287 189.252C306.787 190.775 307.572 192.779 307.643 195.264V195.65H305.533L305.516 195.281C305.469 193.312 304.9 191.742 303.811 190.57C302.721 189.387 301.068 188.795 298.854 188.795C296.545 188.795 294.705 189.674 293.334 191.432C291.975 193.189 291.295 195.873 291.295 199.482V200.871C291.295 204.457 291.986 207.146 293.369 208.939C294.752 210.721 296.586 211.611 298.871 211.611C301.051 211.611 302.68 211.02 303.758 209.836C304.848 208.652 305.434 207.082 305.516 205.125L305.533 204.756H307.643L307.625 205.195C307.508 207.621 306.717 209.602 305.252 211.137C303.799 212.672 301.66 213.439 298.836 213.439C295.93 213.439 293.592 212.402 291.822 210.328C290.064 208.254 289.186 205.084 289.186 200.818ZM310.807 200.818V199.535C310.807 195.305 311.709 192.152 313.514 190.078C315.33 188.004 317.68 186.967 320.562 186.967C323.469 186.967 325.824 188.004 327.629 190.078C329.445 192.152 330.354 195.305 330.354 199.535V200.818C330.354 205.096 329.445 208.271 327.629 210.346C325.824 212.408 323.469 213.439 320.562 213.439C317.68 213.439 315.33 212.408 313.514 210.346C311.709 208.271 310.807 205.096 310.807 200.818ZM312.916 200.871C312.916 204.527 313.613 207.229 315.008 208.975C316.402 210.721 318.254 211.594 320.562 211.594C322.883 211.594 324.74 210.721 326.135 208.975C327.529 207.229 328.227 204.527 328.227 200.871V199.482C328.227 195.861 327.529 193.178 326.135 191.432C324.74 189.686 322.883 188.812 320.562 188.812C318.254 188.812 316.402 189.686 315.008 191.432C313.613 193.178 312.916 195.861 312.916 199.482V200.871ZM334.854 213V187.406H337.561L345.629 208.5C345.758 208.828 345.881 209.168 345.998 209.52C346.127 209.859 346.227 210.188 346.297 210.504H346.385C346.467 210.188 346.566 209.859 346.684 209.52C346.801 209.168 346.924 208.828 347.053 208.5L355.068 187.406H357.828V213H355.771V192.434C355.771 192.117 355.777 191.766 355.789 191.379C355.801 190.98 355.824 190.617 355.859 190.289H355.736C355.678 190.617 355.584 190.975 355.455 191.361C355.326 191.748 355.203 192.105 355.086 192.434L347.246 213H345.348L337.49 192.451C337.361 192.135 337.227 191.76 337.086 191.326C336.957 190.893 336.875 190.553 336.84 190.307H336.734C336.746 190.541 336.764 190.881 336.787 191.326C336.811 191.76 336.822 192.135 336.822 192.451V213H334.854ZM362.311 200.818V199.535C362.311 195.305 363.213 192.152 365.018 190.078C366.834 188.004 369.184 186.967 372.066 186.967C374.973 186.967 377.328 188.004 379.133 190.078C380.949 192.152 381.857 195.305 381.857 199.535V200.818C381.857 205.096 380.949 208.271 379.133 210.346C377.328 212.408 374.973 213.439 372.066 213.439C369.184 213.439 366.834 212.408 365.018 210.346C363.213 208.271 362.311 205.096 362.311 200.818ZM364.42 200.871C364.42 204.527 365.117 207.229 366.512 208.975C367.906 210.721 369.758 211.594 372.066 211.594C374.387 211.594 376.244 210.721 377.639 208.975C379.033 207.229 379.73 204.527 379.73 200.871V199.482C379.73 195.861 379.033 193.178 377.639 191.432C376.244 189.686 374.387 188.812 372.066 188.812C369.758 188.812 367.906 189.686 366.512 191.432C365.117 193.178 364.42 195.861 364.42 199.482V200.871ZM393.775 213V187.406H401.123C403.713 187.406 405.664 188.098 406.977 189.48C408.289 190.863 408.945 192.674 408.945 194.912C408.945 197.15 408.289 198.973 406.977 200.379C405.664 201.773 403.713 202.471 401.123 202.471H395.867V213H393.775ZM395.867 200.678H401.088C403.197 200.678 404.68 200.127 405.535 199.025C406.402 197.924 406.836 196.559 406.836 194.93C406.836 193.301 406.402 191.941 405.535 190.852C404.68 189.762 403.197 189.217 401.088 189.217H395.867V200.678ZM408.752 213L417.664 187.266H419.967L428.896 213H426.717L419.527 191.836C419.375 191.379 419.246 190.98 419.141 190.641C419.035 190.301 418.93 189.926 418.824 189.516H418.701C418.596 189.926 418.484 190.307 418.367 190.658C418.262 191.01 418.133 191.402 417.98 191.836L410.826 213H408.752ZM412.215 205.793L412.83 204.035H424.748L425.381 205.793H412.215ZM431.604 213V187.406H438.828C441.336 187.406 443.24 188.074 444.541 189.41C445.842 190.734 446.492 192.492 446.492 194.684C446.492 196.887 445.842 198.668 444.541 200.027C443.252 201.375 441.348 202.049 438.828 202.049H433.695V213H431.604ZM433.695 200.273H438.828C440.867 200.273 442.303 199.752 443.135 198.709C443.967 197.654 444.383 196.312 444.383 194.684C444.383 193.066 443.961 191.748 443.117 190.729C442.273 189.709 440.844 189.199 438.828 189.199H433.695V200.273ZM445.244 213L439.057 201.152L441.236 200.924L447.635 213H445.244ZM450.904 213V187.406H465.072V189.217H452.996V198.885H463.367V200.695H452.996V211.189H465.266V213H450.904ZM467.92 200.818V199.535C467.92 195.293 468.822 192.141 470.627 190.078C472.432 188.004 474.752 186.967 477.588 186.967C480.377 186.967 482.521 187.729 484.021 189.252C485.521 190.775 486.307 192.779 486.377 195.264V195.65H484.268L484.25 195.281C484.203 193.312 483.635 191.742 482.545 190.57C481.455 189.387 479.803 188.795 477.588 188.795C475.279 188.795 473.439 189.674 472.068 191.432C470.709 193.189 470.029 195.873 470.029 199.482V200.871C470.029 204.457 470.721 207.146 472.104 208.939C473.486 210.721 475.32 211.611 477.605 211.611C479.785 211.611 481.414 211.02 482.492 209.836C483.582 208.652 484.168 207.082 484.25 205.125L484.268 204.756H486.377L486.359 205.195C486.242 207.621 485.451 209.602 483.986 211.137C482.533 212.672 480.395 213.439 477.57 213.439C474.664 213.439 472.326 212.402 470.557 210.328C468.799 208.254 467.92 205.084 467.92 200.818ZM490.561 213V187.406H504.729V189.217H492.652V198.885H503.023V200.695H492.652V211.189H504.922V213H490.561ZM508.508 211.734C508.508 211.301 508.643 210.932 508.912 210.627C509.182 210.311 509.574 210.152 510.09 210.152C510.605 210.152 510.998 210.311 511.268 210.627C511.549 210.932 511.689 211.301 511.689 211.734C511.689 212.191 511.549 212.572 511.268 212.877C510.998 213.182 510.605 213.334 510.09 213.334C509.574 213.334 509.182 213.182 508.912 212.877C508.643 212.561 508.508 212.18 508.508 211.734ZM517.508 211.734C517.508 211.301 517.643 210.932 517.912 210.627C518.182 210.311 518.574 210.152 519.09 210.152C519.605 210.152 519.998 210.311 520.268 210.627C520.549 210.932 520.689 211.301 520.689 211.734C520.689 212.191 520.549 212.572 520.268 212.877C519.998 213.182 519.605 213.334 519.09 213.334C518.574 213.334 518.182 213.182 517.912 212.877C517.643 212.561 517.508 212.18 517.508 211.734ZM526.508 211.734C526.508 211.301 526.643 210.932 526.912 210.627C527.182 210.311 527.574 210.152 528.09 210.152C528.605 210.152 528.998 210.311 529.268 210.627C529.549 210.932 529.689 211.301 529.689 211.734C529.689 212.191 529.549 212.572 529.268 212.877C528.998 213.182 528.605 213.334 528.09 213.334C527.574 213.334 527.182 213.182 526.912 212.877C526.643 212.561 526.508 212.18 526.508 211.734Z" fill="#FDA1B1"/>
</svg>
