<svg width="615" height="214" viewBox="0 0 615 214" fill="none" xmlns="http://www.w3.org/2000/svg">
<path d="M168.02 117.545C169.12 117.545 170.282 118.034 171.504 119.012C172.849 119.99 173.521 121.64 173.521 123.963C173.521 126.652 172.543 129.341 170.587 132.03C168.631 134.597 166.187 137.103 163.253 139.548C160.442 141.993 157.569 144.315 154.636 146.515C151.702 148.715 149.257 150.855 147.301 152.933C145.346 155.011 144.368 156.966 144.368 158.8C144.368 159.656 144.734 160.328 145.468 160.817C146.201 161.184 146.812 161.367 147.301 161.367C149.257 161.367 151.946 160.328 155.369 158.25C158.792 156.172 162.459 153.483 166.37 150.182C170.404 146.882 174.132 143.398 177.555 139.731L177.738 142.298C174.315 145.843 170.587 149.143 166.553 152.199C162.642 155.255 158.914 157.7 155.369 159.533C151.946 161.367 149.196 162.284 147.118 162.284C145.773 162.284 144.673 161.856 143.818 161C142.962 160.022 142.534 158.739 142.534 157.15C142.534 154.094 143.451 151.221 145.285 148.532C147.118 145.843 149.379 143.276 152.069 140.831C154.88 138.264 157.63 135.82 160.319 133.497C163.131 131.175 165.453 128.974 167.287 126.896C169.12 124.696 170.037 122.557 170.037 120.479C170.037 119.135 169.304 118.462 167.837 118.462C166.37 118.462 164.292 119.257 161.603 120.846C159.036 122.313 156.163 124.33 152.985 126.896C149.929 129.463 146.996 132.275 144.184 135.331L142.534 137.164H141.067L142.718 135.331C147.607 129.952 152.313 125.674 156.836 122.496C161.481 119.196 165.209 117.545 168.02 117.545ZM199.557 138.631C196.012 142.665 192.59 145.843 189.289 148.165C185.989 150.488 183.177 151.649 180.855 151.649C177.066 151.649 175.171 149.327 175.171 144.682C175.171 142.726 175.966 140.281 177.555 137.348C179.144 134.292 181.283 131.114 183.972 127.813C186.783 124.391 189.9 121.213 193.323 118.279H201.757C197.235 121.946 193.14 125.735 189.473 129.647C185.806 133.436 182.872 136.859 180.672 139.915C178.471 142.97 177.371 145.232 177.371 146.699C177.371 148.288 177.677 149.388 178.288 149.999C178.899 150.488 179.816 150.732 181.038 150.732C183.116 150.732 185.622 149.693 188.556 147.615C191.489 145.415 194.545 142.543 197.724 138.998L199.374 137.164H200.841L199.557 138.631Z" fill="#A5B82E"/>
<path d="M216.308 118.279H227.309C225.231 119.379 222.603 121.274 219.425 123.963C216.247 126.652 212.885 129.708 209.341 133.13C205.918 136.553 202.679 140.037 199.623 143.582C196.567 147.004 194.122 150.121 192.289 152.933C190.333 155.622 189.355 157.578 189.355 158.8C189.355 160.511 190.089 161.367 191.555 161.367C193.267 161.367 195.895 160.206 199.44 157.883C202.984 155.561 206.957 152.444 211.358 148.532C215.758 144.498 220.158 139.976 224.559 134.964H226.026C217.836 143.52 210.685 150.243 204.573 155.133C198.584 159.9 194.183 162.284 191.372 162.284C190.272 162.284 189.416 161.917 188.805 161.184C188.194 160.45 187.888 159.472 187.888 158.25C187.888 155.805 188.744 152.994 190.455 149.816C192.167 146.515 195.1 142.359 199.256 137.348C203.412 132.336 209.096 125.98 216.308 118.279ZM215.208 162.284C212.519 162.284 211.174 160.878 211.174 158.066C211.174 154.522 213.374 149.632 217.775 143.398C222.298 137.042 229.571 128.669 239.594 118.279H250.595C249.373 118.89 247.845 119.868 246.011 121.213C244.3 122.557 242.405 124.268 240.327 126.346C233.727 132.947 228.409 138.387 224.376 142.665C220.464 146.821 217.592 150.121 215.758 152.566C214.047 155.011 213.191 157.027 213.191 158.617C213.191 160.45 213.924 161.367 215.391 161.367C217.103 161.367 219.486 160.328 222.542 158.25C225.72 156.172 229.204 153.483 232.993 150.182C236.782 146.76 240.511 143.032 244.178 138.998L245.828 137.164H247.295L246.011 138.631C241.978 143.154 237.944 147.249 233.91 150.916C229.876 154.461 226.209 157.272 222.909 159.35C219.731 161.306 217.164 162.284 215.208 162.284Z" fill="#A5B82E"/>
<path d="M247.282 161.367C250.338 161.367 253.944 160.389 258.1 158.433C262.256 156.477 266.534 153.849 270.934 150.549C275.335 147.126 279.43 143.276 283.219 138.998L284.869 137.164H286.336L285.053 138.631C281.141 143.032 276.863 147.065 272.218 150.732C267.573 154.277 263.05 157.089 258.65 159.167C254.249 161.245 250.46 162.284 247.282 162.284C244.837 162.284 242.881 161.428 241.415 159.717C239.948 158.005 239.214 155.622 239.214 152.566C239.214 149.51 240.131 146.332 241.965 143.032C243.676 139.731 245.998 136.553 248.932 133.497C251.988 130.319 255.349 127.508 259.016 125.063C262.684 122.496 266.473 120.479 270.384 119.012C274.296 117.423 278.024 116.629 281.569 116.629C283.158 116.629 284.441 116.995 285.419 117.729C286.397 118.34 286.886 119.135 286.886 120.112C286.886 122.068 285.786 124.146 283.586 126.346C281.386 128.424 278.513 130.441 274.968 132.397C271.546 134.231 267.817 135.759 263.784 136.981C259.872 138.203 256.144 138.814 252.599 138.814L253.883 137.531C257.183 137.409 260.667 136.798 264.334 135.697C268.001 134.475 271.362 133.008 274.418 131.297C277.596 129.463 280.163 127.569 282.119 125.613C284.075 123.657 285.053 121.824 285.053 120.112C285.053 118.646 284.075 117.912 282.119 117.912C279.796 117.912 276.985 118.89 273.685 120.846C270.384 122.802 266.901 125.369 263.234 128.547C259.689 131.603 256.388 134.964 253.332 138.631C250.277 142.176 247.771 145.66 245.815 149.082C243.859 152.383 242.881 155.194 242.881 157.516C242.881 160.083 244.348 161.367 247.282 161.367Z" fill="#A5B82E"/>
<path d="M280.082 162.284C276.782 162.284 275.131 160.45 275.131 156.783C275.131 151.038 278.371 144.498 284.849 137.164L405.312 0.749512H416.863C414.908 1.72739 411.913 4.04986 407.879 7.71693C403.968 11.2618 399.384 15.7233 394.128 21.1017C388.994 26.3578 383.615 32.164 377.993 38.5203L292.917 134.964C287.294 141.198 283.382 146.026 281.182 149.449C278.982 152.871 277.882 155.805 277.882 158.25C277.882 160.328 278.737 161.367 280.449 161.367C283.627 161.367 287.966 159.411 293.467 155.5C298.967 151.466 304.774 145.965 310.885 138.998L312.536 137.164H314.002L312.719 138.631C305.996 146.21 299.823 152.077 294.2 156.233C288.7 160.267 283.994 162.284 280.082 162.284Z" fill="#A5B82E"/>
<path d="M339.556 117.545C340.656 117.545 341.817 118.034 343.039 119.012C344.384 119.99 345.056 121.64 345.056 123.963C345.056 126.652 344.078 129.341 342.123 132.03C340.167 134.597 337.722 137.103 334.789 139.548C331.977 141.993 329.105 144.315 326.171 146.515C323.237 148.715 320.793 150.855 318.837 152.933C316.881 155.011 315.903 156.966 315.903 158.8C315.903 159.656 316.27 160.328 317.003 160.817C317.737 161.184 318.348 161.367 318.837 161.367C320.793 161.367 323.482 160.328 326.904 158.25C330.327 156.172 333.994 153.483 337.906 150.182C341.939 146.882 345.668 143.398 349.09 139.731L349.273 142.298C345.851 145.843 342.123 149.143 338.089 152.199C334.177 155.255 330.449 157.7 326.904 159.533C323.482 161.367 320.731 162.284 318.653 162.284C317.309 162.284 316.209 161.856 315.353 161C314.497 160.022 314.07 158.739 314.07 157.15C314.07 154.094 314.986 151.221 316.82 148.532C318.653 145.843 320.915 143.276 323.604 140.831C326.415 138.264 329.166 135.82 331.855 133.497C334.666 131.175 336.989 128.974 338.822 126.896C340.656 124.696 341.573 122.557 341.573 120.479C341.573 119.135 340.839 118.462 339.372 118.462C337.906 118.462 335.828 119.257 333.138 120.846C330.571 122.313 327.699 124.33 324.521 126.896C321.465 129.463 318.531 132.275 315.72 135.331L314.07 137.164H312.603L314.253 135.331C319.142 129.952 323.848 125.674 328.371 122.496C333.016 119.196 336.744 117.545 339.556 117.545ZM371.092 138.631C367.548 142.665 364.125 145.843 360.825 148.165C357.524 150.488 354.713 151.649 352.39 151.649C348.601 151.649 346.707 149.327 346.707 144.682C346.707 142.726 347.501 140.281 349.09 137.348C350.679 134.292 352.818 131.114 355.507 127.813C358.319 124.391 361.436 121.213 364.858 118.279H373.293C368.77 121.946 364.675 125.735 361.008 129.647C357.341 133.436 354.407 136.859 352.207 139.915C350.007 142.97 348.907 145.232 348.907 146.699C348.907 148.288 349.212 149.388 349.824 149.999C350.435 150.488 351.351 150.732 352.574 150.732C354.652 150.732 357.158 149.693 360.091 147.615C363.025 145.415 366.081 142.543 369.259 138.998L370.909 137.164H372.376L371.092 138.631Z" fill="#A5B82E"/>
<path d="M372.442 161.367C375.498 161.367 379.104 160.389 383.26 158.433C387.416 156.477 391.694 153.849 396.094 150.549C400.495 147.126 404.59 143.276 408.379 138.998L410.029 137.164H411.496L410.213 138.631C406.301 143.032 402.023 147.065 397.378 150.732C392.733 154.277 388.21 157.089 383.81 159.167C379.409 161.245 375.62 162.284 372.442 162.284C369.997 162.284 368.041 161.428 366.575 159.717C365.108 158.005 364.374 155.622 364.374 152.566C364.374 149.51 365.291 146.332 367.125 143.032C368.836 139.731 371.158 136.553 374.092 133.497C377.148 130.319 380.509 127.508 384.176 125.063C387.844 122.496 391.633 120.479 395.544 119.012C399.456 117.423 403.184 116.629 406.729 116.629C408.318 116.629 409.601 116.995 410.579 117.729C411.557 118.34 412.046 119.135 412.046 120.112C412.046 122.068 410.946 124.146 408.746 126.346C406.546 128.424 403.673 130.441 400.128 132.397C396.706 134.231 392.977 135.759 388.944 136.981C385.032 138.203 381.304 138.814 377.759 138.814L379.043 137.531C382.343 137.409 385.827 136.798 389.494 135.697C393.161 134.475 396.522 133.008 399.578 131.297C402.756 129.463 405.323 127.569 407.279 125.613C409.235 123.657 410.213 121.824 410.213 120.112C410.213 118.646 409.235 117.912 407.279 117.912C404.956 117.912 402.145 118.89 398.845 120.846C395.544 122.802 392.061 125.369 388.394 128.547C384.849 131.603 381.548 134.964 378.492 138.631C375.437 142.176 372.931 145.66 370.975 149.082C369.019 152.383 368.041 155.194 368.041 157.516C368.041 160.083 369.508 161.367 372.442 161.367Z" fill="#A5B82E"/>
<path d="M411.476 137.164H410.009L411.659 135.331C417.038 129.463 422.111 124.818 426.878 121.396C431.645 117.851 435.434 116.079 438.246 116.079C439.346 116.079 440.262 116.445 440.996 117.179C441.729 117.912 442.096 118.89 442.096 120.112C442.096 122.802 440.996 125.796 438.796 129.097C436.595 132.397 432.806 136.798 427.428 142.298H429.261L425.594 147.249L413.31 161H401.208C405.609 157.822 410.131 154.155 414.776 149.999C419.421 145.843 423.7 141.687 427.611 137.531C431.523 133.375 434.64 129.708 436.962 126.53C439.407 123.229 440.629 120.846 440.629 119.379C440.629 117.79 439.774 116.995 438.062 116.995C436.595 116.995 434.456 117.851 431.645 119.562C428.833 121.151 425.778 123.352 422.477 126.163C419.299 128.852 416.182 131.908 413.126 135.331L411.476 137.164ZM441.729 162.284C440.385 162.284 439.162 161.672 438.062 160.45C437.084 159.228 436.595 157.822 436.595 156.233C436.595 153.666 437.573 150.977 439.529 148.165C441.485 145.354 443.868 142.604 446.68 139.915C449.613 137.103 452.486 134.475 455.297 132.03C458.231 129.463 460.676 127.141 462.632 125.063C464.587 122.985 465.565 121.213 465.565 119.746C465.565 118.279 464.71 117.545 462.998 117.545C461.287 117.545 458.965 118.462 456.031 120.296C453.097 122.007 449.858 124.33 446.313 127.263C442.768 130.197 439.162 133.436 435.495 136.981C431.95 140.403 428.65 143.826 425.594 147.249H424.127C427.306 143.704 430.728 140.159 434.395 136.614C438.062 133.069 441.729 129.769 445.396 126.713C449.063 123.657 452.425 121.213 455.481 119.379C458.659 117.545 461.226 116.629 463.182 116.629C464.526 116.629 465.749 117.118 466.849 118.096C468.071 118.951 468.682 120.357 468.682 122.313C468.682 124.88 467.643 127.508 465.565 130.197C463.609 132.886 461.165 135.575 458.231 138.264C455.297 140.954 452.364 143.52 449.43 145.965C446.496 148.41 443.991 150.732 441.913 152.933C439.957 155.133 438.979 157.089 438.979 158.8C438.979 159.533 439.223 160.145 439.712 160.633C440.324 161.122 441.057 161.367 441.913 161.367C443.746 161.367 446.374 160.328 449.797 158.25C453.219 156.172 456.948 153.422 460.981 149.999C465.015 146.576 468.804 142.909 472.349 138.998L473.999 137.164H475.466L474.183 138.631C470.271 143.032 466.176 147.004 461.898 150.549C457.742 154.094 453.892 156.966 450.347 159.167C446.802 161.245 443.93 162.284 441.729 162.284Z" fill="#A5B82E"/>
<path d="M176.15 95L185.062 69.2656H187.365L196.295 95H194.115L186.926 73.8359C186.773 73.3789 186.645 72.9805 186.539 72.6406C186.434 72.3008 186.328 71.9258 186.223 71.5156H186.1C185.994 71.9258 185.883 72.3066 185.766 72.6582C185.66 73.0098 185.531 73.4023 185.379 73.8359L178.225 95H176.15ZM179.613 87.793L180.229 86.0352H192.146L192.779 87.793H179.613ZM199.002 95V69.4062H201.094V93.1895H212.678V95H199.002ZM223.365 95V69.4062H236.76V71.2168H225.457V81.2012H235.301V83.0117H225.457V95H223.365ZM240.275 95V69.4062H242.367V95H240.275ZM247.904 95V69.4062H250.172L262.301 89.9727C262.488 90.2773 262.658 90.582 262.811 90.8867C262.975 91.1914 263.109 91.4844 263.215 91.7656H263.32C263.309 91.4492 263.297 91.1152 263.285 90.7637C263.285 90.4121 263.285 90.0781 263.285 89.7617V69.4062H265.289V95H263.039L250.893 74.3984C250.705 74.0938 250.529 73.7832 250.365 73.4668C250.201 73.1387 250.061 72.8398 249.943 72.5703H249.855C249.867 72.8984 249.879 73.2559 249.891 73.6426C249.902 74.0176 249.908 74.3691 249.908 74.6973V95H247.904ZM268.119 95L277.031 69.2656H279.334L288.264 95H286.084L278.895 73.8359C278.742 73.3789 278.613 72.9805 278.508 72.6406C278.402 72.3008 278.297 71.9258 278.191 71.5156H278.068C277.963 71.9258 277.852 72.3066 277.734 72.6582C277.629 73.0098 277.5 73.4023 277.348 73.8359L270.193 95H268.119ZM271.582 87.793L272.197 86.0352H284.115L284.748 87.793H271.582ZM290.971 95V69.4062H293.062V93.1895H304.646V95H290.971ZM307.846 98.0234C308.291 97.4141 308.631 96.7871 308.865 96.1426C309.111 95.5098 309.229 94.7422 309.217 93.8398L309.199 91.9062H311.256V93.8398C311.268 94.918 311.08 95.8555 310.693 96.6523C310.318 97.4609 309.803 98.1875 309.146 98.832L307.846 98.0234ZM353.215 88.2324V87.4941H355.307V88.1973C355.307 89.9785 355.852 91.3262 356.941 92.2402C358.043 93.1543 359.566 93.6113 361.512 93.6113C363.457 93.6113 364.957 93.1484 366.012 92.2227C367.066 91.2969 367.594 90.0957 367.594 88.6191C367.594 87.2246 367.143 86.1172 366.24 85.2969C365.338 84.4766 363.586 83.6445 360.984 82.8008C358.383 81.9453 356.514 81.0078 355.377 79.9883C354.252 78.957 353.689 77.457 353.689 75.4883C353.689 73.5781 354.363 72.0137 355.711 70.7949C357.059 69.5762 358.951 68.9668 361.389 68.9668C363.826 68.9668 365.73 69.623 367.102 70.9355C368.484 72.248 369.176 73.9238 369.176 75.9629V76.5605H367.084V75.9629C367.084 74.4512 366.609 73.2148 365.66 72.2539C364.723 71.2812 363.299 70.7949 361.389 70.7949C359.455 70.7949 358.031 71.2109 357.117 72.043C356.215 72.875 355.764 74.0117 355.764 75.4531C355.764 76.7656 356.209 77.8145 357.1 78.5996C358.002 79.373 359.754 80.1758 362.355 81.0078C364.957 81.8516 366.826 82.8359 367.963 83.9609C369.1 85.0859 369.668 86.627 369.668 88.584C369.668 90.6113 368.936 92.2637 367.471 93.541C366.006 94.8066 364.02 95.4395 361.512 95.4395C359.004 95.4395 356.994 94.8066 355.482 93.541C353.971 92.2754 353.215 90.5059 353.215 88.2324ZM373.764 95V69.4062H375.855V95H373.764ZM381.393 95V69.4062H395.561V71.2168H383.484V80.8848H393.855V82.6953H383.484V93.1895H395.754V95H381.393ZM399.393 95V69.4062H402.1L410.168 90.5C410.297 90.8281 410.42 91.168 410.537 91.5195C410.666 91.8594 410.766 92.1875 410.836 92.5039H410.924C411.006 92.1875 411.105 91.8594 411.223 91.5195C411.34 91.168 411.463 90.8281 411.592 90.5L419.607 69.4062H422.367V95H420.311V74.4336C420.311 74.1172 420.316 73.7656 420.328 73.3789C420.34 72.9805 420.363 72.6172 420.398 72.2891H420.275C420.217 72.6172 420.123 72.9746 419.994 73.3613C419.865 73.748 419.742 74.1055 419.625 74.4336L411.785 95H409.887L402.029 74.4512C401.9 74.1348 401.766 73.7598 401.625 73.3262C401.496 72.8926 401.414 72.5527 401.379 72.3066H401.273C401.285 72.541 401.303 72.8809 401.326 73.3262C401.35 73.7598 401.361 74.1348 401.361 74.4512V95H399.393ZM427.764 95V69.4062H435.111C437.701 69.4062 439.652 70.0977 440.965 71.4805C442.277 72.8633 442.934 74.6738 442.934 76.9121C442.934 79.1504 442.277 80.9727 440.965 82.3789C439.652 83.7734 437.701 84.4707 435.111 84.4707H429.855V95H427.764ZM429.855 82.6777H435.076C437.186 82.6777 438.668 82.127 439.523 81.0254C440.391 79.9238 440.824 78.5586 440.824 76.9297C440.824 75.3008 440.391 73.9414 439.523 72.8516C438.668 71.7617 437.186 71.2168 435.076 71.2168H429.855V82.6777ZM446.502 95V69.4062H453.727C456.234 69.4062 458.139 70.0742 459.439 71.4102C460.74 72.7344 461.391 74.4922 461.391 76.6836C461.391 78.8867 460.74 80.668 459.439 82.0273C458.15 83.375 456.246 84.0488 453.727 84.0488H448.594V95H446.502ZM448.594 82.2734H453.727C455.766 82.2734 457.201 81.752 458.033 80.709C458.865 79.6543 459.281 78.3125 459.281 76.6836C459.281 75.0664 458.859 73.748 458.016 72.7285C457.172 71.709 455.742 71.1992 453.727 71.1992H448.594V82.2734ZM460.143 95L453.955 83.1523L456.135 82.9238L462.533 95H460.143ZM465.803 95V69.4062H479.971V71.2168H467.895V80.8848H478.266V82.6953H467.895V93.1895H480.164V95H465.803Z" fill="#FDA1B1"/>
<path d="M169.379 205L178.291 179.266H180.594L189.523 205H187.344L180.154 183.836C180.002 183.379 179.873 182.98 179.768 182.641C179.662 182.301 179.557 181.926 179.451 181.516H179.328C179.223 181.926 179.111 182.307 178.994 182.658C178.889 183.01 178.76 183.402 178.607 183.836L171.453 205H169.379ZM172.842 197.793L173.457 196.035H185.375L186.008 197.793H172.842ZM199.648 205V179.406H213.816V181.217H201.74V190.885H212.111V192.695H201.74V203.189H214.01V205H199.648ZM217.648 205V179.406H219.916L232.045 199.973C232.232 200.277 232.402 200.582 232.555 200.887C232.719 201.191 232.854 201.484 232.959 201.766H233.064C233.053 201.449 233.041 201.115 233.029 200.764C233.029 200.412 233.029 200.078 233.029 199.762V179.406H235.033V205H232.783L220.637 184.398C220.449 184.094 220.273 183.783 220.109 183.467C219.945 183.139 219.805 182.84 219.688 182.57H219.6C219.611 182.898 219.623 183.256 219.635 183.643C219.646 184.018 219.652 184.369 219.652 184.697V205H217.648ZM239.551 192.818V191.535C239.551 187.293 240.453 184.141 242.258 182.078C244.062 180.004 246.383 178.967 249.219 178.967C252.008 178.967 254.152 179.729 255.652 181.252C257.152 182.775 257.938 184.779 258.008 187.264V187.65H255.898L255.881 187.281C255.834 185.312 255.266 183.742 254.176 182.57C253.086 181.387 251.434 180.795 249.219 180.795C246.91 180.795 245.07 181.674 243.699 183.432C242.34 185.189 241.66 187.873 241.66 191.482V192.871C241.66 196.457 242.352 199.146 243.734 200.939C245.117 202.721 246.951 203.611 249.236 203.611C251.416 203.611 253.045 203.02 254.123 201.836C255.213 200.652 255.799 199.082 255.881 197.125L255.898 196.756H258.008L257.99 197.195C257.873 199.621 257.082 201.602 255.617 203.137C254.164 204.672 252.025 205.439 249.201 205.439C246.295 205.439 243.957 204.402 242.188 202.328C240.43 200.254 239.551 197.084 239.551 192.818ZM261.172 192.818V191.535C261.172 187.305 262.074 184.152 263.879 182.078C265.695 180.004 268.045 178.967 270.928 178.967C273.834 178.967 276.189 180.004 277.994 182.078C279.811 184.152 280.719 187.305 280.719 191.535V192.818C280.719 197.096 279.811 200.271 277.994 202.346C276.189 204.408 273.834 205.439 270.928 205.439C268.045 205.439 265.695 204.408 263.879 202.346C262.074 200.271 261.172 197.096 261.172 192.818ZM263.281 192.871C263.281 196.527 263.979 199.229 265.373 200.975C266.768 202.721 268.619 203.594 270.928 203.594C273.248 203.594 275.105 202.721 276.5 200.975C277.895 199.229 278.592 196.527 278.592 192.871V191.482C278.592 187.861 277.895 185.178 276.5 183.432C275.105 181.686 273.248 180.812 270.928 180.812C268.619 180.812 266.768 181.686 265.373 183.432C263.979 185.178 263.281 187.861 263.281 191.482V192.871ZM285.219 205V179.406H287.486L299.615 199.973C299.803 200.277 299.973 200.582 300.125 200.887C300.289 201.191 300.424 201.484 300.529 201.766H300.635C300.623 201.449 300.611 201.115 300.6 200.764C300.6 200.412 300.6 200.078 300.6 199.762V179.406H302.604V205H300.354L288.207 184.398C288.02 184.094 287.844 183.783 287.68 183.467C287.516 183.139 287.375 182.84 287.258 182.57H287.17C287.182 182.898 287.193 183.256 287.205 183.643C287.217 184.018 287.223 184.369 287.223 184.697V205H285.219ZM305.469 181.217V179.406H323.539V181.217H315.559V205H313.467V181.217H305.469ZM326.562 205V179.406H333.787C336.295 179.406 338.199 180.074 339.5 181.41C340.801 182.734 341.451 184.492 341.451 186.684C341.451 188.887 340.801 190.668 339.5 192.027C338.211 193.375 336.307 194.049 333.787 194.049H328.654V205H326.562ZM328.654 192.273H333.787C335.826 192.273 337.262 191.752 338.094 190.709C338.926 189.654 339.342 188.312 339.342 186.684C339.342 185.066 338.92 183.748 338.076 182.729C337.232 181.709 335.803 181.199 333.787 181.199H328.654V192.273ZM340.203 205L334.016 193.152L336.195 192.924L342.594 205H340.203ZM343.262 205L352.174 179.266H354.477L363.406 205H361.227L354.037 183.836C353.885 183.379 353.756 182.98 353.65 182.641C353.545 182.301 353.439 181.926 353.334 181.516H353.211C353.105 181.926 352.994 182.307 352.877 182.658C352.771 183.01 352.643 183.402 352.49 183.836L345.336 205H343.262ZM346.725 197.793L347.34 196.035H359.258L359.891 197.793H346.725ZM366.113 205V179.406H373.338C375.846 179.406 377.75 180.074 379.051 181.41C380.352 182.734 381.002 184.492 381.002 186.684C381.002 188.887 380.352 190.668 379.051 192.027C377.762 193.375 375.857 194.049 373.338 194.049H368.205V205H366.113ZM368.205 192.273H373.338C375.377 192.273 376.812 191.752 377.645 190.709C378.477 189.654 378.893 188.312 378.893 186.684C378.893 185.066 378.471 183.748 377.627 182.729C376.783 181.709 375.354 181.199 373.338 181.199H368.205V192.273ZM379.754 205L373.566 193.152L375.746 192.924L382.145 205H379.754ZM384.131 198.232V197.494H386.223V198.197C386.223 199.979 386.768 201.326 387.857 202.24C388.959 203.154 390.482 203.611 392.428 203.611C394.373 203.611 395.873 203.148 396.928 202.223C397.982 201.297 398.51 200.096 398.51 198.619C398.51 197.225 398.059 196.117 397.156 195.297C396.254 194.477 394.502 193.645 391.9 192.801C389.299 191.945 387.43 191.008 386.293 189.988C385.168 188.957 384.605 187.457 384.605 185.488C384.605 183.578 385.279 182.014 386.627 180.795C387.975 179.576 389.867 178.967 392.305 178.967C394.742 178.967 396.646 179.623 398.018 180.936C399.4 182.248 400.092 183.924 400.092 185.963V186.561H398V185.963C398 184.451 397.525 183.215 396.576 182.254C395.639 181.281 394.215 180.795 392.305 180.795C390.371 180.795 388.947 181.211 388.033 182.043C387.131 182.875 386.68 184.012 386.68 185.453C386.68 186.766 387.125 187.814 388.016 188.6C388.918 189.373 390.67 190.176 393.271 191.008C395.873 191.852 397.742 192.836 398.879 193.961C400.016 195.086 400.584 196.627 400.584 198.584C400.584 200.611 399.852 202.264 398.387 203.541C396.922 204.807 394.936 205.439 392.428 205.439C389.92 205.439 387.91 204.807 386.398 203.541C384.887 202.275 384.131 200.506 384.131 198.232ZM404.574 205V179.406H418.742V181.217H406.666V190.885H417.037V192.695H406.666V203.189H418.936V205H404.574ZM422.521 203.734C422.521 203.301 422.656 202.932 422.926 202.627C423.195 202.311 423.588 202.152 424.104 202.152C424.619 202.152 425.012 202.311 425.281 202.627C425.562 202.932 425.703 203.301 425.703 203.734C425.703 204.191 425.562 204.572 425.281 204.877C425.012 205.182 424.619 205.334 424.104 205.334C423.588 205.334 423.195 205.182 422.926 204.877C422.656 204.561 422.521 204.18 422.521 203.734ZM431.521 203.734C431.521 203.301 431.656 202.932 431.926 202.627C432.195 202.311 432.588 202.152 433.104 202.152C433.619 202.152 434.012 202.311 434.281 202.627C434.562 202.932 434.703 203.301 434.703 203.734C434.703 204.191 434.562 204.572 434.281 204.877C434.012 205.182 433.619 205.334 433.104 205.334C432.588 205.334 432.195 205.182 431.926 204.877C431.656 204.561 431.521 204.18 431.521 203.734ZM440.521 203.734C440.521 203.301 440.656 202.932 440.926 202.627C441.195 202.311 441.588 202.152 442.104 202.152C442.619 202.152 443.012 202.311 443.281 202.627C443.562 202.932 443.703 203.301 443.703 203.734C443.703 204.191 443.562 204.572 443.281 204.877C443.012 205.182 442.619 205.334 442.104 205.334C441.588 205.334 441.195 205.182 440.926 204.877C440.656 204.561 440.521 204.18 440.521 203.734Z" fill="#FDA1B1"/>
</svg>
