<svg width="423" height="355" viewBox="0 0 423 355" fill="none" xmlns="http://www.w3.org/2000/svg">
<path d="M0.503315 21.9929V18.9311H40.0555V21.9929H22.0201V80H18.6227V21.9929H0.503315ZM46.3889 80V18.9311H49.7863V46.8651H81.0757V18.9311H84.4731V80H81.0757V49.843H49.7863V80H46.3889ZM96.0494 80V18.9311H126.5V21.9929H99.4467V46.907H122.39V49.9688H99.4467V76.9382H126.919V80H96.0494Z" fill="#FDA1B1"/>
<path d="M105.175 243.52C111.776 243.52 118.926 242.236 126.627 239.669C134.328 237.102 142.212 233.497 150.28 228.852C158.469 224.207 166.476 218.767 174.299 212.533C182.122 206.177 189.334 199.271 195.935 191.814L197.401 190.164H198.868L197.401 191.814C190.556 199.515 183.161 206.605 175.216 213.083C167.393 219.562 159.325 225.123 151.013 229.768C142.823 234.536 134.817 238.203 126.994 240.77C119.171 243.459 111.898 244.803 105.175 244.803C95.396 244.803 86.8395 243.031 79.5053 239.486C72.2935 235.941 66.6706 230.93 62.6369 224.451C58.6031 217.973 56.5862 210.455 56.5862 201.899C56.5862 192.853 58.7864 184.175 63.1869 175.863C67.7096 167.428 73.7603 159.911 81.3389 153.31C88.9175 146.709 97.5351 141.514 107.192 137.725C116.848 133.814 126.872 131.858 137.262 131.858C142.64 131.858 146.796 132.408 149.73 133.508C152.663 134.486 154.13 135.953 154.13 137.908C154.13 139.131 153.458 140.231 152.113 141.209C150.769 142.064 149.057 142.492 146.979 142.492C142.09 142.492 138.056 140.475 134.878 136.442C131.822 132.408 130.294 127.213 130.294 120.857C130.294 114.011 132.128 107.411 135.795 101.054C139.462 94.576 144.412 88.8309 150.646 83.8193C156.88 78.8076 163.909 74.835 171.732 71.9013C179.677 68.9677 187.867 67.5008 196.301 67.5008C216.47 67.5008 226.555 76.6685 226.555 95.0038C226.555 101.116 225.271 107.716 222.704 114.806C220.259 121.773 216.898 128.802 212.62 135.892C208.341 142.981 203.452 149.765 197.951 156.244C192.451 162.6 186.706 168.284 180.716 173.296C174.727 178.307 168.737 182.28 162.748 185.214C156.758 188.147 151.135 189.614 145.879 189.614C140.745 189.614 136.65 187.842 133.595 184.297C130.539 180.752 129.011 175.985 129.011 169.995C129.011 164.739 130.416 158.933 133.228 152.577C136.039 146.22 139.706 139.864 144.229 133.508C148.874 127.152 153.947 121.346 159.447 116.089C164.948 110.833 170.449 106.616 175.949 103.438C181.572 100.26 186.645 98.6709 191.167 98.6709C196.179 98.6709 198.685 101.543 198.685 107.288C198.685 113.156 196.607 119.39 192.451 125.99C188.417 132.469 182.855 138.947 175.766 145.426C168.798 151.904 160.731 158.077 151.563 163.945C142.518 169.812 132.922 175.007 122.777 179.53C112.753 184.052 102.669 187.658 92.5234 190.347C82.3779 192.914 72.7213 194.198 63.5536 194.198C51.5746 194.198 40.8178 192.303 31.2835 188.514C21.7491 184.725 14.2927 179.53 8.91439 172.929C3.41379 166.328 0.663496 158.872 0.663496 150.56C0.663496 143.226 2.68038 136.503 6.71415 130.391C10.7479 124.279 16.493 118.962 23.9493 114.439C31.2835 109.794 39.9011 106.249 49.8021 103.805C59.7032 101.238 70.521 99.9543 82.2556 99.9543C90.4454 99.9543 99.0019 100.688 107.925 102.155C116.848 103.499 125.71 105.455 134.511 108.022C143.312 110.467 151.563 113.339 159.264 116.639C166.965 119.94 173.81 123.546 179.8 127.457C185.789 131.369 190.373 135.403 193.551 139.559L192.818 140.109C190.006 136.564 185.85 132.958 180.35 129.291C174.849 125.502 168.371 121.957 160.914 118.656C153.58 115.234 145.574 112.239 136.895 109.672C128.216 106.983 119.232 104.905 109.942 103.438C100.652 101.849 91.4844 101.054 82.439 101.054C70.7044 101.054 59.9477 102.277 50.1688 104.722C40.39 107.166 31.8946 110.65 24.6828 115.173C17.4709 119.695 11.9092 125.013 7.99762 131.124C3.96385 137.114 1.94697 143.715 1.94697 150.927C1.94697 158.872 4.63615 166.023 10.0145 172.379C15.3929 178.735 22.727 183.747 32.0169 187.414C41.3068 191.081 51.819 192.914 63.5536 192.914C72.7213 192.914 82.3168 191.631 92.3401 189.064C102.486 186.497 112.509 183.013 122.41 178.613C132.433 174.09 141.907 168.956 150.83 163.211C159.875 157.466 167.882 151.415 174.849 145.059C181.816 138.581 187.317 132.163 191.351 125.807C195.385 119.329 197.401 113.156 197.401 107.288C197.401 102.277 195.323 99.771 191.167 99.771C186.645 99.771 181.694 101.36 176.316 104.538C170.937 107.716 165.498 111.933 159.997 117.19C154.619 122.323 149.668 128.007 145.146 134.241C140.623 140.475 136.956 146.771 134.145 153.127C131.455 159.361 130.111 165.045 130.111 170.179C130.111 175.679 131.578 180.141 134.511 183.563C137.445 186.864 141.173 188.514 145.696 188.514C150.952 188.514 156.514 187.108 162.381 184.297C168.248 181.363 174.177 177.452 180.166 172.562C186.156 167.551 191.84 161.867 197.218 155.51C202.719 149.154 207.547 142.492 211.703 135.525C215.981 128.557 219.343 121.59 221.787 114.623C224.232 107.655 225.454 101.116 225.454 95.0038C225.454 86.3251 223.193 79.7855 218.67 75.385C214.27 70.8623 207.73 68.601 199.052 68.601C191.351 68.601 183.711 70.2511 176.132 73.5515C168.554 76.8519 161.648 81.3134 155.414 86.9363C149.18 92.4369 144.168 98.5486 140.379 105.272C136.712 111.872 134.878 118.595 134.878 125.44C134.878 136.075 138.973 141.392 147.163 141.392C148.874 141.392 150.28 141.087 151.38 140.475C152.48 139.742 153.03 138.947 153.03 138.092C153.03 136.625 151.685 135.403 148.996 134.425C146.429 133.447 143.129 132.958 139.095 132.958C132.128 132.958 125.221 134.425 118.376 137.358C111.653 140.17 105.297 144.081 99.3075 149.093C93.4402 154.105 88.1841 159.911 83.5391 166.512C79.0164 173.112 75.4716 180.202 72.9046 187.781C70.3377 195.237 69.0542 202.815 69.0542 210.516C69.0542 232.519 81.0944 243.52 105.175 243.52ZM198.884 190.164H197.417L199.067 188.331C204.446 182.463 209.518 177.818 214.286 174.396C219.053 170.851 222.842 169.078 225.654 169.078C226.754 169.078 227.67 169.445 228.404 170.179C229.137 170.912 229.504 171.89 229.504 173.112C229.504 175.801 228.404 178.796 226.204 182.097C224.003 185.397 220.214 189.797 214.836 195.298H216.669L213.002 200.249L200.718 214H188.616C193.017 210.822 197.539 207.155 202.184 202.999C206.829 198.843 211.108 194.687 215.019 190.531C218.931 186.375 222.048 182.708 224.37 179.53C226.815 176.229 228.037 173.846 228.037 172.379C228.037 170.79 227.182 169.995 225.47 169.995C224.003 169.995 221.864 170.851 219.053 172.562C216.241 174.151 213.186 176.351 209.885 179.163C206.707 181.852 203.59 184.908 200.534 188.331L198.884 190.164ZM229.137 215.283C227.793 215.283 226.57 214.672 225.47 213.45C224.492 212.228 224.003 210.822 224.003 209.233C224.003 206.666 224.981 203.977 226.937 201.165C228.893 198.354 231.276 195.604 234.088 192.914C237.021 190.103 239.894 187.475 242.705 185.03C245.639 182.463 248.084 180.141 250.04 178.063C251.995 175.985 252.973 174.212 252.973 172.746C252.973 171.279 252.118 170.545 250.406 170.545C248.695 170.545 246.372 171.462 243.439 173.296C240.505 175.007 237.266 177.329 233.721 180.263C230.176 183.197 226.57 186.436 222.903 189.981C219.358 193.403 216.058 196.826 213.002 200.249H211.535C214.713 196.704 218.136 193.159 221.803 189.614C225.47 186.069 229.137 182.769 232.804 179.713C236.471 176.657 239.833 174.212 242.889 172.379C246.067 170.545 248.634 169.629 250.59 169.629C251.934 169.629 253.157 170.117 254.257 171.095C255.479 171.951 256.09 173.357 256.09 175.312C256.09 177.879 255.051 180.507 252.973 183.197C251.017 185.886 248.573 188.575 245.639 191.264C242.705 193.953 239.772 196.52 236.838 198.965C233.904 201.41 231.399 203.732 229.321 205.932C227.365 208.133 226.387 210.088 226.387 211.8C226.387 212.533 226.631 213.144 227.12 213.633C227.732 214.122 228.465 214.367 229.321 214.367C231.154 214.367 233.782 213.328 237.205 211.25C240.627 209.172 244.356 206.421 248.389 202.999C252.423 199.576 256.212 195.909 259.757 191.998L261.407 190.164H262.874L261.591 191.631C257.679 196.031 253.584 200.004 249.306 203.549C245.15 207.094 241.3 209.966 237.755 212.166C234.21 214.244 231.338 215.283 229.137 215.283ZM335.965 146.159H329.731L411.323 53.7494H422.874C420.185 54.9717 415.479 58.8221 408.756 65.3006C402.033 71.7791 393.904 80.4578 384.37 91.3367L335.965 146.159ZM258.04 214.917C254.984 214.917 253.456 212.533 253.456 207.766C253.456 204.588 254.434 201.226 256.39 197.682C258.223 194.137 260.729 190.714 263.907 187.414C267.085 183.991 270.63 180.935 274.542 178.246C278.453 175.435 282.487 173.234 286.643 171.645C290.921 170.056 294.955 169.262 298.744 169.262C301.922 169.262 303.511 170.484 303.511 172.929C303.511 175.251 302.044 178.185 299.111 181.73C296.177 185.152 292.51 189.186 288.11 193.831C284.687 197.376 281.02 200.799 277.108 204.099C273.319 207.277 269.713 209.905 266.291 211.983C262.99 213.939 260.24 214.917 258.04 214.917ZM258.223 214C260.057 214 262.501 213.144 265.557 211.433C268.613 209.6 272.036 207.094 275.825 203.916C279.614 200.737 283.465 197.132 287.376 193.098C291.777 188.453 295.322 184.48 298.011 181.18C300.822 177.879 302.228 175.19 302.228 173.112C302.228 171.523 301.189 170.729 299.111 170.729C297.277 170.729 294.894 171.462 291.96 172.929C289.149 174.396 286.093 176.413 282.792 178.98C279.492 181.424 276.253 184.175 273.075 187.23C269.897 190.286 266.963 193.342 264.274 196.398C261.707 199.454 259.629 202.327 258.04 205.016C256.451 207.705 255.656 209.966 255.656 211.8C255.656 213.267 256.512 214 258.223 214ZM298.927 187.964C294.649 192.731 291.227 196.643 288.66 199.698C286.093 202.632 284.259 205.016 283.159 206.849C282.059 208.683 281.509 210.272 281.509 211.616C281.509 213.45 282.242 214.367 283.709 214.367C285.42 214.367 287.865 213.45 291.043 211.616C294.221 209.661 297.827 206.971 301.861 203.549C305.895 200.126 309.929 196.276 313.962 191.998L315.613 190.164H317.079L315.796 191.631C311.762 196.031 307.606 200.065 303.328 203.732C299.172 207.277 295.322 210.088 291.777 212.166C288.354 214.244 285.604 215.283 283.526 215.283C282.426 215.283 281.448 214.856 280.592 214C279.859 213.267 279.492 212.289 279.492 211.066C279.492 207.888 281.203 203.61 284.626 198.232C288.171 192.853 293.06 186.986 299.294 180.63L329.731 146.159H335.965L298.927 187.964Z" fill="#A5B82E"/>
<path d="M314.494 215.467C313.272 215.467 312.66 214.917 312.66 213.817C312.66 212.717 313.21 211.433 314.311 209.966C315.411 208.377 316.755 206.91 318.344 205.566C319.933 204.099 321.584 202.877 323.295 201.899C325.006 200.921 326.473 200.432 327.695 200.432C329.04 200.432 329.712 201.043 329.712 202.265C329.712 203.366 329.162 204.649 328.062 206.116C326.962 207.583 325.556 209.049 323.845 210.516C322.256 211.983 320.606 213.144 318.894 214C317.183 214.978 315.716 215.467 314.494 215.467Z" fill="#FDA1B1"/>
</svg>
