<svg width="1252" height="418" viewBox="0 0 1252 418" fill="none" xmlns="http://www.w3.org/2000/svg">
<path d="M562.869 152.733V147.785C562.869 127.677 566.456 113.304 573.63 104.664C580.803 96.0239 590.333 91.7039 602.22 91.7039C613.74 91.7039 622.51 94.7934 628.532 100.972C634.606 107.151 637.643 116.053 637.643 127.677V130.348H631.438V127.834C631.438 117.571 628.977 109.874 624.055 104.742C619.133 99.6108 611.855 97.045 602.22 97.045C591.538 97.045 583.317 101.025 577.557 108.984C571.849 116.943 568.995 129.72 568.995 147.314V153.204C568.995 170.903 571.954 183.758 577.871 191.77C583.788 199.781 591.957 203.787 602.377 203.787C611.959 203.787 619.185 201.247 624.055 196.168C628.977 191.037 631.438 183.339 631.438 173.076V170.563H637.643V173.704C637.643 184.701 634.659 193.367 628.689 199.703C622.72 205.986 613.818 209.128 601.984 209.128C589.522 209.128 579.887 204.756 573.08 196.011C566.273 187.267 562.869 172.84 562.869 152.733ZM650.211 152.733V147.785C650.211 127.73 653.824 113.382 661.05 104.742C668.276 96.0501 677.78 91.7039 689.561 91.7039C701.395 91.7039 710.925 96.0501 718.152 104.742C725.378 113.382 728.991 127.73 728.991 147.785V152.733C728.991 173.102 725.378 187.607 718.152 196.247C710.925 204.887 701.395 209.207 689.561 209.207C677.78 209.207 668.276 204.887 661.05 196.247C653.824 187.607 650.211 173.102 650.211 152.733ZM656.337 153.204C656.337 171.584 659.348 184.622 665.37 192.32C671.391 199.965 679.455 203.787 689.561 203.787C699.72 203.787 707.784 199.965 713.753 192.32C719.775 184.622 722.786 171.558 722.786 153.126V147.314C722.786 129.248 719.775 116.367 713.753 108.67C707.784 100.972 699.72 97.1235 689.561 97.1235C679.455 97.1235 671.391 100.972 665.37 108.67C659.348 116.367 656.337 129.248 656.337 147.314V153.204ZM746.742 207.636V93.2748H754.753L790.648 192.634C791.119 193.943 791.565 195.278 791.983 196.64C792.402 198.001 792.743 199.362 793.005 200.724H793.24C793.45 199.362 793.764 198.001 794.183 196.64C794.654 195.226 795.125 193.89 795.597 192.634L831.02 93.2748H839.346V207.636H833.376V109.848C833.376 108.539 833.376 107.125 833.376 105.606C833.429 104.088 833.507 102.674 833.612 101.365H833.298C833.036 102.726 832.67 104.14 832.198 105.606C831.727 107.072 831.282 108.46 830.863 109.769L795.832 207.636H790.02L754.675 109.926C754.204 108.67 753.706 107.099 753.182 105.214C752.659 103.276 752.371 102.046 752.318 101.522H752.083C752.083 102.046 752.109 103.276 752.161 105.214C752.266 107.151 752.318 108.748 752.318 110.005V207.636H746.742ZM860.946 207.636V93.2748H917.184V98.6944H866.915V145.821H909.486V151.241H866.915V202.216H917.969V207.636H860.946ZM931.479 207.636V93.2748H956.456C970.28 93.2748 981.014 98.2231 988.659 108.12C996.357 117.964 1000.21 131.238 1000.21 147.942V152.969C1000.21 170.249 996.278 183.68 988.424 193.262C980.621 202.845 969.966 207.636 956.456 207.636H931.479ZM937.448 202.216H956.456C967.871 202.216 976.982 197.922 983.789 189.335C990.597 180.695 994 168.547 994 152.89V148.099C994 132.861 990.649 120.844 983.946 112.047C977.244 103.198 968.08 98.7468 956.456 98.6944H937.448V202.216ZM1018.51 207.636V93.2748H1024.48V207.636H1018.51ZM1035.31 207.636L1071.37 92.8036H1079.69L1115.74 207.636H1109.54L1078.12 107.963C1077.49 105.868 1077 104.219 1076.63 103.014C1076.26 101.758 1075.84 100.239 1075.37 98.4588H1075.14C1074.61 100.239 1074.14 101.784 1073.72 103.093C1073.36 104.402 1072.89 106.025 1072.31 107.963L1041.28 207.636H1035.31ZM1048.75 173.94L1050.32 168.913H1100.59L1102.16 173.94H1048.75ZM1121.87 178.26V172.526H1127.92V177.946C1127.92 186.481 1130.33 192.948 1135.14 197.346C1140.01 201.693 1146.66 203.866 1155.1 203.866C1163.53 203.866 1170.07 201.693 1174.73 197.346C1179.39 193 1181.72 187.267 1181.72 180.145C1181.72 173.181 1179.81 167.735 1175.99 163.808C1172.22 159.828 1164.99 155.823 1154.31 151.791C1143.73 147.759 1135.98 143.57 1131.06 139.223C1126.19 134.825 1123.76 128.149 1123.76 119.195C1123.76 110.921 1126.43 104.271 1131.77 99.2442C1137.16 94.2174 1144.83 91.7039 1154.78 91.7039C1164.73 91.7039 1172.35 94.4006 1177.64 99.794C1182.98 105.187 1185.65 112.283 1185.65 121.08V125.557H1179.68V121.158C1179.68 114.194 1177.64 108.46 1173.55 103.957C1169.47 99.4013 1163.21 97.1235 1154.78 97.1235C1146.14 97.1235 1139.81 99.0348 1135.77 102.857C1131.74 106.68 1129.73 112.073 1129.73 119.037C1129.73 125.635 1131.66 130.819 1135.54 134.589C1139.46 138.307 1146.74 142.182 1157.37 146.214C1168 150.246 1175.7 154.775 1180.46 159.802C1185.28 164.829 1187.69 171.531 1187.69 179.91C1187.69 188.706 1184.76 195.802 1178.89 201.195C1173.03 206.536 1165.1 209.207 1155.1 209.207C1144.99 209.207 1136.93 206.536 1130.9 201.195C1124.88 195.854 1121.87 188.209 1121.87 178.26Z" fill="#FDA1B1"/>
<path d="M520.175 401.865V387.627L508.436 365.108H514.141L521.715 380.028C521.95 380.499 522.161 380.937 522.346 381.341C522.548 381.745 522.733 382.174 522.901 382.628H523.053C523.221 382.174 523.398 381.745 523.583 381.341C523.768 380.937 523.987 380.499 524.239 380.028L531.813 365.108H537.114L525.4 387.576V401.865H520.175ZM550.09 391.944V390.58H555.113V391.767C555.113 394.022 555.753 395.705 557.032 396.816C558.328 397.91 560.137 398.457 562.46 398.457C564.748 398.457 566.507 397.918 567.736 396.841C568.964 395.747 569.579 394.291 569.579 392.474C569.579 390.808 569.006 389.486 567.862 388.51C566.718 387.517 564.496 386.465 561.197 385.355C557.596 384.16 554.945 382.771 553.245 381.189C551.562 379.607 550.721 377.344 550.721 374.399C550.721 371.47 551.747 369.097 553.801 367.28C555.854 365.445 558.673 364.528 562.258 364.528C565.792 364.528 568.619 365.437 570.74 367.254C572.877 369.055 573.946 371.537 573.946 374.701V375.762H568.947V374.878C568.947 372.926 568.384 371.386 567.256 370.258C566.128 369.131 564.479 368.567 562.308 368.567C560.036 368.567 558.378 369.063 557.335 370.056C556.291 371.049 555.77 372.396 555.77 374.096C555.77 375.678 556.334 376.931 557.461 377.857C558.606 378.783 560.852 379.801 564.201 380.912C567.753 382.073 570.378 383.512 572.078 385.228C573.778 386.945 574.628 389.268 574.628 392.196C574.628 395.31 573.525 397.8 571.32 399.668C569.133 401.537 566.187 402.471 562.485 402.471C558.782 402.471 555.787 401.57 553.498 399.769C551.226 397.952 550.09 395.343 550.09 391.944ZM579.55 389.192V365.108H584.725V389.52C584.725 392.65 585.365 394.914 586.644 396.311C587.94 397.691 589.707 398.381 591.945 398.381C594.167 398.381 595.917 397.691 597.196 396.311C598.475 394.914 599.115 392.65 599.115 389.52V365.108H604.29V389.192C604.29 393.685 603.171 397.026 600.933 399.214C598.711 401.385 595.724 402.471 591.971 402.471C588.184 402.471 585.163 401.385 582.908 399.214C580.669 397.026 579.55 393.685 579.55 389.192ZM621.658 401.865V365.108H643.015V369.35H626.758V380.962H640.668V385.001H626.758V397.674H643.293V401.865H621.658ZM644.53 365.108H649.958L658.718 393.004C658.869 393.458 659.004 393.913 659.122 394.367C659.256 394.821 659.374 395.242 659.475 395.629H659.626C659.711 395.242 659.82 394.805 659.955 394.317C660.089 393.829 660.224 393.391 660.359 393.004L669.194 365.108H674.319L662.277 402.067H656.572L644.53 365.108ZM675.909 384.522V382.452C675.909 376.326 677.239 371.807 679.898 368.895C682.557 365.967 686.007 364.503 690.248 364.503C694.473 364.503 697.914 365.967 700.573 368.895C703.249 371.807 704.587 376.326 704.587 382.452V384.522C704.587 390.648 703.249 395.175 700.573 398.103C697.914 401.015 694.473 402.471 690.248 402.471C686.007 402.471 682.557 401.015 679.898 398.103C677.239 395.175 675.909 390.648 675.909 384.522ZM681.236 385.178C681.236 389.773 682.044 393.122 683.659 395.225C685.292 397.329 687.488 398.381 690.248 398.381C692.992 398.381 695.179 397.329 696.812 395.225C698.444 393.122 699.261 389.773 699.261 385.178V381.795C699.261 377.218 698.444 373.877 696.812 371.773C695.179 369.669 692.992 368.617 690.248 368.617C687.488 368.617 685.292 369.669 683.659 371.773C682.044 373.877 681.236 377.218 681.236 381.795V385.178ZM710.166 401.865V365.108H715.341V397.624H730.766V401.865H710.166ZM733.593 389.192V365.108H738.769V389.52C738.769 392.65 739.408 394.914 740.687 396.311C741.983 397.691 743.75 398.381 745.989 398.381C748.21 398.381 749.96 397.691 751.239 396.311C752.519 394.914 753.158 392.65 753.158 389.52V365.108H758.333V389.192C758.333 393.685 757.214 397.026 754.976 399.214C752.754 401.385 749.767 402.471 746.014 402.471C742.227 402.471 739.206 401.385 736.951 399.214C734.713 397.026 733.593 393.685 733.593 389.192ZM763.66 384.522V382.452C763.66 376.342 764.989 371.832 767.648 368.92C770.308 365.992 773.724 364.528 777.898 364.528C782.004 364.528 785.177 365.613 787.415 367.784C789.67 369.939 790.798 372.884 790.798 376.62V377.579H785.673V376.443C785.673 373.936 785.025 372 783.729 370.637C782.45 369.274 780.515 368.592 777.923 368.592C775.163 368.592 772.992 369.661 771.41 371.798C769.828 373.936 769.037 377.26 769.037 381.77V385.203C769.037 389.579 769.845 392.878 771.46 395.099C773.076 397.304 775.264 398.406 778.024 398.406C780.498 398.406 782.375 397.725 783.654 396.361C784.933 394.981 785.606 392.995 785.673 390.404V389.419H790.798V390.58C790.697 394.131 789.552 397.001 787.365 399.189C785.177 401.36 782.013 402.445 777.873 402.445C773.497 402.445 770.03 400.973 767.472 398.028C764.93 395.066 763.66 390.564 763.66 384.522ZM796.225 401.865V365.108H801.426V401.865H796.225ZM807.182 384.522V382.452C807.182 376.326 808.511 371.807 811.17 368.895C813.829 365.967 817.28 364.503 821.521 364.503C825.745 364.503 829.187 365.967 831.846 368.895C834.522 371.807 835.86 376.326 835.86 382.452V384.522C835.86 390.648 834.522 395.175 831.846 398.103C829.187 401.015 825.745 402.471 821.521 402.471C817.28 402.471 813.829 401.015 811.17 398.103C808.511 395.175 807.182 390.648 807.182 384.522ZM812.508 385.178C812.508 389.773 813.316 393.122 814.932 395.225C816.564 397.329 818.761 398.381 821.521 398.381C824.264 398.381 826.452 397.329 828.084 395.225C829.717 393.122 830.533 389.773 830.533 385.178V381.795C830.533 377.218 829.717 373.877 828.084 371.773C826.452 369.669 824.264 368.617 821.521 368.617C818.761 368.617 816.564 369.669 814.932 371.773C813.316 373.877 812.508 377.218 812.508 381.795V385.178ZM817.532 359.959L824.171 351.476L828.488 354.127L821.016 361.751L817.532 359.959ZM841.439 401.865V365.108H846.892L861.029 390.883C861.315 391.405 861.576 391.944 861.811 392.499C862.047 393.038 862.24 393.551 862.392 394.039H862.543C862.526 393.484 862.51 392.903 862.493 392.297C862.493 391.691 862.493 391.111 862.493 390.555V365.108H867.138V401.865H861.761L847.548 375.989C847.262 375.467 847.001 374.937 846.765 374.399C846.547 373.86 846.345 373.338 846.16 372.833H846.008C846.042 373.389 846.059 373.978 846.059 374.6C846.075 375.206 846.084 375.795 846.084 376.368V401.865H841.439ZM884.759 401.865V365.108H906.116V369.35H889.858V380.962H903.768V385.001H889.858V397.674H906.393V401.865H884.759ZM910.862 401.865V365.108H916.315L930.452 390.883C930.738 391.405 930.999 391.944 931.234 392.499C931.47 393.038 931.663 393.551 931.815 394.039H931.966C931.949 393.484 931.933 392.903 931.916 392.297C931.916 391.691 931.916 391.111 931.916 390.555V365.108H936.561V401.865H931.184L916.971 375.989C916.685 375.467 916.424 374.937 916.188 374.399C915.97 373.86 915.768 373.338 915.582 372.833H915.431C915.465 373.389 915.481 373.978 915.481 374.6C915.498 375.206 915.507 375.795 915.507 376.368V401.865H910.862ZM954.182 401.865V365.108H975.539V369.35H959.281V380.962H973.191V385.001H959.281V397.674H975.816V401.865H954.182ZM980.285 401.865V365.108H985.46V397.624H1000.88V401.865H980.285ZM1012.04 369.35V365.108H1038.6V369.35H1027.95V401.865H1022.72V369.35H1012.04ZM1042.51 401.865V365.108H1047.71V401.865H1042.51ZM1054.6 401.865V365.108H1075.96V369.35H1059.7V380.962H1073.61V385.001H1059.7V397.674H1076.24V401.865H1054.6ZM1080.71 401.865V365.108H1087.65L1097.39 391.918C1097.58 392.474 1097.76 393.029 1097.92 393.584C1098.09 394.14 1098.24 394.712 1098.35 395.301H1098.51C1098.62 394.712 1098.77 394.14 1098.93 393.584C1099.1 393.029 1099.28 392.474 1099.46 391.918L1109.16 365.108H1116.18V401.865H1111.08V375.661C1111.08 375.105 1111.08 374.483 1111.08 373.793C1111.09 373.103 1111.14 372.48 1111.2 371.925H1111.05C1110.93 372.497 1110.77 373.119 1110.57 373.793C1110.39 374.466 1110.2 375.089 1110.02 375.661L1100.6 401.865H1095.96L1086.51 375.661C1086.31 375.105 1086.1 374.432 1085.88 373.641C1085.68 372.85 1085.55 372.278 1085.5 371.925H1085.35C1085.39 372.278 1085.42 372.85 1085.45 373.641C1085.49 374.432 1085.5 375.105 1085.5 375.661V401.865H1080.71ZM1122.92 401.865V365.108H1134.86C1138.59 365.108 1141.42 366.152 1143.34 368.239C1145.28 370.326 1146.24 373.077 1146.24 376.494C1146.24 379.893 1145.28 382.654 1143.37 384.774C1141.45 386.878 1138.6 387.93 1134.83 387.93H1128.09V401.865H1122.92ZM1128.09 383.916H1134.28C1136.78 383.916 1138.54 383.209 1139.53 381.795C1140.54 380.365 1141.04 378.614 1141.04 376.544C1141.04 374.474 1140.54 372.741 1139.53 371.344C1138.54 369.93 1136.78 369.223 1134.28 369.223H1128.09V383.916ZM1149.85 384.522V382.452C1149.85 376.326 1151.18 371.807 1153.84 368.895C1156.5 365.967 1159.95 364.503 1164.19 364.503C1168.42 364.503 1171.86 365.967 1174.52 368.895C1177.19 371.807 1178.53 376.326 1178.53 382.452V384.522C1178.53 390.648 1177.19 395.175 1174.52 398.103C1171.86 401.015 1168.42 402.471 1164.19 402.471C1159.95 402.471 1156.5 401.015 1153.84 398.103C1151.18 395.175 1149.85 390.648 1149.85 384.522ZM1155.18 385.178C1155.18 389.773 1155.99 393.122 1157.6 395.225C1159.24 397.329 1161.43 398.381 1164.19 398.381C1166.94 398.381 1169.12 397.329 1170.76 395.225C1172.39 393.122 1173.2 389.773 1173.2 385.178V381.795C1173.2 377.218 1172.39 373.877 1170.76 371.773C1169.12 369.669 1166.94 368.617 1164.19 368.617C1161.43 368.617 1159.24 369.669 1157.6 371.773C1155.99 373.877 1155.18 377.218 1155.18 381.795V385.178Z" fill="#383838"/>
<path d="M392.458 229.292C384.675 229.292 378.609 227.689 374.26 224.485C370.139 221.28 368.079 218.075 368.079 214.871C368.079 211.437 369.453 208.805 372.2 206.973C374.946 205.142 378.151 204.227 381.814 204.227C385.934 204.227 390.283 205.486 394.861 208.004C399.439 210.522 403.331 214.413 406.535 219.678C409.74 224.942 411.342 231.924 411.342 240.622C411.342 253.899 409.969 267.061 407.222 280.108C404.704 292.927 402.072 305.173 399.325 316.848C396.578 328.522 395.204 339.28 395.204 349.123C395.204 363.086 397.608 374.646 402.415 383.802C407.222 392.958 415.577 397.536 427.48 397.536C432.745 397.536 437.208 396.735 440.871 395.133C444.533 393.76 447.853 391.814 450.828 389.296L451.858 390.326C448.654 393.073 444.991 395.247 440.871 396.85C436.751 398.681 432.058 399.597 426.793 399.597C412.83 399.597 402.529 394.446 395.891 384.146C389.482 373.845 386.277 360.568 386.277 344.316C386.277 334.702 387.307 325.088 389.367 315.474C391.428 305.631 393.831 295.903 396.578 286.289C399.325 276.446 401.728 266.946 403.788 257.79C405.849 248.405 406.879 239.478 406.879 231.008C406.879 224.37 404.475 218.762 399.668 214.184C394.861 209.377 389.139 206.973 382.5 206.973C378.838 206.973 375.977 207.775 373.916 209.377C371.856 210.979 370.826 213.039 370.826 215.557C370.826 218.762 372.886 221.509 377.007 223.798C381.356 226.087 386.506 227.232 392.458 227.232C413.059 227.232 431.486 222.882 447.738 214.184C463.99 205.257 476.694 193.239 485.851 178.132C495.236 162.795 499.928 145.398 499.928 125.941C499.928 108.773 495.694 92.7501 487.224 77.8714C478.755 62.9926 466.966 49.945 451.858 38.7287C436.751 27.5124 419.125 18.814 398.981 12.6336C378.838 6.22427 357.206 3.01961 334.087 3.01961C313.257 3.01961 293.914 5.76646 276.06 11.2602C258.205 16.7539 242.525 24.4222 229.02 34.2651C215.743 44.108 205.328 55.6676 197.774 68.9441C190.221 81.9917 186.444 96.0693 186.444 111.177C186.444 127.429 190.907 141.621 199.835 153.753C208.991 165.885 221.695 175.385 237.947 182.252C254.199 188.89 273.198 192.209 294.944 192.209C312.112 192.209 327.678 189.119 341.641 182.939C355.604 176.758 366.706 168.403 374.946 157.873C383.187 147.115 387.307 135.326 387.307 122.508C387.307 107.629 381.47 95.7259 369.796 86.7986L371.513 85.4252C383.645 94.8103 389.711 107.057 389.711 122.164C389.711 135.441 385.476 147.573 377.007 158.56C368.537 169.548 357.092 178.246 342.671 184.655C328.479 191.065 312.456 194.269 294.601 194.269C272.626 194.269 253.284 190.836 236.574 183.969C220.093 177.101 207.274 167.487 198.118 155.127C188.962 142.537 184.383 128.001 184.383 111.52C184.383 95.9548 188.16 81.5338 195.714 68.2574C203.268 54.752 213.798 42.9634 227.303 32.8916C241.037 22.8198 256.946 15.0371 275.03 9.54338C293.342 3.82078 313.028 0.959473 334.087 0.959473C357.893 0.959473 379.868 4.16413 400.011 10.5735C420.384 16.7539 438.238 25.5667 453.575 37.0119C468.912 48.2282 480.815 61.5047 489.284 76.8413C497.754 91.949 501.988 108.316 501.988 125.941C501.988 145.627 497.181 163.253 487.567 178.818C478.182 194.384 465.249 206.745 448.768 215.901C432.287 224.828 413.517 229.292 392.458 229.292ZM461.129 119.761C467.767 112.207 474.749 105.34 482.074 99.1595C489.399 92.9791 497.067 87.5998 505.079 83.0217H522.59C516.638 84.3951 510.114 86.9131 503.018 90.5756C496.151 94.238 489.284 98.8161 482.417 104.31C475.55 109.575 469.141 115.412 463.189 121.821C451.973 134.411 441.558 148.488 431.944 164.054C422.559 179.39 413.288 195.185 404.132 211.437C395.204 227.689 385.705 243.484 375.633 258.82C365.561 273.928 354.231 287.662 341.641 300.023C330.425 311.011 317.034 320.51 301.468 328.522C285.903 336.533 269.193 342.714 251.338 347.063C233.484 351.641 215.4 353.93 197.088 353.93C171.222 353.93 148.789 350.039 129.79 342.256C111.02 334.702 96.4842 323.944 86.1835 309.98C76.1117 295.788 71.0758 278.964 71.0758 259.507C71.0758 245.315 74.6238 232.153 81.7199 220.021C88.8159 207.66 98.6588 196.787 111.249 187.402C124.067 178.017 138.717 170.692 155.198 165.427C171.908 160.163 189.648 157.53 208.418 157.53C226.96 157.53 243.097 160.048 256.832 165.084C270.566 169.891 281.096 176.758 288.421 185.685C295.974 194.613 299.751 205.142 299.751 217.274C299.751 227.804 296.89 237.761 291.167 247.146C285.674 256.531 278.005 264.772 268.163 271.868C258.549 278.964 247.218 284.572 234.17 288.692C221.352 292.584 207.617 294.529 192.967 294.529C174.655 294.529 160.12 291.325 149.361 284.915C138.603 278.277 133.223 269.35 133.223 258.134C133.223 248.52 137.687 239.821 146.614 232.039C155.77 224.256 167.902 218.075 183.01 213.497C198.118 208.69 214.713 206.287 232.797 206.287C252.025 206.287 269.765 208.576 286.017 213.154C302.269 217.732 316.347 224.141 328.25 232.382C340.153 240.622 349.424 250.351 356.062 261.567C362.7 272.784 366.019 285.03 366.019 298.306C366.019 315.016 361.784 330.582 353.315 345.003C344.846 359.424 332.942 372.014 317.606 382.772C302.498 393.531 284.758 401.886 264.386 407.837C244.242 414.018 222.382 417.108 198.804 417.108C169.734 417.108 142.952 413.216 118.459 405.434C94.1952 397.651 73.2504 386.663 55.6248 372.471C37.9991 358.279 24.3793 341.455 14.7653 321.998C4.92242 302.541 0.000976562 281.139 0.000976562 257.79C0.000976562 234.442 4.92242 213.039 14.7653 193.583C24.3793 174.126 37.9991 157.301 55.6248 143.109C73.4793 128.688 94.5385 117.586 118.802 109.804C143.066 102.021 169.734 98.1294 198.804 98.1294C218.948 98.1294 237.604 100.418 254.772 104.997C272.168 109.575 287.047 115.984 299.408 124.225C311.998 132.236 321.039 141.621 326.533 152.38L324.473 153.066C319.208 142.308 310.395 133.037 298.035 125.255C285.903 117.243 271.253 111.063 254.085 106.713C237.146 102.364 218.719 100.19 198.804 100.19C169.963 100.19 143.524 104.081 119.489 111.864C95.4541 119.418 74.6238 130.29 56.9982 144.483C39.6014 158.446 26.0961 175.041 16.4821 194.269C6.86811 213.497 2.06112 234.671 2.06112 257.79C2.06112 280.91 6.86811 302.083 16.4821 321.311C26.0961 340.539 39.6014 357.135 56.9982 371.098C74.6238 385.061 95.4541 395.82 119.489 403.374C143.524 411.156 169.963 415.048 198.804 415.048C222.153 415.048 243.784 412.072 263.699 406.12C283.842 400.169 301.354 391.928 316.232 381.399C331.34 370.869 343.014 358.508 351.255 344.316C359.724 330.124 363.959 314.787 363.959 298.306C363.959 280.91 358.236 265.573 346.791 252.297C335.575 238.791 320.009 228.147 300.095 220.364C280.409 212.582 257.862 208.69 232.453 208.69C214.828 208.69 198.576 210.979 183.697 215.557C169.047 219.907 157.258 225.858 148.331 233.412C139.633 240.737 135.283 248.863 135.283 257.79C135.283 268.32 140.434 276.789 150.735 283.199C161.264 289.379 175.342 292.469 192.967 292.469C207.159 292.469 220.55 290.524 233.14 286.632C245.959 282.512 257.175 277.018 266.789 270.151C276.403 263.284 283.957 255.387 289.451 246.459C294.944 237.303 297.691 227.575 297.691 217.274C297.691 205.6 293.914 195.528 286.36 187.059C279.035 178.36 268.735 171.608 255.458 166.801C242.182 161.994 226.502 159.59 208.418 159.59C189.877 159.59 172.48 162.223 156.228 167.487C139.976 172.752 125.555 179.963 112.965 189.119C100.604 198.275 90.876 208.919 83.78 221.051C76.684 232.954 73.1359 245.773 73.1359 259.507C73.1359 284.229 83.5511 303.571 104.381 317.534C125.441 331.269 154.626 338.136 191.937 338.136C214.828 338.136 235.315 334.702 253.398 327.835C271.482 320.968 288.306 311.239 303.872 298.65C319.666 285.831 335.346 270.494 350.911 252.64C366.706 234.556 383.416 214.413 401.042 192.209C418.896 169.777 438.925 145.627 461.129 119.761Z" fill="#A5B82E"/>
<path d="M444.72 331.612C441.973 331.612 439.913 330.353 438.54 327.835C436.938 325.317 436.136 321.884 436.136 317.534C436.136 311.583 437.968 305.288 441.63 298.65C445.064 292.011 449.756 285.602 455.708 279.422C461.659 273.012 468.297 267.29 475.622 262.254C482.947 256.989 490.501 252.869 498.284 249.893C506.296 246.917 513.849 245.429 520.945 245.429C526.897 245.429 529.873 247.718 529.873 252.297C529.873 256.646 527.126 262.139 521.632 268.778C516.138 275.187 509.271 282.741 501.031 291.439C494.393 298.306 487.411 304.83 480.086 311.011C472.99 316.962 466.352 321.884 460.171 325.775C453.991 329.666 448.841 331.612 444.72 331.612ZM445.064 329.895C448.497 329.895 452.961 328.178 458.455 324.745C464.177 321.311 470.586 316.619 477.682 310.667C484.779 304.716 492.103 297.849 499.657 290.066C507.898 281.367 514.536 273.928 519.572 267.748C524.837 261.567 527.469 256.531 527.469 252.64C527.469 249.664 525.524 248.176 521.632 248.176C518.199 248.176 513.735 249.55 508.241 252.297C502.976 255.043 497.254 258.82 491.073 263.627C484.893 268.205 478.827 273.356 472.876 279.078C466.924 284.801 461.43 290.524 456.394 296.246C451.587 301.969 447.696 307.348 444.72 312.384C441.745 317.42 440.257 321.655 440.257 325.088C440.257 328.293 441.859 329.895 445.064 329.895ZM530.903 287.319C525.18 293.728 519.686 298.764 514.422 302.427C509.157 306.089 504.579 307.92 500.687 307.92C494.507 307.92 491.417 304.716 491.417 298.306C491.417 294.644 492.332 291.096 494.164 287.662C495.995 284 499.2 279.536 503.778 274.271H516.482L500.344 292.126C497.597 294.873 496.224 297.963 496.224 301.397C496.224 304.601 497.826 306.204 501.031 306.204C504.235 306.204 508.127 304.601 512.705 301.397C517.512 298.192 522.433 293.728 527.469 288.006L530.559 284.572H533.306L530.903 287.319Z" fill="#A5B82E"/>
<path d="M533.451 284.572H530.704L533.794 281.139C543.866 270.151 553.366 261.453 562.293 255.043C571.22 248.405 578.316 245.086 583.581 245.086C585.641 245.086 587.358 245.773 588.732 247.146C590.105 248.52 590.792 250.351 590.792 252.64C590.792 257.676 588.732 263.284 584.611 269.464C580.491 275.645 573.395 283.885 563.323 294.186H566.757L559.89 303.457L536.885 329.208H514.223C522.464 323.257 530.933 316.39 539.632 308.607C548.33 300.824 556.342 293.042 563.667 285.259C570.991 277.476 576.829 270.609 581.178 264.657C585.756 258.477 588.045 254.013 588.045 251.266C588.045 248.291 586.442 246.803 583.238 246.803C580.491 246.803 576.485 248.405 571.22 251.61C565.956 254.586 560.233 258.706 554.053 263.971C548.101 269.007 542.264 274.729 536.541 281.139L533.451 284.572ZM634.398 331.612C631.88 331.612 629.591 330.467 627.531 328.178C625.7 325.889 624.784 323.257 624.784 320.281C624.784 315.474 626.615 310.438 630.278 305.174C633.94 299.909 638.404 294.758 643.669 289.722C649.162 284.458 654.542 279.536 659.806 274.958C665.3 270.151 669.878 265.802 673.541 261.911C677.203 258.019 679.034 254.7 679.034 251.953C679.034 249.206 677.432 247.833 674.227 247.833C671.023 247.833 666.674 249.55 661.18 252.983C655.686 256.188 649.62 260.537 642.982 266.031C636.344 271.525 629.591 277.591 622.724 284.229C616.086 290.638 609.905 297.047 604.183 303.457H601.436C607.387 296.818 613.797 290.18 620.664 283.542C627.531 276.904 634.398 270.723 641.265 265.001C648.132 259.278 654.427 254.7 660.15 251.266C666.101 247.833 670.908 246.116 674.571 246.116C677.089 246.116 679.378 247.032 681.438 248.863C683.727 250.465 684.871 253.098 684.871 256.76C684.871 261.567 682.926 266.489 679.034 271.525C675.372 276.56 670.794 281.596 665.3 286.632C659.806 291.668 654.313 296.475 648.819 301.053C643.325 305.631 638.633 309.98 634.741 314.101C631.079 318.221 629.248 321.884 629.248 325.088C629.248 328.293 631.079 329.895 634.741 329.895C638.175 329.895 643.096 327.949 649.506 324.058C655.915 320.167 662.897 315.016 670.45 308.607C678.004 302.198 685.1 295.331 691.739 288.006L694.829 284.572H697.576L695.172 287.319C688.076 295.56 680.522 302.999 672.511 309.637C664.728 316.275 657.403 321.655 650.536 325.775C643.898 329.666 638.518 331.612 634.398 331.612ZM559.89 303.457H557.143L578.088 281.139C587.93 270.38 596.972 261.911 605.213 255.73C613.453 249.55 620.206 246.459 625.471 246.459C627.531 246.459 629.248 247.146 630.621 248.52C631.994 249.893 632.681 251.724 632.681 254.013C632.681 258.82 630.85 264.2 627.188 270.151C623.525 276.103 617.001 284.114 607.616 294.186H611.05L604.183 303.457L581.178 329.208H560.92C568.702 323.257 576.6 316.504 584.611 308.95C592.852 301.168 600.291 293.499 606.929 285.946C613.797 278.392 619.29 271.639 623.411 265.687C627.76 259.736 629.934 255.387 629.934 252.64C629.934 249.664 628.332 248.176 625.127 248.176C622.38 248.176 618.604 249.664 613.797 252.64C608.99 255.616 603.725 259.622 598.002 264.657C592.28 269.464 586.557 274.958 580.834 281.139L559.89 303.457Z" fill="#A5B82E"/>
<path d="M688.49 330.925C682.767 330.925 679.906 326.462 679.906 317.534C679.906 311.583 681.737 305.288 685.4 298.65C688.833 292.011 693.526 285.602 699.478 279.422C705.429 273.012 712.067 267.29 719.392 262.254C726.717 256.989 734.271 252.869 742.054 249.893C750.065 246.917 757.619 245.429 764.715 245.429C770.667 245.429 773.643 247.718 773.643 252.297C773.643 256.646 770.896 262.139 765.402 268.778C759.908 275.187 753.041 282.741 744.801 291.439C738.391 298.077 731.524 304.487 724.199 310.667C717.103 316.619 710.35 321.54 703.941 325.432C697.761 329.094 692.61 330.925 688.49 330.925ZM688.833 329.208C692.267 329.208 696.845 327.606 702.568 324.401C708.29 320.968 714.7 316.275 721.796 310.324C728.892 304.372 736.102 297.62 743.427 290.066C751.668 281.367 758.306 273.928 763.342 267.748C768.607 261.567 771.239 256.531 771.239 252.64C771.239 249.664 769.293 248.176 765.402 248.176C761.968 248.176 757.505 249.55 752.011 252.297C746.746 255.043 741.024 258.82 734.843 263.627C728.663 268.205 722.597 273.356 716.645 279.078C710.694 284.801 705.2 290.524 700.164 296.246C695.357 301.969 691.466 307.348 688.49 312.384C685.514 317.42 684.026 321.655 684.026 325.088C684.026 327.835 685.629 329.208 688.833 329.208ZM796.304 284.572L793.901 287.319C786.576 295.56 779.136 303.113 771.582 309.98C764.257 316.619 757.39 321.884 750.981 325.775C744.801 329.666 739.879 331.612 736.217 331.612C734.156 331.612 732.325 330.811 730.723 329.208C729.35 327.835 728.663 326.004 728.663 323.715C728.663 317.763 731.867 309.752 738.277 299.68C744.915 289.608 754.071 278.621 765.745 266.718H767.119L782.913 249.206H803.171C800.195 251.038 796.991 253.327 793.557 256.073C790.124 258.591 786.919 261.338 783.943 264.314C770.896 277.362 760.595 287.777 753.041 295.56C745.487 303.342 740.108 309.408 736.903 313.757C733.928 318.107 732.44 321.769 732.44 324.745C732.44 328.178 733.813 329.895 736.56 329.895C739.765 329.895 744.114 328.178 749.608 324.745C755.33 321.082 761.739 316.046 768.836 309.637C775.932 303.228 783.142 296.017 790.467 288.006L793.557 284.572H796.304ZM760.938 204.913L760.252 203.883L798.708 178.132C801.225 176.529 803.629 175.728 805.918 175.728C809.581 175.728 811.412 177.33 811.412 180.535C811.412 183.053 809.695 184.999 806.261 186.372L760.938 204.913Z" fill="#A5B82E"/>
<path d="M796.333 284.572H793.587L796.677 281.139C806.749 270.151 816.248 261.453 825.175 255.043C834.103 248.405 841.199 245.086 846.464 245.086C848.524 245.086 850.24 245.773 851.614 247.146C852.987 248.52 853.674 250.351 853.674 252.64C853.674 257.676 851.614 263.284 847.494 269.464C843.373 275.645 836.277 283.885 826.206 294.186H829.639L822.772 303.457L799.767 329.208H777.106C785.346 323.257 793.816 316.39 802.514 308.607C811.212 300.824 819.224 293.042 826.549 285.259C833.874 277.476 839.711 270.609 844.06 264.657C848.638 258.477 850.927 254.013 850.927 251.266C850.927 248.291 849.325 246.803 846.12 246.803C843.373 246.803 839.368 248.405 834.103 251.61C828.838 254.586 823.115 258.706 816.935 263.971C810.983 269.007 805.146 274.729 799.424 281.139L796.333 284.572ZM852.987 331.612C850.469 331.612 848.18 330.467 846.12 328.178C844.289 325.889 843.373 323.257 843.373 320.281C843.373 315.474 845.205 310.438 848.867 305.174C852.53 299.909 856.993 294.758 862.258 289.722C867.752 284.458 873.131 279.536 878.396 274.958C883.889 270.151 888.468 265.802 892.13 261.911C895.792 258.019 897.624 254.7 897.624 251.953C897.624 249.206 896.021 247.833 892.817 247.833C889.612 247.833 885.263 249.55 879.769 252.983C874.275 256.188 868.21 260.537 861.571 266.031C854.933 271.525 848.18 277.591 841.313 284.229C834.675 290.638 828.495 297.047 822.772 303.457H820.025C825.977 296.818 832.386 290.18 839.253 283.542C846.12 276.904 852.987 270.723 859.854 265.001C866.722 259.278 873.017 254.7 878.739 251.266C884.691 247.833 889.498 246.116 893.16 246.116C895.678 246.116 897.967 247.032 900.027 248.863C902.316 250.465 903.461 253.098 903.461 256.76C903.461 261.567 901.515 266.489 897.624 271.525C893.961 276.56 889.383 281.596 883.889 286.632C878.396 291.668 872.902 296.475 867.408 301.053C861.915 305.631 857.222 309.98 853.331 314.101C849.668 318.221 847.837 321.884 847.837 325.088C847.837 326.462 848.295 327.606 849.21 328.522C850.355 329.437 851.728 329.895 853.331 329.895C856.764 329.895 861.686 327.949 868.095 324.058C874.504 320.167 881.486 315.016 889.04 308.607C896.594 302.198 903.69 295.331 910.328 288.006L913.418 284.572H916.165L913.761 287.319C906.437 295.56 898.768 302.999 890.757 309.637C882.974 316.275 875.763 321.655 869.125 325.775C862.487 329.666 857.108 331.612 852.987 331.612Z" fill="#A5B82E"/>
<path d="M927.026 225.515V223.111H1063V225.515H927.026ZM928.4 280.452C918.099 291.897 910.889 300.939 906.768 307.577C902.419 313.986 900.244 319.48 900.244 324.058C900.244 327.949 901.847 329.895 905.052 329.895C908.485 329.895 912.262 328.636 916.382 326.118C920.731 323.371 925.996 319.022 932.177 313.071C938.586 306.89 946.483 298.535 955.868 288.006L958.959 284.572H961.705L959.302 287.319C945.11 303.342 933.779 314.787 925.31 321.655C917.069 328.293 910.087 331.612 904.365 331.612C898.184 331.612 895.094 328.178 895.094 321.311C895.094 310.553 901.16 298.306 913.292 284.572C916.726 280.223 920.045 276.217 923.249 272.555C926.454 268.892 930.002 264.886 933.893 260.537C938.014 255.959 943.05 250.465 949.001 244.056C955.182 237.418 962.85 229.292 972.006 219.678C981.162 210.064 992.379 198.161 1005.66 183.969C1008.63 183.969 1012.06 183.74 1015.96 183.282C1020.08 182.595 1023.97 181.794 1027.63 180.878C1021.91 184.999 1013.9 191.98 1003.59 201.823C993.294 211.666 981.62 223.455 968.572 237.189C955.525 250.694 942.134 265.115 928.4 280.452Z" fill="#A5B82E"/>
<path d="M944.816 331.612C942.756 331.612 941.04 330.811 939.666 329.208C938.064 327.835 937.263 326.004 937.263 323.715C937.263 317.077 941.497 307.92 949.967 296.246C958.207 284.343 971.713 268.663 990.483 249.206H1011.08C1008.8 250.351 1006.05 252.182 1002.84 254.7C999.639 257.218 995.977 260.423 991.856 264.314C979.267 276.446 969.195 286.518 961.641 294.529C954.316 302.312 949.051 308.607 945.847 313.414C942.642 317.992 941.04 321.769 941.04 324.745C941.04 328.178 942.413 329.895 945.16 329.895C948.365 329.895 952.943 328.064 958.894 324.401C964.617 320.51 971.026 315.36 978.122 308.95C985.447 302.541 992.429 295.56 999.067 288.006L1002.16 284.572H1004.9L1002.5 287.319C994.947 295.788 987.393 303.457 979.839 310.324C972.285 316.962 965.418 322.227 959.237 326.118C953.286 329.781 948.479 331.612 944.816 331.612ZM1060.18 178.132C1062.24 178.132 1063.27 178.933 1063.27 180.535C1063.27 182.824 1061.67 185.685 1058.47 189.119C1055.49 192.552 1051.94 195.643 1047.82 198.39C1043.7 200.908 1040.16 202.166 1037.18 202.166C1035.35 202.166 1034.43 201.365 1034.43 199.763C1034.43 197.474 1035.92 194.613 1038.9 191.179C1042.1 187.746 1045.76 184.77 1049.88 182.252C1054 179.505 1057.44 178.132 1060.18 178.132Z" fill="#A5B82E"/>
<path d="M1005.24 331.612C1000.89 331.612 997.342 329.895 994.595 326.462C991.848 322.799 990.475 318.221 990.475 312.727C990.475 307.005 992.192 301.168 995.625 295.216C998.83 289.036 1003.18 283.084 1008.67 277.362C1014.17 271.41 1020.35 266.145 1027.21 261.567C1034.08 256.76 1041.18 252.983 1048.5 250.236C1055.83 247.49 1062.81 246.116 1069.45 246.116C1078.15 246.116 1082.49 248.749 1082.49 254.013C1082.49 256.989 1080.89 260.652 1077.69 265.001C1074.71 269.35 1071.16 273.012 1067.04 275.988H1055.03C1058.46 274.386 1062.01 272.097 1065.67 269.121C1069.33 266.145 1072.42 263.17 1074.94 260.194C1077.46 256.989 1078.72 254.471 1078.72 252.64C1078.72 249.664 1076.31 248.176 1071.51 248.176C1066.93 248.176 1061.44 250.008 1055.03 253.67C1048.62 257.332 1041.98 262.139 1035.11 268.091C1028.47 273.814 1022.18 280.108 1016.23 286.976C1010.5 293.614 1005.81 300.138 1002.15 306.547C998.487 312.727 996.655 318.107 996.655 322.685C996.655 327.492 999.746 329.895 1005.93 329.895C1012.34 329.895 1019.66 328.064 1027.9 324.401C1036.37 320.739 1044.84 315.703 1053.31 309.294C1061.78 302.884 1069.56 295.788 1076.66 288.006L1079.75 284.572H1082.49L1080.09 287.319C1072.54 296.017 1064.3 303.686 1055.37 310.324C1046.44 316.962 1037.63 322.227 1028.93 326.118C1020.46 329.781 1012.56 331.612 1005.24 331.612Z" fill="#A5B82E"/>
<path d="M1073.42 330.925C1067.7 330.925 1064.84 326.462 1064.84 317.534C1064.84 311.583 1066.67 305.288 1070.33 298.65C1073.77 292.011 1078.46 285.602 1084.41 279.422C1090.36 273.012 1097 267.29 1104.33 262.254C1111.65 256.989 1119.21 252.869 1126.99 249.893C1135 246.917 1142.55 245.429 1149.65 245.429C1155.6 245.429 1158.58 247.718 1158.58 252.297C1158.58 256.646 1155.83 262.139 1150.34 268.778C1144.84 275.187 1137.98 282.741 1129.74 291.439C1123.33 298.077 1116.46 304.487 1109.13 310.667C1102.04 316.619 1095.29 321.54 1088.88 325.432C1082.7 329.094 1077.55 330.925 1073.42 330.925ZM1073.77 329.208C1077.2 329.208 1081.78 327.606 1087.5 324.401C1093.23 320.968 1099.63 316.275 1106.73 310.324C1113.83 304.372 1121.04 297.62 1128.36 290.066C1136.6 281.367 1143.24 273.928 1148.28 267.748C1153.54 261.567 1156.17 256.531 1156.17 252.64C1156.17 249.664 1154.23 248.176 1150.34 248.176C1146.9 248.176 1142.44 249.55 1136.95 252.297C1131.68 255.043 1125.96 258.82 1119.78 263.627C1113.6 268.205 1107.53 273.356 1101.58 279.078C1095.63 284.801 1090.14 290.524 1085.1 296.246C1080.29 301.969 1076.4 307.348 1073.42 312.384C1070.45 317.42 1068.96 321.655 1068.96 325.088C1068.96 327.835 1070.56 329.208 1073.77 329.208ZM1181.24 284.572L1178.84 287.319C1171.51 295.56 1164.07 303.113 1156.52 309.98C1149.19 316.619 1142.33 321.884 1135.92 325.775C1129.74 329.666 1124.81 331.612 1121.15 331.612C1119.09 331.612 1117.26 330.811 1115.66 329.208C1114.28 327.835 1113.6 326.004 1113.6 323.715C1113.6 317.763 1116.8 309.752 1123.21 299.68C1129.85 289.608 1139.01 278.621 1150.68 266.718H1152.05L1167.85 249.206H1188.11C1185.13 251.038 1181.93 253.327 1178.49 256.073C1175.06 258.591 1171.85 261.338 1168.88 264.314C1155.83 277.362 1145.53 287.777 1137.98 295.56C1130.42 303.342 1125.04 309.408 1121.84 313.757C1118.86 318.107 1117.37 321.769 1117.37 324.745C1117.37 328.178 1118.75 329.895 1121.49 329.895C1124.7 329.895 1129.05 328.178 1134.54 324.745C1140.27 321.082 1146.67 316.046 1153.77 309.637C1160.87 303.228 1168.08 296.017 1175.4 288.006L1178.49 284.572H1181.24Z" fill="#A5B82E"/>
<path d="M1181.27 284.572H1178.52L1181.61 281.139C1197.86 263.284 1210.91 248.634 1220.75 237.189C1230.83 225.744 1237.46 217.732 1240.67 213.154H1252C1244.9 218.419 1236.09 226.316 1225.56 236.846C1215.26 247.375 1201.64 262.025 1184.7 280.795L1181.27 284.572ZM1246.51 287.319C1236.89 298.306 1226.82 306.661 1216.29 312.384C1205.99 318.107 1195.8 320.968 1185.73 320.968C1178.18 320.968 1171.88 321.655 1166.85 323.028C1161.58 324.401 1158.95 326.118 1158.95 328.178C1158.95 329.323 1159.98 329.895 1162.04 329.895C1169.14 329.895 1176 327.949 1182.64 324.058C1189.51 320.167 1195.69 315.016 1201.18 308.607C1206.68 302.198 1211.03 294.987 1214.23 286.976C1217.44 278.735 1219.04 270.38 1219.04 261.911C1219.04 256.875 1219.38 252.411 1220.07 248.52C1220.98 244.628 1222.7 240.622 1225.22 236.502C1227.74 232.153 1231.74 227.117 1237.24 221.394L1251.66 213.154C1245.48 217.961 1240.55 221.967 1236.89 225.171C1233.46 228.147 1231.06 230.894 1229.68 233.412C1228.31 235.701 1227.62 238.219 1227.62 240.966C1227.62 243.942 1228.08 248.062 1229 253.327C1230.14 258.363 1230.71 263.513 1230.71 268.778C1230.71 276.56 1228.77 284.229 1224.87 291.783C1220.98 299.108 1215.72 305.86 1209.08 312.041C1202.44 317.992 1195.12 322.799 1187.11 326.462C1179.09 329.895 1170.97 331.612 1162.73 331.612C1159.06 331.612 1157.23 330.467 1157.23 328.178C1157.23 325.66 1159.98 323.6 1165.47 321.998C1170.97 320.167 1177.61 319.251 1185.39 319.251C1204.85 319.251 1224.07 308.836 1243.07 288.006L1246.16 284.572H1248.91L1246.51 287.319Z" fill="#A5B82E"/>
</svg>
